<svg width="96" height="96" viewBox="0 0 96 96" fill="none" xmlns="http://www.w3.org/2000/svg">
<rect width="96" height="96" rx="48" fill="#F4F6F8"/>
<path d="M57.3985 24H38.4583C37.0106 24 35.6223 24.5751 34.5987 25.5987C33.5751 26.6223 33 28.0106 33 29.4583V63.2177C33.0033 64.5025 33.4596 65.745 34.2888 66.7264C35.118 67.7079 36.2668 68.3653 37.5331 68.5831V71.0748C37.5331 71.3202 37.6306 71.5555 37.8041 71.729C37.9776 71.9025 38.2129 72 38.4583 72C38.7036 72 38.939 71.9025 39.1125 71.729C39.286 71.5555 39.3834 71.3202 39.3834 71.0748V68.6677H57.1828V71.0748C57.1828 71.3202 57.2803 71.5555 57.4538 71.729C57.6273 71.9025 57.8627 72 58.108 72C58.3534 72 58.5887 71.9025 58.7622 71.729C58.9357 71.5555 59.0332 71.3202 59.0332 71.0748V68.4194C60.1417 68.0708 61.11 67.3775 61.7972 66.4404C62.4844 65.5034 62.8546 64.3715 62.854 63.2095V29.4583C62.854 28.0111 62.2793 26.6232 61.2563 25.5997C60.2332 24.5761 58.8456 24.0007 57.3985 24Z" fill="#1F157C"/>
<path d="M47.931 32.3322C49.694 32.3322 51.4598 32.3322 53.2228 32.3322C53.4264 32.3197 53.6302 32.3523 53.8197 32.4277C54.0092 32.503 54.1798 32.6192 54.3192 32.7681C54.4587 32.9169 54.5635 33.0946 54.6264 33.2887C54.6893 33.4827 54.7086 33.6882 54.6829 33.8905C54.6119 34.6246 54.017 35.135 53.1819 35.1377C50.903 35.1377 48.6242 35.1377 46.359 35.1377C45.1582 35.1377 43.9547 35.1377 42.7538 35.1377C41.7986 35.1377 41.1819 34.5646 41.1928 33.7104C41.2037 32.8562 41.8123 32.3322 42.7456 32.3322C44.4595 32.3295 46.1925 32.3322 47.931 32.3322Z" fill="#DEE4F3"/>
<path d="M47.9722 38.0278C49.7215 38.0278 51.4682 38.0278 53.2175 38.0278C54.1236 38.0278 54.7158 38.6419 54.6831 39.4879C54.6732 39.7786 54.5706 40.0584 54.3905 40.2867C54.2103 40.515 53.9619 40.6798 53.6815 40.757C53.4852 40.8062 53.2835 40.8309 53.0811 40.8306C49.6478 40.8306 46.2146 40.8306 42.7813 40.8306C41.848 40.8306 41.2312 40.323 41.1766 39.5398C41.1193 38.6719 41.7224 38.036 42.6367 38.0278C44.3069 38.0278 45.9744 38.0278 47.6447 38.0278H47.9722Z" fill="#DEE4F3"/>
<path d="M49.2491 55.4834V56.2039C49.2491 57.9123 49.2491 59.6217 49.2491 61.3319C49.2584 61.6205 49.2401 61.9093 49.1946 62.1943C49.1088 62.6046 48.9225 62.9872 48.6524 63.3078C48.3823 63.6283 48.0369 63.8769 47.6471 64.031C47.4048 64.1355 47.157 64.2266 46.9048 64.304C46.7547 64.3504 46.6674 64.304 46.6319 64.1375C46.6196 64.0792 46.6141 64.0197 46.6155 63.9601C46.6155 62.4372 46.6155 60.9144 46.6155 59.3915C46.6096 58.9621 46.6971 58.5365 46.8721 58.1443C47.2476 57.2836 47.8064 56.5152 48.5095 55.8928C48.7126 55.6894 48.969 55.5475 49.2491 55.4834Z" fill="#DEE4F3"/>
<path d="M46.6074 53.876L46.6293 57.3802C47.2869 56.5039 48.2035 55.8566 49.2492 55.5298V53.876H46.6074Z" fill="#FDAF17"/>
</svg>
