<svg width="97" height="96" viewBox="0 0 97 96" fill="none" xmlns="http://www.w3.org/2000/svg">
<rect x="0.5" width="96" height="96" rx="48" fill="#F4F6F8"/>
<path d="M66.3873 24H30.6127C27.2368 24 24.5 26.7368 24.5 30.1127V65.8873C24.5 69.2633 27.2368 72 30.6127 72H66.3873C69.7633 72 72.5 69.2633 72.5 65.8873V30.1127C72.5 26.7368 69.7633 24 66.3873 24Z" fill="#1F157C"/>
<mask id="mask0_0_4045" style="mask-type:luminance" maskUnits="userSpaceOnUse" x="31" y="31" width="35" height="34">
<path d="M48.4986 64.9034C57.8331 64.9034 65.4002 57.3362 65.4002 48.0017C65.4002 38.6672 57.8331 31.1001 48.4986 31.1001C39.164 31.1001 31.5969 38.6672 31.5969 48.0017C31.5969 57.3362 39.164 64.9034 48.4986 64.9034Z" fill="white"/>
</mask>
<g mask="url(#mask0_0_4045)">
<path d="M48.4986 48.491L48.4924 48.5063V48.4849L48.4986 48.491Z" fill="url(#paint0_linear_0_4045)"/>
<path d="M48.85 48.3628V48.8365L48.8164 48.7998C48.8164 48.6501 48.8347 48.4942 48.8409 48.3628H48.85Z" fill="url(#paint1_linear_0_4045)"/>
<path d="M50.8734 54.5454C50.8771 56.842 49.9947 59.0514 48.4101 60.7136C46.8254 62.3759 44.6606 63.3627 42.3665 63.4687C40.0724 63.5746 37.8258 62.7915 36.0947 61.2825C34.3636 59.7734 33.2813 57.6547 33.0732 55.3676C33.1049 55.3859 33.1346 55.4074 33.1619 55.4318C33.2766 55.5358 33.3993 55.6308 33.5286 55.716C33.818 55.9431 34.1246 56.1475 34.4455 56.3273C34.5617 56.4006 34.6839 56.4557 34.797 56.5229C34.9101 56.5901 35.0415 56.6513 35.1638 56.7093L35.5519 56.8805C35.8056 56.9783 36.0654 57.0761 36.3252 57.1556C36.3252 57.1556 36.3252 57.1556 36.3435 57.1556L36.7256 57.2686C36.8142 57.2839 36.8967 57.3084 36.9701 57.3267L37.3338 57.4062L37.7097 57.4795C37.8962 57.504 38.0826 57.5284 38.269 57.5468C38.4555 57.5651 38.5961 57.5712 38.7489 57.5773C38.9017 57.5834 39.0545 57.5957 39.2318 57.5957C40.4918 57.5993 41.7401 57.3529 42.9042 56.8707C44.0684 56.3886 45.1253 55.6803 46.0138 54.7869C46.1544 54.6493 46.2828 54.5118 46.4142 54.3651C46.6624 54.0894 46.8931 53.7985 47.105 53.4941C47.1875 53.3718 47.2669 53.2587 47.3403 53.1456C47.5701 52.7939 47.7744 52.4262 47.9516 52.0453C48.0646 51.7947 48.1808 51.541 48.2572 51.2812C48.3061 51.1529 48.355 51.0123 48.3947 50.8839C48.4345 50.7556 48.4773 50.615 48.5078 50.4835C48.5384 50.3521 48.5751 50.2176 48.6056 50.077C48.6362 49.9365 48.6637 49.802 48.6881 49.6706C48.737 49.3955 48.7707 49.1174 48.7951 48.8423C48.9235 48.989 49.0457 49.1479 49.1588 49.3038C49.2261 49.3955 49.2902 49.4841 49.3483 49.5727C49.4706 49.7439 49.5745 49.9242 49.6815 50.1107C49.7491 50.2185 49.8114 50.3297 49.8679 50.4438C50.1138 50.9216 50.3183 51.4196 50.4792 51.9323C50.5189 52.079 50.5586 52.2165 50.5923 52.3632C50.6259 52.5099 50.6564 52.6413 50.69 52.788C50.7237 52.9347 50.739 53.0539 50.7542 53.1854C50.8011 53.4891 50.8307 53.7952 50.8429 54.1023C50.8429 54.1603 50.8429 54.2092 50.8429 54.2643C50.8429 54.3193 50.8734 54.4568 50.8734 54.5454Z" fill="#1F157C"/>
<path d="M49.2779 48.3474H48.8378V48.3627C48.8386 48.5098 48.8304 48.6567 48.8134 48.8028L48.847 48.8334V48.3627C49.009 48.3627 49.1526 48.3627 49.3177 48.378C49.3062 48.3656 49.2928 48.3553 49.2779 48.3474ZM48.9723 48.0143C48.9376 47.9625 48.8965 47.9153 48.85 47.8737V48.0204C48.8546 48.0661 48.8546 48.1122 48.85 48.1579C48.8931 48.1195 48.9339 48.0787 48.9723 48.0357H48.9937L48.9723 48.0143ZM48.6514 47.675H48.5138C48.5626 47.6705 48.6117 47.6705 48.6605 47.675H48.6514ZM48.5047 47.5283L48.4802 47.5681C48.4833 47.5609 48.4879 47.5544 48.4937 47.5491C48.4995 47.5439 48.5064 47.5399 48.5138 47.5375L48.5047 47.5283ZM48.3671 47.6659C48.302 47.6705 48.2366 47.6705 48.1715 47.6659H48.5047C48.4636 47.6654 48.4227 47.6613 48.3824 47.6536L48.3671 47.6659ZM48.3671 48.3505H48.5047C48.4555 48.3515 48.4063 48.3474 48.358 48.3383L48.3671 48.3505ZM48.1715 48.7814V48.8456L48.5047 48.5216V48.4972C48.3971 48.5958 48.2827 48.6867 48.1624 48.7692L48.1715 48.7814ZM48.1715 48.1702V48.3566C48.2003 48.3231 48.2332 48.2934 48.2693 48.268L48.1715 48.1702Z" fill="url(#paint2_linear_0_4045)"/>
<path d="M48.9938 48.0202H48.9602C48.9195 48.0172 48.8786 48.0172 48.8379 48.0202V47.8735L48.9693 48.0019L48.9938 48.0202Z" fill="url(#paint3_linear_0_4045)"/>
<path d="M49.336 47.7055C49.2198 47.8002 49.1037 47.9041 48.9937 48.0111L49.2993 47.7055C49.3113 47.7023 49.3239 47.7023 49.336 47.7055Z" fill="url(#paint4_linear_0_4045)"/>
<path d="M63.9699 54.5488C63.9685 56.7732 63.1361 58.9168 61.6361 60.5594C60.136 62.2019 58.0765 63.2248 55.8614 63.4275C55.8886 63.3982 55.9132 63.3665 55.9347 63.3327C56.0233 63.2288 56.1059 63.128 56.1884 63.0271C56.8369 62.1621 57.3349 61.1939 57.6616 60.1633C57.7043 60.0258 57.7441 59.8943 57.7777 59.7599C57.7991 59.6773 57.8205 59.5948 57.8388 59.5184C57.875 59.3972 57.9026 59.2737 57.9213 59.1486C57.9489 59.0172 57.9702 58.8888 57.9916 58.7574C58.0191 58.574 58.0467 58.3967 58.0589 58.2103C58.0711 58.0239 58.0864 57.9047 58.0925 57.7366C58.0986 57.5685 58.1078 57.4156 58.1078 57.2567C58.1098 55.996 57.8627 54.7473 57.3807 53.5824C56.8987 52.4174 56.1912 51.3592 55.299 50.4686C55.1829 50.3524 55.0667 50.2424 54.9506 50.1415C54.8344 50.0407 54.7091 49.9276 54.5869 49.8359C54.4646 49.7442 54.3454 49.6372 54.2232 49.5303C54.1009 49.4233 53.9175 49.3255 53.7769 49.2246C53.6363 49.1238 53.5447 49.0718 53.4285 49.0046C53.2669 48.9015 53.0995 48.8076 52.9273 48.7234C52.805 48.6561 52.6736 48.595 52.5513 48.54C51.7683 48.1735 50.9382 47.9174 50.0849 47.779C49.9901 47.7587 49.8941 47.7445 49.7976 47.7362C49.6863 47.7169 49.5741 47.7037 49.4614 47.6964C49.4207 47.6934 49.3798 47.6934 49.3391 47.6964C49.9617 47.1694 50.6564 46.734 51.4021 46.4036C51.5947 46.315 51.7995 46.2325 52.0134 46.156L52.1357 46.1163C52.2457 46.0796 52.3496 46.0399 52.4596 46.0124C52.6858 45.9452 52.9181 45.881 53.1504 45.8351C53.2558 45.8071 53.363 45.7867 53.4713 45.774C53.6383 45.7362 53.8079 45.7106 53.9787 45.6976C54.0765 45.6976 54.1712 45.6701 54.2659 45.664C54.3607 45.6579 54.5013 45.6426 54.6235 45.6426C54.7458 45.6426 54.9292 45.6426 55.0698 45.6426C57.43 45.6466 59.6924 46.5864 61.3608 48.256C63.0292 49.9255 63.9674 52.1885 63.9699 54.5488Z" fill="#1F157C"/>
<path d="M49.3422 47.6965C49.3828 47.692 49.4238 47.692 49.4645 47.6965C49.4239 47.6915 49.3828 47.6915 49.3422 47.6965ZM49.2933 47.6965L48.9877 48.0021C49.0916 47.9043 49.2138 47.7973 49.33 47.6965C49.3198 47.695 49.3095 47.695 49.2994 47.6965H49.2933ZM49.009 48.0204L48.9938 48.0052L48.8654 47.8737V48.0204C48.87 48.0662 48.87 48.1122 48.8654 48.158C48.9084 48.1196 48.9492 48.0788 48.9877 48.0357H48.9938C49.0977 48.1427 49.1894 48.2558 49.278 48.3628H49.3269L49.009 48.0204ZM48.5139 47.6751C48.5627 47.6705 48.6118 47.6705 48.6606 47.6751C48.6917 47.7031 48.7213 47.7327 48.7493 47.7637C48.7756 47.7302 48.8053 47.6995 48.8379 47.672L48.5139 47.6751ZM49.278 48.3597H48.8379V48.375C48.9999 48.375 49.1435 48.375 49.3086 48.3903C49.301 48.3743 49.2906 48.3598 49.278 48.3475V48.3597ZM48.3672 47.6659H48.5048C48.4637 47.6655 48.4228 47.6614 48.3825 47.6537L48.3672 47.6659ZM48.3672 48.3505H48.5048C48.4556 48.3516 48.4064 48.3475 48.3581 48.3383L48.3672 48.3505ZM48.1716 48.1641V48.3505C48.2004 48.3171 48.2333 48.2873 48.2694 48.2619L48.1716 48.1641ZM48.0494 48.0082L48.1899 48.1458C48.1291 48.1026 48.0737 48.0523 48.0249 47.996L48.0494 48.0082ZM48.9113 47.1952C49.0182 47.1035 49.1221 47.0149 49.2383 46.9263C49.0977 47.0027 48.9938 47.0944 48.8868 47.183L48.9113 47.1952Z" fill="url(#paint5_linear_0_4045)"/>
<path d="M48.1288 48.809C48.1288 48.9435 48.1013 49.0749 48.0829 49.2063C48.0646 49.3377 48.0493 49.4569 48.0218 49.5884C47.9943 49.7198 47.9729 49.842 47.9454 49.9643C47.8844 50.2477 47.8069 50.5274 47.7131 50.8017C47.6856 50.8904 47.6489 50.9851 47.6153 51.0737C47.4865 51.4341 47.3312 51.7845 47.1508 52.1221C47.0957 52.226 47.0407 52.3299 46.9796 52.4277C46.8757 52.6141 46.7657 52.7914 46.6495 52.9626C46.5762 53.0787 46.4936 53.1887 46.4111 53.2988C46.3286 53.4088 46.3011 53.4485 46.24 53.5188C46.1788 53.5891 46.1361 53.6533 46.0749 53.7236C45.9038 53.9284 45.7265 54.1209 45.5401 54.3043C43.9152 55.913 41.7342 56.8356 39.4482 56.8814C37.1622 56.9272 34.946 56.0926 33.258 54.5502C31.5701 53.0079 30.5394 50.8758 30.3793 48.595C30.2192 46.3141 30.9418 44.0589 32.3978 42.2959C32.4253 42.5771 32.4589 42.8522 32.5078 43.1242C32.5261 43.2342 32.5475 43.3442 32.5689 43.4543C32.5689 43.5154 32.5964 43.5765 32.6086 43.6468C32.6209 43.7171 32.6575 43.8455 32.685 43.9524C32.7523 44.2219 32.8349 44.4872 32.9326 44.7471C32.9937 44.9244 33.061 45.0955 33.1374 45.2697C33.1779 45.3739 33.2238 45.4759 33.2749 45.5754C33.3819 45.8138 33.5072 46.0399 33.6356 46.2753C33.7059 46.3914 33.7792 46.5076 33.8495 46.6176C33.9198 46.7276 33.9932 46.8346 34.0696 46.9446C34.146 47.0546 34.1857 47.1097 34.2468 47.1922C34.308 47.2747 34.4027 47.4031 34.4852 47.4978C34.7053 47.7637 34.9315 48.0174 35.1699 48.2588C36.0624 49.1495 37.122 49.855 38.288 50.3349C39.454 50.8149 40.7033 51.0597 41.9641 51.0554C42.1261 51.0554 42.285 51.0554 42.444 51.0401C42.6029 51.0248 42.7649 51.0218 42.9208 51.0065C43.0766 50.9912 43.3059 50.9668 43.4984 50.9301L43.853 50.869C43.963 50.8486 44.073 50.8241 44.183 50.7956C44.2778 50.7742 44.3756 50.7528 44.4642 50.7253C44.6018 50.6917 44.7301 50.6489 44.8677 50.6092C46.0661 50.2364 47.1772 49.6262 48.1349 48.8151C48.1349 48.8151 48.1288 48.8151 48.1288 48.809Z" fill="#DEE4F3"/>
<path d="M48.1624 48.3413H48.1501V48.3474H48.1624V48.3413Z" fill="url(#paint6_linear_0_4045)"/>
<path d="M48.4925 48.4849V48.5063L48.1655 48.8363V48.7722C48.2796 48.6823 48.3887 48.5864 48.4925 48.4849Z" fill="url(#paint7_linear_0_4045)"/>
<path d="M48.4986 48.3472H48.355C48.4028 48.3502 48.4508 48.3502 48.4986 48.3472Z" fill="url(#paint8_linear_0_4045)"/>
<path d="M48.52 47.5007V47.516L48.4956 47.5557C48.4987 47.5485 48.5033 47.5421 48.5091 47.5368C48.5149 47.5316 48.5218 47.5276 48.5292 47.5252C48.6362 47.4213 48.7431 47.3235 48.8562 47.2196V47.1768L48.52 47.5007ZM48.52 47.6627C48.5688 47.6582 48.6179 47.6582 48.6667 47.6627C48.6978 47.6907 48.7274 47.7203 48.7554 47.7514C48.7818 47.7179 48.8115 47.6872 48.844 47.6597V47.6749L48.52 47.6627ZM48.3733 47.6535H48.5109C48.4682 47.6575 48.4252 47.6575 48.3825 47.6535H48.3733ZM48.3733 48.3382H48.5109C48.4601 48.3437 48.4088 48.3437 48.3581 48.3382H48.3733ZM48.1777 48.7691V48.8333L48.5109 48.5093V48.4849C48.4017 48.5879 48.2853 48.6829 48.1624 48.7691H48.1777ZM48.1777 48.1578V48.3443C48.2065 48.3108 48.2394 48.281 48.2755 48.2556L48.1777 48.1578ZM48.0555 47.9989V48.0142L48.1961 48.1517C48.1328 48.1071 48.0753 48.0547 48.0249 47.9959L48.0555 47.9989ZM48.1533 48.8211C48.1487 48.8862 48.1487 48.9516 48.1533 49.0167C48.1533 48.9525 48.1533 48.8791 48.1777 48.8119C48.1319 48.818 48.1319 48.818 48.1227 48.818L48.1533 48.8211Z" fill="url(#paint9_linear_0_4045)"/>
<path d="M57.4201 57.2627C57.4184 58.9568 56.9347 60.6154 56.0253 62.0447C55.116 63.474 53.8186 64.615 52.2848 65.3343C50.751 66.0536 49.0442 66.3215 47.3638 66.1067C45.6835 65.8918 44.0989 65.2032 42.7954 64.1212C43.0705 64.0876 43.3547 64.054 43.6328 64.0051C43.7698 63.9865 43.9055 63.96 44.0393 63.9256C44.1769 63.9011 44.3144 63.8675 44.455 63.8278C44.7222 63.7612 44.9855 63.6795 45.2436 63.5833C45.9072 63.3373 46.5425 63.0207 47.1385 62.6389L47.4441 62.428C47.548 62.3546 47.655 62.2721 47.7498 62.1988C48.0954 61.9322 48.4241 61.6443 48.7339 61.3369C49.6271 60.4464 50.3349 59.3877 50.8165 58.2221C51.298 57.0564 51.5438 55.8069 51.5396 54.5457C51.5396 54.3898 51.5396 54.24 51.5244 54.0658V53.968C51.5244 53.8457 51.5091 53.7235 51.4907 53.5921C51.4755 53.4148 51.451 53.2284 51.4265 53.0389C51.4021 52.9105 51.3868 52.7882 51.3532 52.666C51.3299 52.5234 51.2972 52.3825 51.2554 52.2442C51.214 52.0423 51.1599 51.8433 51.0934 51.6482C51.0537 51.5199 51.0109 51.3884 50.962 51.2601L50.8153 50.8689C50.7022 50.6152 50.5891 50.3707 50.4669 50.1201C50.4516 50.0864 50.4332 50.062 50.418 50.0314C50.3446 49.8908 50.2621 49.7625 50.1826 49.6249C50.1032 49.4874 50.0206 49.356 49.9289 49.2245C49.8372 49.0931 49.7578 48.9739 49.6691 48.8517C49.5549 48.6877 49.4325 48.5296 49.3024 48.3779C49.3452 48.3779 49.3941 48.3779 49.4338 48.3963L49.8067 48.4452L50.2376 48.5185C50.3843 48.5491 50.5158 48.5827 50.6625 48.6163C50.9467 48.6866 51.2157 48.7691 51.4907 48.8578L51.558 48.8822C51.775 48.9648 51.995 49.0534 52.2059 49.1512C52.848 49.4469 53.4523 49.8183 54.0061 50.2576C54.0795 50.3065 54.1436 50.3707 54.2078 50.4196C54.3389 50.5271 54.4644 50.6414 54.5838 50.7619C54.6571 50.82 54.7213 50.8841 54.7947 50.9483C55.6267 51.776 56.287 52.7599 56.7376 53.8435C57.1881 54.9272 57.4201 56.0892 57.4201 57.2627Z" fill="#DEE4F3"/>
<path d="M47.6581 48.3075C47.6414 48.3255 47.623 48.3418 47.6031 48.3564C47.4931 48.4511 47.377 48.5398 47.2608 48.6223L46.8971 48.8759C46.781 48.9585 46.6557 49.0349 46.5334 49.1082C46.4112 49.1816 46.2797 49.258 46.1514 49.3283C46.023 49.3986 45.8977 49.4567 45.7663 49.5208C45.4763 49.6565 45.1794 49.7769 44.8769 49.8815C44.7668 49.9182 44.6629 49.9579 44.5529 49.9854C44.3267 50.0526 44.0944 50.1168 43.8683 50.1627C43.746 50.1902 43.6299 50.2116 43.5046 50.233C43.1384 50.3018 42.7675 50.3427 42.3951 50.3552C42.2453 50.3552 42.0895 50.3705 41.9519 50.3705C39.6559 50.3726 37.4476 49.4891 35.7866 47.9039C34.1256 46.3188 33.1399 44.1541 33.0348 41.8605C32.9296 39.5669 33.7131 37.3211 35.2221 35.5906C36.7311 33.8602 38.8493 32.7783 41.1359 32.5703L41.0686 32.662C40.9647 32.7782 40.87 32.9004 40.7783 33.0227V33.0379C40.5023 33.4153 40.2531 33.8116 40.0325 34.2238C40.0186 34.2546 40.0023 34.2842 39.9836 34.3124C39.8614 34.5569 39.7422 34.8045 39.6352 35.0582C39.5282 35.3119 39.4366 35.5778 39.354 35.8406C39.3112 35.9751 39.2715 36.1065 39.2379 36.2441C39.2165 36.3266 39.1951 36.4091 39.1737 36.4824C39.1402 36.6041 39.1137 36.7276 39.0942 36.8523C39.0667 36.9837 39.0453 37.1151 39.0239 37.2435C38.9964 37.4207 38.9689 37.6072 38.9567 37.7845C38.9445 37.9617 38.9292 38.0901 38.92 38.2582C38.9109 38.4263 38.92 38.5791 38.92 38.738C38.9131 39.9981 39.1549 41.2472 39.6317 42.4136C40.1084 43.58 40.8107 44.6409 41.6983 45.5354L41.8083 45.6393C42.0018 45.8347 42.2059 46.0194 42.4195 46.1925C42.5204 46.2811 42.6304 46.3636 42.7405 46.4462C42.8505 46.5287 42.9605 46.6112 43.0767 46.6846C43.9771 47.3082 44.9808 47.7676 46.0413 48.0416C46.2889 48.1027 46.5365 48.1577 46.7901 48.2066C47.0772 48.2578 47.367 48.2915 47.6581 48.3075Z" fill="#1F157C"/>
<path d="M48.1562 48.1366L48.0217 47.999H48.0431C48.0778 48.0473 48.1156 48.0932 48.1562 48.1366Z" fill="url(#paint10_linear_0_4045)"/>
<path d="M48.2603 48.2462C48.2267 48.2738 48.193 48.3074 48.1655 48.3349V48.1484L48.2603 48.2462Z" fill="url(#paint11_linear_0_4045)"/>
<path d="M48.8561 47.8734V48.0201C48.8606 48.0658 48.8606 48.1119 48.8561 48.1576C48.8991 48.1192 48.9399 48.0784 48.9784 48.0354L48.8561 47.8734ZM48.5138 47.6625C48.5626 47.6579 48.6117 47.6579 48.6605 47.6625C48.6915 47.6905 48.7211 47.7201 48.7491 47.7511C48.7755 47.7177 48.8052 47.6869 48.8378 47.6594L48.5138 47.6625ZM48.3671 47.6625C48.302 47.6671 48.2366 47.6671 48.1715 47.6625H48.5046C48.4637 47.663 48.4228 47.66 48.3824 47.6533L48.3671 47.6625ZM48.3671 48.3471H48.5046C48.4555 48.3492 48.4064 48.3461 48.3579 48.3379L48.3671 48.3471ZM48.1715 48.1607V48.3471C48.2003 48.3136 48.2331 48.2839 48.2693 48.2585L48.1715 48.1607ZM48.0492 48.0017C47.9514 47.9039 47.8567 47.7878 47.7589 47.6747H47.71L48.0431 48.0017L48.1837 48.1393C48.1254 48.0977 48.072 48.0495 48.0248 47.9956L48.0492 48.0017Z" fill="url(#paint12_linear_0_4045)"/>
<path d="M48.0219 47.9804H48.0066L47.6765 47.6748H47.7254C47.8232 47.7787 47.918 47.8887 48.0219 47.9804Z" fill="url(#paint13_linear_0_4045)"/>
<path d="M54.2078 31.8858C53.9266 31.9072 53.6454 31.9469 53.3704 31.9958C53.2328 32.0172 53.0953 32.0447 52.9608 32.0783C52.8263 32.1119 52.6919 32.1395 52.5543 32.1731C52.4168 32.2067 52.2884 32.2495 52.157 32.2923C52.0222 32.3297 51.8895 32.3746 51.7597 32.4267C51.4987 32.5149 51.2426 32.6169 50.9925 32.7324C50.6138 32.9101 50.2482 33.1143 49.8984 33.3436C49.7822 33.417 49.663 33.4934 49.556 33.5759C49.4491 33.6585 49.3421 33.7257 49.2504 33.8021C48.9022 34.0644 48.5743 34.3525 48.2693 34.664C47.3744 35.5536 46.6648 36.6119 46.1816 37.7776C45.6984 38.9434 45.4513 40.1933 45.4544 41.4552C45.4544 41.6111 45.4544 41.7608 45.4544 41.932C45.4544 42.1032 45.4697 42.2376 45.488 42.3996C45.5064 42.5616 45.5308 42.7633 45.5583 42.9406C45.5858 43.1179 45.5981 43.2004 45.6256 43.3318C45.6502 43.4751 45.6829 43.617 45.7234 43.7566C45.8059 44.0898 45.9068 44.4199 46.029 44.7408C46.1329 45.0159 46.2491 45.2818 46.3713 45.5446C46.4539 45.7219 46.5425 45.893 46.6403 46.0642C46.6922 46.1681 46.7473 46.2629 46.8023 46.3698C46.8573 46.4768 46.9734 46.6449 47.0651 46.7824C47.1568 46.92 47.2363 47.0361 47.331 47.1645C47.4258 47.2928 47.5694 47.4701 47.7008 47.6321C47.5633 47.6321 47.4349 47.6046 47.3035 47.5832L46.9215 47.5221L46.5425 47.4487C46.2888 47.3937 46.0443 47.3234 45.7967 47.25C45.536 47.1614 45.2799 47.0594 45.0296 46.9444C44.9134 46.8986 44.7973 46.8497 44.6873 46.7947C44.5533 46.7358 44.4227 46.6695 44.2961 46.596C44.1677 46.5349 44.0424 46.4585 43.9201 46.3851C43.2908 46.0057 42.7108 45.5499 42.1933 45.0281L42.1047 44.9456C40.5165 43.3062 39.617 41.1205 39.5914 38.8382C39.5657 36.5559 40.4158 34.3505 41.9667 32.6759C43.5176 31.0013 45.6514 29.9848 47.9289 29.8355C50.2065 29.6863 52.4547 30.4156 54.2109 31.8735L54.2078 31.8858Z" fill="#DEE4F3"/>
<path d="M47.6917 47.6229C47.5603 47.6045 47.432 47.5984 47.3005 47.5801L47.7009 47.629C47.7009 47.629 47.6917 47.629 47.6917 47.6229ZM49.009 48.0202L48.9938 48.0049L48.8654 47.8735V48.0202C48.8699 48.0659 48.8699 48.112 48.8654 48.1577C48.9084 48.1193 48.9492 48.0785 48.9876 48.0355H48.9938C49.0977 48.1425 49.1894 48.2555 49.278 48.3625H49.3269L49.009 48.0202ZM48.5139 47.6748C48.5627 47.6703 48.6118 47.6703 48.6606 47.6748H48.5139ZM48.5139 47.5373L48.4895 47.577C48.4926 47.5698 48.4972 47.5634 48.503 47.5581C48.5088 47.5528 48.5156 47.5489 48.5231 47.5465L48.5139 47.5373ZM48.2083 47.1889C48.2083 47.1889 48.2083 47.2194 48.2083 47.2286L48.5139 47.5342C48.4069 47.3937 48.303 47.2806 48.2052 47.1675L48.2083 47.1889ZM48.3703 47.6748C48.3051 47.6794 48.2398 47.6794 48.1747 47.6748H48.5078C48.4655 47.6716 48.4235 47.6644 48.3825 47.6534L48.3703 47.6748ZM48.1655 48.173V48.3595C48.1943 48.326 48.2272 48.2962 48.2633 48.2708L48.1655 48.173ZM48.028 48.0141C47.9301 47.9163 47.8354 47.8001 47.7376 47.6871H47.6887L48.0218 48.0141L48.1624 48.1516C48.1109 48.105 48.0648 48.0527 48.0249 47.9957L48.028 48.0141Z" fill="url(#paint14_linear_0_4045)"/>
<path d="M48.5078 47.6748H48.1716C48.2328 47.6748 48.2939 47.6748 48.3642 47.6748C48.412 47.6781 48.46 47.6781 48.5078 47.6748Z" fill="url(#paint15_linear_0_4045)"/>
<path d="M48.52 47.4977V47.5344C48.5048 47.5344 48.4925 47.5496 48.4864 47.5619L48.5139 47.5282L48.2083 47.2226C48.2053 47.2075 48.2053 47.1919 48.2083 47.1768C48.303 47.2929 48.4069 47.409 48.5139 47.5252L48.52 47.4977Z" fill="url(#paint16_linear_0_4045)"/>
<path d="M63.9271 40.6451L63.8385 40.5748C63.7223 40.4739 63.597 40.3761 63.4748 40.2875C63.215 40.0949 62.9552 39.9238 62.6862 39.7588C62.5517 39.6793 62.4142 39.6029 62.2767 39.5265C62.0016 39.3828 61.7204 39.2453 61.4331 39.1291C61.2895 39.068 61.1458 39.013 60.996 38.9641C60.8463 38.9152 60.7546 38.8755 60.6385 38.8418C60.5223 38.8082 60.3848 38.7654 60.2564 38.7318L60.015 38.6707L59.6451 38.5882C59.5168 38.5607 59.3854 38.5393 59.2539 38.5209C59.1225 38.5026 58.8933 38.4659 58.713 38.4506C58.5326 38.4354 58.4073 38.4231 58.2423 38.417C58.0772 38.4109 57.9183 38.417 57.7624 38.417C56.5005 38.4139 55.2505 38.6616 54.0851 39.1459C52.9198 39.6302 51.8623 40.3414 50.9743 41.238C50.5738 41.6359 50.2106 42.0697 49.8893 42.5339L49.657 42.8823C49.5836 42.9985 49.5072 43.1146 49.44 43.2399C49.2989 43.4765 49.1704 43.7203 49.0549 43.9704C48.9326 44.2332 48.8226 44.5053 48.7187 44.7926C48.6698 44.9362 48.6239 45.0982 48.575 45.2327C48.5261 45.3672 48.4864 45.5383 48.4528 45.685C48.4099 45.8358 48.3752 45.9889 48.3489 46.1435C48.3193 46.2787 48.2968 46.4154 48.2816 46.553C48.2471 46.7256 48.2236 46.9001 48.2113 47.0757C48.2082 47.1123 48.2082 47.1491 48.2113 47.1857C48.1026 47.0565 48.0006 46.9219 47.9057 46.7822C47.727 46.5524 47.5646 46.3104 47.4197 46.0579C47.3433 45.9326 47.2669 45.8042 47.1997 45.6728C47.0629 45.4196 46.9395 45.1595 46.8299 44.8934C46.6565 44.4804 46.5165 44.0542 46.4111 43.6189C46.3775 43.5089 46.3561 43.3927 46.3286 43.2766C46.2828 43.0504 46.2461 42.8151 46.2186 42.5828C46.2186 42.482 46.1911 42.378 46.185 42.2772C46.1789 42.1763 46.1636 42.051 46.1636 41.9349C46.1636 41.8187 46.1636 41.6292 46.1636 41.4917C46.2301 39.2465 47.1414 37.1091 48.7153 35.5066C50.2892 33.9041 52.4099 32.9545 54.6535 32.8475C56.8972 32.7406 59.0985 33.4842 60.8177 34.9298C62.5369 36.3753 63.6473 38.4164 63.9271 40.6451Z" fill="#1F157C"/>
<path d="M48.5016 47.6626C48.5504 47.6581 48.5995 47.6581 48.6483 47.6626C48.6793 47.6906 48.7089 47.7202 48.7369 47.7513C48.7633 47.7178 48.793 47.6871 48.8256 47.6596L48.5016 47.6626ZM48.8347 47.8674V48.0049C48.8303 47.9612 48.8303 47.9172 48.8347 47.8735V47.8674ZM48.8347 48.1517V48.0141C48.8403 48.0597 48.8413 48.1058 48.8378 48.1517H48.8347ZM48.8347 48.3473V48.3625C48.8355 48.5096 48.8273 48.6566 48.8103 48.8027L48.8439 48.8332V48.3473H48.8347ZM48.5169 47.5006V47.5159L48.4924 47.5557C48.4955 47.5485 48.5001 47.542 48.5059 47.5368C48.5117 47.5315 48.5186 47.5275 48.5261 47.5251C48.633 47.4212 48.74 47.3234 48.8531 47.2195V47.1767L48.5169 47.5006ZM48.1929 47.195L48.4985 47.5006C48.4007 47.3784 48.2968 47.2653 48.1929 47.1522C48.196 47.1736 48.196 47.1981 48.196 47.2072L48.1929 47.195ZM48.3641 47.6412C48.2989 47.6458 48.2336 47.6458 48.1685 47.6412H48.5016C48.4623 47.6488 48.4224 47.6528 48.3824 47.6535L48.3641 47.6412ZM48.3641 48.3259H48.5016C48.4543 48.3348 48.4061 48.3389 48.358 48.3381L48.3641 48.3259ZM63.9698 41.5866C63.8964 41.5224 63.8139 41.4399 63.7406 41.3818C63.8384 41.4735 63.9362 41.5622 64.0279 41.66L63.9698 41.5866Z" fill="url(#paint17_linear_0_4045)"/>
<path d="M48.8501 47.1768V47.2196C48.734 47.3143 48.63 47.409 48.52 47.5252V47.5099L48.8501 47.1768Z" fill="url(#paint18_linear_0_4045)"/>
<path d="M48.8623 47.6748C48.8287 47.7023 48.8012 47.7359 48.7645 47.7634C48.7366 47.7313 48.707 47.7007 48.6759 47.6717C48.628 47.6687 48.5801 47.6687 48.5322 47.6717L48.8623 47.6748Z" fill="url(#paint19_linear_0_4045)"/>
<path d="M66.681 48.0051C66.6888 50.0922 65.9556 52.1143 64.6118 53.7113C64.5843 53.4301 64.5507 53.152 64.5018 52.8769C64.4834 52.7669 64.4621 52.6507 64.4407 52.5468C64.407 52.3848 64.3642 52.2198 64.3245 52.0547C64.2848 51.8897 64.2481 51.7888 64.2084 51.6574C64.1686 51.526 64.1259 51.3976 64.077 51.2662C64.0281 51.1348 63.9822 51.0064 63.9272 50.875C63.8722 50.7436 63.8049 50.5877 63.7346 50.4501C63.5274 50.0077 63.2852 49.5825 63.0103 49.1787C62.9339 49.0595 62.8514 48.9525 62.7688 48.8425C62.6863 48.7325 62.6588 48.6897 62.5977 48.6163L62.4143 48.3902C62.234 48.1701 62.0353 47.9653 61.8366 47.7606C60.949 46.8636 59.8915 46.1525 58.7261 45.6687C57.5606 45.1849 56.3104 44.938 55.0485 44.9426C54.8834 44.9426 54.7276 44.9426 54.5686 44.9579C54.4097 44.9732 54.2477 44.9793 54.0888 44.9915C53.9299 45.0037 53.7129 45.0343 53.5295 45.0618C53.4042 45.0801 53.2819 45.1076 53.1597 45.129L52.7899 45.2116L52.5484 45.2727C52.42 45.3063 52.2947 45.3399 52.1664 45.3827C52.038 45.4255 51.931 45.4591 51.8088 45.505C51.6865 45.5508 51.5031 45.6089 51.3717 45.67C51.0828 45.7877 50.8011 45.9224 50.5281 46.0734C50.4332 46.1184 50.3414 46.1694 50.2531 46.2263C50.1583 46.2782 50.0605 46.3332 49.9658 46.3974C49.871 46.4616 49.7671 46.5258 49.6601 46.5869C49.5532 46.648 49.4798 46.7122 49.3912 46.7795L49.2017 46.9231L48.8716 47.1921C48.8686 47.1626 48.8686 47.1329 48.8716 47.1034C48.8716 46.9659 48.8991 46.8314 48.9205 46.6939C48.9419 46.5564 48.9694 46.3883 48.9969 46.2629C49.0244 46.1376 49.0519 46.0001 49.0855 45.8717C49.1192 45.7434 49.162 45.5661 49.2078 45.4194C49.2446 45.2797 49.2885 45.142 49.3392 45.0068C49.3942 44.857 49.4554 44.7011 49.5226 44.5483C49.5899 44.3955 49.6204 44.3222 49.6754 44.206C49.9608 43.596 50.3167 43.0215 50.736 42.4945C50.7865 42.4227 50.8416 42.3543 50.901 42.2897C51.0661 42.091 51.2433 41.8924 51.4267 41.7059C52.6146 40.5182 54.1133 39.6895 55.7508 39.3149C57.3883 38.9402 59.0982 39.0348 60.6844 39.5879C60.8189 39.6368 60.9503 39.6857 61.0817 39.7407C61.2131 39.7957 61.3415 39.8507 61.4699 39.9118C61.6014 39.9662 61.7299 40.0274 61.855 40.0952C62.0047 40.1716 62.1606 40.2542 62.3073 40.3489C62.5582 40.4963 62.8001 40.6586 63.0317 40.8349C63.1753 40.9388 63.322 41.0488 63.4565 41.1649C63.591 41.2811 63.6368 41.3086 63.7194 41.3911C63.8019 41.4736 63.8691 41.5286 63.9425 41.5959L64.0067 41.6662L64.0403 41.6998C64.8778 42.5222 65.5428 43.5035 65.9963 44.5862C66.4497 45.6689 66.6825 46.8312 66.681 48.0051Z" fill="#DEE4F3"/>
<path d="M53.3827 48.002C53.3835 48.5137 53.3031 49.0223 53.1443 49.5088C53.0908 49.6812 53.0255 49.8497 52.9487 50.0131C52.4914 51.0228 51.7047 51.8472 50.7175 52.3512C50.5548 52.4322 50.3874 52.5037 50.2163 52.5652C49.6626 52.7697 49.0767 52.8732 48.4864 52.8708C47.973 52.8707 47.4627 52.7913 46.9735 52.6355C46.8038 52.5788 46.6375 52.5124 46.4753 52.4368C45.4623 51.9785 44.637 51.1867 44.1372 50.1934C44.0535 50.0372 43.982 49.8747 43.9233 49.7075C43.5315 48.6716 43.5045 47.5332 43.8469 46.48C43.9003 46.3065 43.9657 46.137 44.0425 45.9726C44.4986 44.9606 45.2854 44.1339 46.2736 43.6284C46.4325 43.552 46.6006 43.4756 46.7657 43.4144C47.8067 43.0203 48.9514 42.9955 50.0085 43.3441C50.1757 43.3988 50.3399 43.462 50.5005 43.5336C51.5115 43.989 52.3364 44.7762 52.8386 45.7648C52.9207 45.9258 52.9942 46.0911 53.0587 46.2599C53.2713 46.8162 53.3811 47.4065 53.3827 48.002Z" fill="#DEE4F3"/>
</g>
<path d="M48.4986 64.9034C57.8331 64.9034 65.4002 57.3362 65.4002 48.0017C65.4002 38.6672 57.8331 31.1001 48.4986 31.1001C39.164 31.1001 31.5969 38.6672 31.5969 48.0017C31.5969 57.3362 39.164 64.9034 48.4986 64.9034Z" stroke="#DEE4F3" stroke-width="3" stroke-miterlimit="10"/>
<path d="M67.9065 28.6211V29.1132C67.9065 30.2899 67.9065 31.4635 67.9065 32.6402C67.9157 32.8376 67.9034 33.0354 67.8698 33.2301C67.8117 33.5124 67.684 33.7758 67.4983 33.9962C67.3125 34.2167 67.0746 34.3872 66.8062 34.4923C66.6397 34.5625 66.4693 34.6227 66.2958 34.6727C66.1949 34.7032 66.1338 34.6727 66.1124 34.5565C66.1077 34.5159 66.1077 34.4749 66.1124 34.4343C66.1124 33.389 66.1124 32.3437 66.1124 31.2954C66.1076 31.0006 66.1682 30.7083 66.2897 30.4396C66.5457 29.8474 66.9298 29.3192 67.4144 28.8931C67.5497 28.7582 67.7202 28.6639 67.9065 28.6211Z" fill="url(#paint20_linear_0_4045)"/>
<path d="M66.0908 27.5024L66.1061 29.9108C66.3768 29.5498 66.7139 29.2438 67.0994 29.0092C67.3516 28.8522 67.6227 28.7279 67.9063 28.6394V27.5024H66.0908Z" fill="#FDAF17"/>
<defs>
<linearGradient id="paint0_linear_0_4045" x1="48.4924" y1="48.4971" x2="48.4986" y2="48.4971" gradientUnits="userSpaceOnUse">
<stop stop-color="#0E172B"/>
<stop offset="1" stop-color="#1D284C"/>
</linearGradient>
<linearGradient id="paint1_linear_0_4045" x1="48.8164" y1="48.5981" x2="48.85" y2="48.5981" gradientUnits="userSpaceOnUse">
<stop stop-color="#0E172B"/>
<stop offset="1" stop-color="#1D284C"/>
</linearGradient>
<linearGradient id="paint2_linear_0_4045" x1="48.1471" y1="48.1763" x2="49.3177" y2="48.1763" gradientUnits="userSpaceOnUse">
<stop stop-color="#0E172B"/>
<stop offset="1" stop-color="#1D284C"/>
</linearGradient>
<linearGradient id="paint3_linear_0_4045" x1="48.8501" y1="47.9438" x2="49.006" y2="47.9438" gradientUnits="userSpaceOnUse">
<stop stop-color="#0E172B"/>
<stop offset="1" stop-color="#1D284C"/>
</linearGradient>
<linearGradient id="paint4_linear_0_4045" x1="48.9937" y1="47.8522" x2="49.336" y2="47.8522" gradientUnits="userSpaceOnUse">
<stop stop-color="#0E172B"/>
<stop offset="1" stop-color="#1D284C"/>
</linearGradient>
<linearGradient id="paint5_linear_0_4045" x1="48.0157" y1="47.6506" x2="49.4583" y2="47.6506" gradientUnits="userSpaceOnUse">
<stop stop-color="#0E172B"/>
<stop offset="1" stop-color="#1D284C"/>
</linearGradient>
<linearGradient id="paint6_linear_0_4045" x1="48.1501" y1="48.3444" x2="48.1654" y2="48.3444" gradientUnits="userSpaceOnUse">
<stop stop-color="white"/>
<stop offset="1" stop-color="#D2D8E9"/>
</linearGradient>
<linearGradient id="paint7_linear_0_4045" x1="48.1655" y1="48.6591" x2="48.4925" y2="48.6591" gradientUnits="userSpaceOnUse">
<stop stop-color="white"/>
<stop offset="1" stop-color="#D2D8E9"/>
</linearGradient>
<linearGradient id="paint8_linear_0_4045" x1="48.355" y1="48.3441" x2="48.4986" y2="48.3441" gradientUnits="userSpaceOnUse">
<stop stop-color="white"/>
<stop offset="1" stop-color="#D2D8E9"/>
</linearGradient>
<linearGradient id="paint9_linear_0_4045" x1="48.0157" y1="48.0937" x2="48.8471" y2="48.0937" gradientUnits="userSpaceOnUse">
<stop stop-color="white"/>
<stop offset="1" stop-color="#D2D8E9"/>
</linearGradient>
<linearGradient id="paint10_linear_0_4045" x1="48.0064" y1="48.0663" x2="48.1562" y2="48.0663" gradientUnits="userSpaceOnUse">
<stop stop-color="#0E172B"/>
<stop offset="1" stop-color="#1D284C"/>
</linearGradient>
<linearGradient id="paint11_linear_0_4045" x1="48.1655" y1="48.2432" x2="48.2603" y2="48.2432" gradientUnits="userSpaceOnUse">
<stop stop-color="#0E172B"/>
<stop offset="1" stop-color="#1D284C"/>
</linearGradient>
<linearGradient id="paint12_linear_0_4045" x1="47.6763" y1="48.0017" x2="48.9845" y2="48.0017" gradientUnits="userSpaceOnUse">
<stop stop-color="#0E172B"/>
<stop offset="1" stop-color="#1D284C"/>
</linearGradient>
<linearGradient id="paint13_linear_0_4045" x1="47.6765" y1="47.8276" x2="48.0219" y2="47.8276" gradientUnits="userSpaceOnUse">
<stop stop-color="white"/>
<stop offset="1" stop-color="#D2D8E9"/>
</linearGradient>
<linearGradient id="paint14_linear_0_4045" x1="47.3005" y1="47.7574" x2="49.3269" y2="47.7574" gradientUnits="userSpaceOnUse">
<stop stop-color="white"/>
<stop offset="1" stop-color="#D2D8E9"/>
</linearGradient>
<linearGradient id="paint15_linear_0_4045" x1="48.1716" y1="47.6595" x2="48.5078" y2="47.6595" gradientUnits="userSpaceOnUse">
<stop stop-color="#0E172B"/>
<stop offset="1" stop-color="#1D284C"/>
</linearGradient>
<linearGradient id="paint16_linear_0_4045" x1="48.1991" y1="47.3571" x2="48.52" y2="47.3571" gradientUnits="userSpaceOnUse">
<stop stop-color="#0E172B"/>
<stop offset="1" stop-color="#1D284C"/>
</linearGradient>
<linearGradient id="paint17_linear_0_4045" x1="48.1623" y1="45.1075" x2="64.0279" y2="45.1075" gradientUnits="userSpaceOnUse">
<stop stop-color="#0E172B"/>
<stop offset="1" stop-color="#1D284C"/>
</linearGradient>
<linearGradient id="paint18_linear_0_4045" x1="48.52" y1="47.3449" x2="48.8501" y2="47.3449" gradientUnits="userSpaceOnUse">
<stop stop-color="white"/>
<stop offset="1" stop-color="#D2D8E9"/>
</linearGradient>
<linearGradient id="paint19_linear_0_4045" x1="48.5139" y1="47.7145" x2="48.8623" y2="47.7145" gradientUnits="userSpaceOnUse">
<stop stop-color="white"/>
<stop offset="1" stop-color="#D2D8E9"/>
</linearGradient>
<linearGradient id="paint20_linear_0_4045" x1="66.091" y1="31.6499" x2="67.9065" y2="31.6499" gradientUnits="userSpaceOnUse">
<stop stop-color="white"/>
<stop offset="1" stop-color="#D2D8E9"/>
</linearGradient>
</defs>
</svg>
