<svg width="96" height="96" viewBox="0 0 96 96" fill="none" xmlns="http://www.w3.org/2000/svg">
<rect width="96" height="96" rx="48" fill="#F4F6F8"/>
<path d="M71.0933 48.9094C71.3366 48.9094 71.57 48.8128 71.7421 48.6407C71.9142 48.4686 72.0108 48.2352 72.0108 47.9919C72.0108 47.7485 71.9142 47.5151 71.7421 47.3431C71.57 47.171 71.3366 47.0743 71.0933 47.0743H68.6573V44.0158H71.0933C71.3366 44.0158 71.57 43.9191 71.7421 43.747C71.9142 43.575 72.0108 43.3416 72.0108 43.0982C72.0108 42.8549 71.9142 42.6215 71.7421 42.4494C71.57 42.2773 71.3366 42.1807 71.0933 42.1807H68.6573V32.7669C68.6573 31.3312 68.0869 29.9543 67.0717 28.9391C66.0565 27.9239 64.6796 27.3536 63.2439 27.3536H53.4999V24.9176C53.4999 24.6742 53.4033 24.4408 53.2312 24.2687C53.0591 24.0967 52.8257 24 52.5824 24C52.339 24 52.1056 24.0967 51.9336 24.2687C51.7615 24.4408 51.6648 24.6742 51.6648 24.9176V27.3536H48.6063V24.9176C48.6063 24.6742 48.5096 24.4408 48.3375 24.2687C48.1655 24.0967 47.9321 24 47.6887 24C47.4454 24 47.212 24.0967 47.0399 24.2687C46.8678 24.4408 46.7712 24.6742 46.7712 24.9176V27.3536H43.7126V24.9176C43.7126 24.6742 43.616 24.4408 43.4439 24.2687C43.2718 24.0967 43.0384 24 42.7951 24C42.5517 24 42.3183 24.0967 42.1463 24.2687C41.9742 24.4408 41.8775 24.6742 41.8775 24.9176V27.3536H32.7669C31.3312 27.3536 29.9543 27.9239 28.9391 28.9391C27.9239 29.9543 27.3536 31.3312 27.3536 32.7669V42.1753H24.9176C24.6742 42.1753 24.4408 42.2719 24.2687 42.444C24.0967 42.6161 24 42.8495 24 43.0928C24 43.3362 24.0967 43.5696 24.2687 43.7416C24.4408 43.9137 24.6742 44.0104 24.9176 44.0104H27.3536V47.0689H24.9176C24.6742 47.0689 24.4408 47.1656 24.2687 47.3377C24.0967 47.5097 24 47.7431 24 47.9865C24 48.2298 24.0967 48.4632 24.2687 48.6353C24.4408 48.8074 24.6742 48.904 24.9176 48.904H27.3536V51.9626H24.9176C24.6742 51.9626 24.4408 52.0592 24.2687 52.2313C24.0967 52.4034 24 52.6368 24 52.8801C24 53.1235 24.0967 53.3569 24.2687 53.5289C24.4408 53.701 24.6742 53.7977 24.9176 53.7977H27.3536V63.2331C27.3536 64.6688 27.9239 66.0457 28.9391 67.0609C29.9543 68.0761 31.3312 68.6464 32.7669 68.6464H41.8775V71.0824C41.8775 71.3258 41.9742 71.5592 42.1463 71.7313C42.3183 71.9033 42.5517 72 42.7951 72C43.0384 72 43.2718 71.9033 43.4439 71.7313C43.616 71.5592 43.7126 71.3258 43.7126 71.0824V68.6464H46.7712V71.0824C46.7712 71.3258 46.8678 71.5592 47.0399 71.7313C47.212 71.9033 47.4454 72 47.6887 72C47.9321 72 48.1655 71.9033 48.3375 71.7313C48.5096 71.5592 48.6063 71.3258 48.6063 71.0824V68.6464H51.6648V71.0824C51.6648 71.3258 51.7615 71.5592 51.9336 71.7313C52.1056 71.9033 52.339 72 52.5824 72C52.8257 72 53.0591 71.9033 53.2312 71.7313C53.4033 71.5592 53.4999 71.3258 53.4999 71.0824V68.6464H63.2439C64.6796 68.6464 66.0565 68.0761 67.0717 67.0609C68.0869 66.0457 68.6573 64.6688 68.6573 63.2331V53.8139H71.0933C71.3366 53.8139 71.57 53.7172 71.7421 53.5452C71.9142 53.3731 72.0108 53.1397 72.0108 52.8964C72.0108 52.653 71.9142 52.4196 71.7421 52.2475C71.57 52.0755 71.3366 51.9788 71.0933 51.9788H68.6573V48.9203L71.0933 48.9094Z" fill="#1F157C"/>
<path d="M56.9212 33.79H39.0815C36.0918 33.79 33.6682 36.2137 33.6682 39.2034V57.043C33.6682 60.0327 36.0918 62.4563 39.0815 62.4563H56.9212C59.9109 62.4563 62.3345 60.0327 62.3345 57.043V39.2034C62.3345 36.2137 59.9109 33.79 56.9212 33.79Z" fill="#DEE4F3"/>
<path d="M50.2141 42.0103V43.2147C50.2141 46.0784 50.2141 48.9429 50.2141 51.8084C50.232 52.2901 50.2021 52.7725 50.1248 53.2483C49.8163 54.718 48.8879 55.7114 47.5291 56.3258C47.1242 56.496 46.7093 56.6415 46.2868 56.7616C46.035 56.8401 45.8889 56.7399 45.832 56.4909C45.8145 56.3936 45.8064 56.2948 45.8077 56.1959C45.8077 53.6435 45.8212 51.0938 45.8077 48.5414C45.7996 47.8218 45.9474 47.109 46.2408 46.4519C46.8673 45.0093 47.8034 43.7222 48.9826 42.6815C49.3221 42.3468 49.7488 42.1142 50.2141 42.0103Z" fill="#1F157C"/>
<path d="M45.7859 39.3169C45.7985 41.2747 45.8112 43.2307 45.8238 45.1849C46.9285 43.7196 48.4634 42.6361 50.214 42.0858V39.3169H45.7859Z" fill="#FDAF17"/>
</svg>
