<svg width="96" height="96" viewBox="0 0 96 96" fill="none" xmlns="http://www.w3.org/2000/svg">
<rect width="96" height="96" rx="48" fill="#F4F6F8"/>
<path d="M61.2897 66.678H34.7018C34.3244 66.678 33.9626 66.5281 33.6958 66.2613C33.4289 65.9945 33.2791 65.6326 33.2791 65.2552C33.2791 64.8779 33.4289 64.516 33.6958 64.2492C33.9626 63.9824 34.3244 63.8325 34.7018 63.8325H61.2897C61.667 63.8325 62.0289 63.9824 62.2957 64.2492C62.5626 64.516 62.7124 64.8779 62.7124 65.2552C62.7124 65.6326 62.5626 65.9945 62.2957 66.2613C62.0289 66.5281 61.667 66.678 61.2897 66.678Z" fill="#1F157C"/>
<path d="M72 36.3169V57.2652C72 57.6388 71.9264 58.0088 71.7834 58.3541C71.6404 58.6993 71.4308 59.013 71.1666 59.2772C70.9024 59.5414 70.5887 59.751 70.2435 59.894C69.8982 60.037 69.5282 60.1106 69.1545 60.1106H26.8455V62.1593C26.8455 62.5367 26.6956 62.8986 26.4287 63.1654C26.1619 63.4322 25.8001 63.5821 25.4227 63.5821C25.0454 63.5821 24.6835 63.4322 24.4167 63.1654C24.1499 62.8986 24 62.5367 24 62.1593V31.4227C24 31.0454 24.1499 30.6835 24.4167 30.4167C24.6835 30.1499 25.0454 30 25.4227 30C25.8001 30 26.1619 30.1499 26.4287 30.4167C26.6956 30.6835 26.8455 31.0454 26.8455 31.4227V33.4715H69.1545C69.9092 33.4715 70.633 33.7712 71.1666 34.3049C71.7002 34.8385 72 35.5623 72 36.3169Z" fill="#1F157C"/>
<path d="M49.4185 33.4717V39.1057C49.4185 39.483 49.2686 39.8449 49.0017 40.1117C48.7349 40.3785 48.3731 40.5284 47.9957 40.5284C47.6184 40.5284 47.2565 40.3785 46.9897 40.1117C46.7229 39.8449 46.573 39.483 46.573 39.1057V33.4717H49.4185Z" fill="#FDAF17"/>
<path d="M49.4185 54.5507V60.1107H46.573V54.5507C46.573 54.1733 46.7229 53.8114 46.9897 53.5446C47.2565 53.2778 47.6184 53.1279 47.9957 53.1279C48.3731 53.1279 48.7349 53.2778 49.0017 53.5446C49.2686 53.8114 49.4185 54.1733 49.4185 54.5507Z" fill="#FDAF17"/>
<path d="M36.503 38.5249C31.7909 38.5249 28.2198 42.1216 28.2312 46.8621C28.2714 49.0304 29.161 51.0964 30.7087 52.6157C32.2564 54.1349 34.3385 54.9861 36.5072 54.9861C38.676 54.9861 40.7581 54.1349 42.3058 52.6157C43.8534 51.0964 44.743 49.0304 44.7833 46.8621C44.8003 42.1273 41.2236 38.5277 36.503 38.5249ZM36.6623 52.1091C33.5323 52.1603 31.1905 49.9295 31.1279 46.8479C31.1169 46.1416 31.2451 45.4401 31.5052 44.7834C31.7652 44.1267 32.1521 43.5277 32.6437 43.0205C33.1353 42.5133 33.722 42.1079 34.3702 41.8275C35.0185 41.5471 35.7156 41.397 36.4219 41.386C37.1281 41.375 37.8296 41.5032 38.4863 41.7633C39.143 42.0233 39.742 42.4102 40.2492 42.9018C40.7564 43.3934 41.1618 43.9801 41.4422 44.6283C41.7227 45.2766 41.8727 45.9737 41.8837 46.68C41.9061 47.3816 41.7879 48.0805 41.5361 48.7357C41.2842 49.3909 40.9038 49.9891 40.4173 50.495C39.9307 51.0009 39.3478 51.4044 38.7029 51.6816C38.0581 51.9588 37.3642 52.1042 36.6623 52.1091Z" fill="#DEE4F3"/>
<path d="M59.48 38.5249C54.7679 38.5249 51.1969 42.1216 51.2083 46.8621C51.2485 49.0304 52.1381 51.0964 53.6858 52.6157C55.2335 54.1349 57.3156 54.9861 59.4843 54.9861C61.653 54.9861 63.7351 54.1349 65.2828 52.6157C66.8305 51.0964 67.7201 49.0304 67.7603 46.8621C67.7774 42.1273 64.2006 38.5277 59.48 38.5249ZM59.6394 52.1091C56.5094 52.1603 54.1676 49.9295 54.105 46.8479C54.0827 45.4216 54.6279 44.0448 55.6208 43.0205C56.6136 41.9962 57.9726 41.4083 59.3989 41.386C60.8252 41.3637 62.202 41.909 63.2263 42.9018C64.2506 43.8946 64.8385 45.2537 64.8608 46.68C64.8832 47.3816 64.765 48.0805 64.5131 48.7357C64.2613 49.3909 63.8809 49.9891 63.3943 50.495C62.9077 51.0009 62.3249 51.4044 61.68 51.6816C61.0351 51.9588 60.3413 52.1042 59.6394 52.1091Z" fill="#DEE4F3"/>
<path d="M37.9113 44.2246H35.1C34.4604 44.2246 33.9419 44.7431 33.9419 45.3827V48.194C33.9419 48.8336 34.4604 49.3521 35.1 49.3521H37.9113C38.5509 49.3521 39.0694 48.8336 39.0694 48.194V45.3827C39.0694 44.7431 38.5509 44.2246 37.9113 44.2246Z" fill="#DEE4F3"/>
<path d="M60.8884 44.2246H58.077C57.4374 44.2246 56.9189 44.7431 56.9189 45.3827V48.194C56.9189 48.8336 57.4374 49.3521 58.077 49.3521H60.8884C61.528 49.3521 62.0465 48.8336 62.0465 48.194V45.3827C62.0465 44.7431 61.528 44.2246 60.8884 44.2246Z" fill="#DEE4F3"/>
</svg>
