<svg width="96" height="96" viewBox="0 0 96 96" fill="none" xmlns="http://www.w3.org/2000/svg">
<rect width="96" height="96" rx="48" fill="#F4F6F8"/>
<path d="M62.1046 24H34.3164C30.8279 24 28 26.8279 28 30.3164V65.6836C28 69.1721 30.8279 72 34.3164 72H62.1046C65.593 72 68.4209 69.1721 68.4209 65.6836V30.3164C68.4209 26.8279 65.593 24 62.1046 24Z" fill="#1F157C"/>
<path d="M57.0511 24.0054V29.1463C57.0514 29.5611 56.97 29.972 56.8114 30.3553C56.6528 30.7386 56.4202 31.0869 56.1269 31.3803C55.8335 31.6736 55.4852 31.9062 55.1019 32.0648C54.7186 32.2234 54.3077 32.3048 53.8929 32.3045H42.5256C41.688 32.3045 40.8847 31.9717 40.2924 31.3795C39.7002 30.7872 39.3674 29.9839 39.3674 29.1463V24.0054H57.0511Z" fill="#DEE4F3"/>
<path d="M43.3546 24.0054V28.8872C43.361 28.9948 43.3452 29.1025 43.3084 29.2038C43.2716 29.3051 43.2145 29.3978 43.1405 29.4762C43.0666 29.5546 42.9774 29.6171 42.8784 29.6598C42.7795 29.7025 42.6729 29.7245 42.5651 29.7245C42.4573 29.7245 42.3507 29.7025 42.2517 29.6598C42.1528 29.6171 42.0636 29.5546 41.9897 29.4762C41.9157 29.3978 41.8586 29.3051 41.8218 29.2038C41.7849 29.1025 41.7692 28.9948 41.7755 28.8872V24.0054H43.3546Z" fill="#1F157C"/>
<path d="M47.1019 24.0054V28.8872C47.1083 28.9948 47.0925 29.1025 47.0557 29.2038C47.0189 29.3051 46.9618 29.3978 46.8878 29.4762C46.8139 29.5546 46.7247 29.6171 46.6257 29.6598C46.5268 29.7025 46.4202 29.7245 46.3124 29.7245C46.2046 29.7245 46.098 29.7025 45.999 29.6598C45.9001 29.6171 45.8109 29.5546 45.7369 29.4762C45.663 29.3978 45.6059 29.3051 45.5691 29.2038C45.5322 29.1025 45.5165 28.9948 45.5228 28.8872V24.0054H47.1019Z" fill="#1F157C"/>
<path d="M50.8491 24.0054V28.8872C50.8491 29.0962 50.766 29.2967 50.6182 29.4445C50.4704 29.5923 50.2699 29.6754 50.0609 29.6754C49.8518 29.6754 49.6514 29.5923 49.5036 29.4445C49.3557 29.2967 49.2727 29.0962 49.2727 28.8872V24.0054H50.8491Z" fill="#1F157C"/>
<path d="M54.599 24.0054V28.8872C54.6053 28.9948 54.5896 29.1025 54.5528 29.2038C54.516 29.3051 54.4588 29.3978 54.3849 29.4762C54.311 29.5546 54.2218 29.6171 54.1228 29.6598C54.0239 29.7025 53.9172 29.7245 53.8095 29.7245C53.7017 29.7245 53.595 29.7025 53.4961 29.6598C53.3971 29.6171 53.308 29.5546 53.234 29.4762C53.1601 29.3978 53.103 29.3051 53.0661 29.2038C53.0293 29.1025 53.0136 28.9948 53.0199 28.8872V24.0054H54.599Z" fill="#1F157C"/>
<path d="M48.1846 64.5435C55.8001 64.5435 61.9737 58.3699 61.9737 50.7544C61.9737 43.1389 55.8001 36.9653 48.1846 36.9653C40.5691 36.9653 34.3955 43.1389 34.3955 50.7544C34.3955 58.3699 40.5691 64.5435 48.1846 64.5435Z" fill="#DEE4F3"/>
<path d="M49.8618 46.1675C49.8618 46.4893 49.8618 46.7866 49.8618 47.0811C49.8618 49.2629 49.8618 51.4357 49.8618 53.5993C49.8773 53.9643 49.8544 54.33 49.7936 54.6902C49.6854 55.212 49.4489 55.6986 49.1056 56.1062C48.7624 56.5137 48.323 56.8294 47.8272 57.0248C47.5198 57.1542 47.2047 57.2644 46.8836 57.3548C46.6927 57.4148 46.5809 57.3384 46.54 57.1448C46.5254 57.0702 46.519 56.9943 46.5209 56.9184C46.5209 54.9848 46.5209 53.0484 46.5209 51.1148C46.5134 50.569 46.625 50.0283 46.8481 49.5302C47.3238 48.4357 48.0342 47.459 48.929 46.6693C49.1864 46.4174 49.5098 46.2434 49.8618 46.1675Z" fill="#1F157C"/>
<path d="M46.5046 44.1274L46.5346 48.5756C47.0381 47.9107 47.6605 47.3448 48.3701 46.9065C48.8374 46.6187 49.3385 46.3897 49.8619 46.2247V44.1274H46.5046Z" fill="#FDAF17"/>
</svg>
