<svg width="97" height="96" viewBox="0 0 97 96" fill="none" xmlns="http://www.w3.org/2000/svg">
<rect x="0.5" width="96" height="96" rx="48" fill="#F4F6F8"/>
<path d="M69.7883 35H27.2117C25.7141 35 24.5 36.2141 24.5 37.7117V57.9465C24.5 59.4441 25.7141 60.6582 27.2117 60.6582H69.7883C71.2859 60.6582 72.5 59.4441 72.5 57.9465V37.7117C72.5 36.2141 71.2859 35 69.7883 35Z" fill="#1F157C"/>
<path d="M32.8983 39.3848H29.3378C28.7283 39.3848 28.2341 39.8789 28.2341 40.4885V44.0489C28.2341 44.6585 28.7283 45.1526 29.3378 45.1526H32.8983C33.5078 45.1526 34.0019 44.6585 34.0019 44.0489V40.4885C34.0019 39.8789 33.5078 39.3848 32.8983 39.3848Z" fill="#DEE4F3"/>
<path d="M41.7601 39.3848H38.1996C37.5901 39.3848 37.0959 39.8789 37.0959 40.4885V44.0489C37.0959 44.6585 37.5901 45.1526 38.1996 45.1526H41.7601C42.3696 45.1526 42.8638 44.6585 42.8638 44.0489V40.4885C42.8638 39.8789 42.3696 39.3848 41.7601 39.3848Z" fill="#DEE4F3"/>
<path d="M32.8983 49.8628H29.3378C28.7283 49.8628 28.2341 50.3569 28.2341 50.9664V54.5269C28.2341 55.1365 28.7283 55.6306 29.3378 55.6306H32.8983C33.5078 55.6306 34.0019 55.1365 34.0019 54.5269V50.9664C34.0019 50.3569 33.5078 49.8628 32.8983 49.8628Z" fill="#DEE4F3"/>
<path d="M50.6219 39.3848H47.0614C46.4519 39.3848 45.9578 39.8789 45.9578 40.4885V44.0489C45.9578 44.6585 46.4519 45.1526 47.0614 45.1526H50.6219C51.2314 45.1526 51.7256 44.6585 51.7256 44.0489V40.4885C51.7256 39.8789 51.2314 39.3848 50.6219 39.3848Z" fill="#DEE4F3"/>
<path d="M59.4864 39.3848H55.9259C55.3164 39.3848 54.8223 39.8789 54.8223 40.4885V44.0489C54.8223 44.6585 55.3164 45.1526 55.9259 45.1526H59.4864C60.0959 45.1526 60.5901 44.6585 60.5901 44.0489V40.4885C60.5901 39.8789 60.0959 39.3848 59.4864 39.3848Z" fill="#DEE4F3"/>
<path d="M68.3485 39.3848H64.788C64.1785 39.3848 63.6843 39.8789 63.6843 40.4885V44.0489C63.6843 44.6585 64.1785 45.1526 64.788 45.1526H68.3485C68.958 45.1526 69.4521 44.6585 69.4521 44.0489V40.4885C69.4521 39.8789 68.958 39.3848 68.3485 39.3848Z" fill="#DEE4F3"/>
<path d="M68.3485 49.8628H64.788C64.1785 49.8628 63.6843 50.3569 63.6843 50.9664V54.5269C63.6843 55.1365 64.1785 55.6306 64.788 55.6306H68.3485C68.958 55.6306 69.4521 55.1365 69.4521 54.5269V50.9664C69.4521 50.3569 68.958 49.8628 68.3485 49.8628Z" fill="#DEE4F3"/>
<path d="M57.9002 50.2559H39.7833C38.2991 50.2559 37.0959 51.4584 37.0959 52.9418C37.0959 54.4252 38.2991 55.6278 39.7833 55.6278H57.9002C59.3844 55.6278 60.5875 54.4252 60.5875 52.9418C60.5875 51.4584 59.3844 50.2559 57.9002 50.2559Z" fill="#FDAF17"/>
</svg>
