<svg width="96" height="96" viewBox="0 0 96 96" fill="none" xmlns="http://www.w3.org/2000/svg">
<rect width="96" height="96" rx="48" fill="#F4F6F8"/>
<path d="M65.8873 24H30.1127C26.7368 24 24 26.7368 24 30.1127V65.8873C24 69.2633 26.7368 72 30.1127 72H65.8873C69.2633 72 72 69.2633 72 65.8873V30.1127C72 26.7368 69.2633 24 65.8873 24Z" fill="#1F157C"/>
<mask id="mask0_0_4034" style="mask-type:luminance" maskUnits="userSpaceOnUse" x="31" y="31" width="34" height="34">
<path d="M48.0015 64.9034C57.336 64.9034 64.9031 57.3362 64.9031 48.0017C64.9031 38.6672 57.336 31.1001 48.0015 31.1001C38.667 31.1001 31.0999 38.6672 31.0999 48.0017C31.0999 57.3362 38.667 64.9034 48.0015 64.9034Z" fill="white"/>
</mask>
<g mask="url(#mask0_0_4034)">
<path d="M48.0015 48.491L47.9954 48.5063V48.4849L48.0015 48.491Z" fill="url(#paint0_linear_0_4034)"/>
<path d="M48.3498 48.3628V48.8365L48.3162 48.7998C48.3162 48.6501 48.3375 48.4942 48.3437 48.3628H48.3498Z" fill="url(#paint1_linear_0_4034)"/>
<path d="M50.3732 54.5454C50.3769 56.842 49.4945 59.0514 47.9098 60.7136C46.3252 62.3759 44.1604 63.3627 41.8663 63.4687C39.5722 63.5746 37.3256 62.7915 35.5945 61.2825C33.8633 59.7734 32.781 57.6547 32.573 55.3676C32.6056 55.3859 32.6364 55.4074 32.6647 55.4318C32.7784 55.5358 32.9 55.6308 33.0284 55.716C33.3174 55.9437 33.624 56.1481 33.9453 56.3273C34.0584 56.4006 34.1806 56.4557 34.2937 56.5229C34.4068 56.5901 34.5382 56.6513 34.6605 56.7093L35.0517 56.8805C35.3023 56.9783 35.5621 57.0761 35.825 57.1556C35.825 57.1556 35.825 57.1556 35.8402 57.1556L36.2223 57.2686C36.3109 57.2839 36.3934 57.3084 36.4668 57.3267L36.8336 57.4062L37.2064 57.4795C37.3929 57.504 37.5824 57.5284 37.7688 57.5468C37.9552 57.5651 38.0928 57.5712 38.2486 57.5773C38.4045 57.5834 38.5543 57.5957 38.7285 57.5957C39.989 57.5993 41.2377 57.353 42.4024 56.8709C43.567 56.3887 44.6245 55.6804 45.5136 54.7869C45.6511 54.6493 45.7795 54.5118 45.9109 54.3651C46.16 54.0902 46.3907 53.7992 46.6017 53.4941C46.6842 53.3718 46.7667 53.2587 46.837 53.1456C47.0679 52.7946 47.2723 52.4269 47.4483 52.0453C47.5633 51.7961 47.6654 51.5411 47.7539 51.2812C47.8028 51.1529 47.8517 51.0123 47.8914 50.8839C47.9312 50.7556 47.974 50.615 48.0076 50.4835C48.0412 50.3521 48.0718 50.2176 48.1054 50.077C48.139 49.9365 48.1604 49.802 48.1848 49.6706C48.2338 49.3955 48.2674 49.1174 48.2918 48.8423C48.4202 48.989 48.5424 49.1479 48.6586 49.3038C48.7228 49.3955 48.7869 49.4841 48.845 49.5727C48.9673 49.7439 49.0712 49.9242 49.1782 50.1107C49.247 50.2178 49.3093 50.3291 49.3646 50.4438C49.6131 50.9204 49.8177 51.4186 49.9759 51.9323C50.0156 52.079 50.0553 52.2165 50.0889 52.3632C50.1226 52.5099 50.1531 52.6413 50.1868 52.788C50.2204 52.9347 50.2357 53.0539 50.2509 53.1854C50.2973 53.4892 50.3279 53.7953 50.3426 54.1023C50.3426 54.1603 50.3426 54.2092 50.3426 54.2643C50.3426 54.3193 50.3732 54.4568 50.3732 54.5454Z" fill="#DEE4F3"/>
<path d="M48.7778 48.3474H48.3408V48.3627C48.34 48.5097 48.3318 48.6566 48.3163 48.8028L48.3469 48.8334V48.3627C48.5089 48.3627 48.6525 48.3627 48.8206 48.378C48.808 48.3657 48.7936 48.3554 48.7778 48.3474ZM48.4722 48.0143C48.4375 47.9625 48.3964 47.9153 48.3499 47.8737V48.0204C48.353 48.0662 48.353 48.1121 48.3499 48.1579C48.3937 48.1203 48.4346 48.0794 48.4722 48.0357V48.0143ZM48.1513 47.675H48.0138C48.0625 47.6705 48.1117 47.6705 48.1605 47.675H48.1513ZM47.9924 47.5161L47.9679 47.5558C47.975 47.5419 47.987 47.531 48.0015 47.5253L47.9924 47.5161ZM47.8548 47.6536C47.7897 47.6582 47.7243 47.6582 47.6592 47.6536H47.9924C47.9507 47.6574 47.9087 47.6574 47.867 47.6536H47.8548ZM47.8548 48.3383H47.9924C47.9487 48.3425 47.9046 48.3425 47.8609 48.3383H47.8548ZM47.6592 48.7692V48.8334L47.9924 48.5094V48.485C47.8894 48.5865 47.7802 48.6814 47.6653 48.7692H47.6592ZM47.6592 48.1579V48.3444C47.6873 48.3102 47.7202 48.2803 47.757 48.2557L47.6592 48.1579Z" fill="url(#paint2_linear_0_4034)"/>
<path d="M48.5088 48.0202H48.4721C48.4314 48.0172 48.3905 48.0172 48.3499 48.0202V47.8735L48.4813 48.0019L48.5088 48.0202Z" fill="url(#paint3_linear_0_4034)"/>
<path d="M48.8357 47.7053C48.7196 47.8001 48.6034 47.904 48.4934 48.0109L48.799 47.7053C48.811 47.7017 48.8238 47.7017 48.8357 47.7053Z" fill="url(#paint4_linear_0_4034)"/>
<path d="M63.4695 54.5488C63.4667 56.7733 62.6334 58.9166 61.133 60.5589C59.6326 62.2012 57.5731 63.2242 55.358 63.4275C55.3853 63.3974 55.4108 63.3658 55.4344 63.3327C55.523 63.2288 55.6055 63.128 55.6881 63.0271C56.3356 62.162 56.8326 61.1938 57.1582 60.1633C57.201 60.0258 57.2407 59.8943 57.2774 59.7599C57.2957 59.6773 57.3171 59.5948 57.3385 59.5184C57.3599 59.442 57.3996 59.2709 57.421 59.1486C57.4424 59.0263 57.4669 58.8888 57.4883 58.7574C57.5158 58.574 57.5433 58.3967 57.5555 58.2103C57.5677 58.0239 57.583 57.9047 57.5922 57.7366C57.6013 57.5685 57.5922 57.4156 57.5922 57.2567C57.5942 55.996 57.3471 54.7473 56.8651 53.5824C56.3831 52.4174 55.6756 51.3592 54.7834 50.4686C54.6672 50.3524 54.5511 50.2424 54.435 50.1415C54.3188 50.0407 54.1935 49.9276 54.0713 49.8359C53.949 49.7442 53.8329 49.6372 53.7075 49.5303C53.5822 49.4233 53.4019 49.3255 53.2644 49.2246C53.1268 49.1238 53.029 49.0718 52.9129 49.0046C52.7523 48.9015 52.5859 48.8076 52.4147 48.7234C52.2894 48.6561 52.161 48.595 52.0357 48.54C51.2529 48.1731 50.4227 47.917 49.5692 47.779C49.4745 47.7585 49.3785 47.7442 49.2819 47.7362C49.1717 47.7171 49.0605 47.7038 48.9488 47.6964C48.9071 47.6934 48.8652 47.6934 48.8235 47.6964C49.4466 47.1701 50.1412 46.7348 50.8865 46.4036C51.0791 46.315 51.2838 46.2325 51.4978 46.156L51.6231 46.1163C51.7331 46.0796 51.834 46.0399 51.9288 46.0124C52.1549 45.9452 52.3872 45.881 52.6195 45.8351C52.7258 45.8068 52.8341 45.7864 52.9435 45.774C53.1105 45.7362 53.28 45.7106 53.4508 45.6976C53.5456 45.6976 53.6403 45.6701 53.7381 45.664C53.8359 45.6579 53.9704 45.6426 54.0927 45.6426C54.2149 45.6426 54.3983 45.6426 54.5389 45.6426C56.9018 45.6466 59.1666 46.5879 60.8364 48.2599C62.5061 49.9319 63.4443 52.1981 63.4451 54.561L63.4695 54.5488Z" fill="#DEE4F3"/>
<path d="M48.845 47.6965C48.8856 47.6919 48.9267 47.6919 48.9673 47.6965C48.9267 47.6913 48.8856 47.6913 48.845 47.6965ZM48.7961 47.6965L48.4905 48.0021C48.5975 47.9043 48.7197 47.7973 48.8328 47.6965C48.8207 47.694 48.8082 47.694 48.7961 47.6965ZM48.5088 48.0204V48.0052L48.3805 47.8737V48.0204C48.3835 48.0662 48.3835 48.1122 48.3805 48.158C48.4242 48.1203 48.4651 48.0795 48.5027 48.0357H48.5272C48.6341 48.1427 48.7228 48.2558 48.8114 48.3628H48.8603L48.5088 48.0204ZM48.0137 47.6751C48.0625 47.6705 48.1116 47.6705 48.1604 47.6751C48.1929 47.7015 48.2226 47.7312 48.249 47.7637C48.2826 47.7301 48.3071 47.6965 48.3377 47.672L48.0137 47.6751ZM48.7778 48.3597H48.3407V48.375C48.5027 48.375 48.6464 48.375 48.8145 48.3903C48.8047 48.3741 48.7923 48.3596 48.7778 48.3475V48.3597ZM47.867 47.6659H48.0045C47.9584 47.6664 47.9123 47.6623 47.867 47.6537V47.6659ZM47.867 48.3505H48.0045C47.9563 48.3516 47.9082 48.3475 47.8609 48.3383L47.867 48.3505ZM47.6714 48.1641V48.3505C47.6994 48.3163 47.7324 48.2865 47.7692 48.2619L47.6714 48.1641ZM47.5308 48.0082L47.6683 48.1458C47.6117 48.101 47.5595 48.0508 47.5125 47.996L47.5308 48.0082ZM48.3957 47.1952C48.4997 47.1035 48.6066 47.0149 48.7197 46.9263C48.6005 47.0027 48.4935 47.0944 48.3896 47.183L48.3957 47.1952Z" fill="url(#paint5_linear_0_4034)"/>
<path d="M47.6316 48.809C47.6316 48.9435 47.6041 49.0749 47.5827 49.2063C47.5613 49.3377 47.5491 49.4569 47.5216 49.5884C47.4941 49.7198 47.4727 49.842 47.4452 49.9643C47.3842 50.2477 47.3066 50.5274 47.2129 50.8017C47.1854 50.8904 47.1518 50.9851 47.1181 51.0737C46.9883 51.4342 46.832 51.7846 46.6505 52.1221C46.5955 52.226 46.5405 52.3299 46.4794 52.4277C46.3794 52.6114 46.2702 52.7899 46.1523 52.9626C46.0759 53.0787 45.9934 53.1887 45.9109 53.2988C45.8284 53.4088 45.8009 53.4485 45.7397 53.5188C45.6786 53.5891 45.6358 53.6533 45.5747 53.7236C45.4035 53.9284 45.2262 54.1209 45.0398 54.3043C43.4149 55.913 41.234 56.8356 38.9479 56.8814C36.6619 56.9272 34.4458 56.0926 32.7578 54.5502C31.0698 53.0079 30.0392 50.8758 29.8791 48.595C29.719 46.3141 30.4416 44.0589 31.8975 42.2959C31.925 42.5771 31.9586 42.8522 32.0075 43.1242C32.0289 43.2342 32.0473 43.3442 32.0687 43.4543C32.0687 43.5154 32.0962 43.5765 32.1084 43.6468C32.1206 43.7171 32.1573 43.8455 32.1848 43.9524C32.2534 44.2215 32.3361 44.4867 32.4324 44.7471C32.4935 44.9244 32.5607 45.0955 32.6371 45.2697C32.6799 45.3716 32.7258 45.4735 32.7747 45.5754C32.8847 45.8138 33.007 46.0399 33.1384 46.2753C33.2056 46.3914 33.282 46.5076 33.3493 46.6176C33.4165 46.7276 33.4929 46.8346 33.5693 46.9446C33.6457 47.0546 33.6855 47.1097 33.7466 47.1922C33.8077 47.2747 33.9055 47.4031 33.9881 47.4978C34.2033 47.7629 34.4318 48.0169 34.6727 48.2588C35.5634 49.151 36.6217 49.8583 37.7866 50.3403C38.9515 50.8224 40.2001 51.0695 41.4608 51.0676C41.6259 51.0676 41.7818 51.0676 41.9407 51.0523C42.0996 51.0371 42.2463 51.034 42.4205 51.0187C42.5947 51.0034 42.8026 50.979 42.9951 50.9423L43.3527 50.8812L43.6797 50.8078C43.7776 50.7864 43.8723 50.765 43.9609 50.7375C44.0985 50.7039 44.2268 50.6611 44.3644 50.6214C45.5628 50.2486 46.6739 49.6384 47.6316 48.8273C47.6316 48.8273 47.6316 48.8151 47.6316 48.809Z" fill="#1F157C"/>
<path d="M47.6621 48.3413H47.6499V48.3474H47.6621V48.3413Z" fill="#1F157C"/>
<path d="M47.9923 48.4849V48.5063L47.6653 48.8363V48.7722C47.78 48.6831 47.8892 48.5871 47.9923 48.4849Z" fill="#1F157C"/>
<path d="M48.0013 48.3472H47.8577C47.9055 48.3503 47.9535 48.3503 48.0013 48.3472Z" fill="#1F157C"/>
<path d="M48.0229 47.5007V47.516L47.9984 47.5557C48.0055 47.5418 48.0175 47.5309 48.032 47.5252C48.136 47.4213 48.2429 47.3235 48.356 47.2196V47.1768L48.0229 47.5007ZM48.0229 47.6627C48.0717 47.6582 48.1208 47.6582 48.1696 47.6627C48.2021 47.6891 48.2318 47.7188 48.2582 47.7514C48.2918 47.7177 48.3163 47.6841 48.3468 47.6597V47.6749L48.0229 47.6627ZM47.8762 47.6535H48.0137C47.9649 47.6587 47.9157 47.6587 47.867 47.6535H47.8762ZM47.8762 48.3382H48.0137C47.9629 48.3439 47.9117 48.3439 47.8609 48.3382H47.8762ZM47.6805 48.7691V48.8333L48.0137 48.5093V48.4849C47.9039 48.5871 47.7875 48.6821 47.6653 48.7691H47.6805ZM47.6805 48.1578V48.3443C47.7086 48.3101 47.7416 48.2802 47.7784 48.2556L47.6805 48.1578ZM47.54 47.9989V48.0142L47.6775 48.1517C47.6174 48.1055 47.5621 48.0532 47.5125 47.9959L47.54 47.9989ZM47.6378 48.8211C47.6378 48.8853 47.6225 48.9525 47.6225 49.0167C47.6225 48.9525 47.6378 48.8791 47.6469 48.8119C47.6316 48.818 47.6316 48.818 47.6225 48.818L47.6378 48.8211Z" fill="#1F157C"/>
<path d="M56.9229 57.2627C56.9205 58.9568 56.4361 60.6153 55.5264 62.0444C54.6167 63.4735 53.3191 64.6142 51.7852 65.3334C50.2514 66.0526 48.5446 66.3205 46.8641 66.1058C45.1837 65.8912 43.599 65.2028 42.2952 64.1212C42.5702 64.0876 42.8575 64.054 43.1326 64.0051C43.2696 63.9868 43.4053 63.9603 43.5391 63.9256C43.6793 63.9003 43.818 63.8676 43.9548 63.8278C44.2221 63.7616 44.4854 63.6799 44.7433 63.5833C45.4073 63.338 46.0426 63.0213 46.6382 62.6389L46.9439 62.428C47.0509 62.3546 47.1548 62.2721 47.2495 62.1988C47.5952 61.9322 47.9238 61.6443 48.2337 61.3369C49.1272 60.4465 49.8355 59.388 50.3176 58.2223C50.7997 57.0567 51.0461 55.8071 51.0424 54.5457C51.0424 54.3898 51.0424 54.24 51.0241 54.0658V53.968C51.0241 53.8457 51.0241 53.7235 50.9936 53.5921C50.9752 53.4148 50.9508 53.2284 50.9263 53.0389C50.9018 52.9105 50.8866 52.7882 50.853 52.666C50.8311 52.5231 50.7984 52.3821 50.7551 52.2442C50.7138 52.0423 50.6597 51.8433 50.5932 51.6482C50.5534 51.5199 50.5137 51.3884 50.4648 51.2601L50.3181 50.8689C50.2019 50.6152 50.0889 50.3707 49.9666 50.1201C49.9522 50.0895 49.9358 50.0599 49.9177 50.0314C49.8444 49.8908 49.7649 49.7625 49.6824 49.6249C49.5998 49.4874 49.5204 49.356 49.4318 49.2245C49.3431 49.0931 49.2606 48.9739 49.1689 48.8517C49.0772 48.7294 48.9336 48.546 48.8052 48.3779C48.8449 48.3779 48.8938 48.3779 48.9336 48.3963L49.3095 48.4452L49.7404 48.5185C49.8871 48.5491 50.0155 48.5827 50.1622 48.6163C50.4465 48.6866 50.7154 48.7691 50.9936 48.8578C51.0144 48.8673 51.0358 48.8754 51.0577 48.8822C51.2778 48.9648 51.4978 49.0534 51.7087 49.1512C52.3494 49.4476 52.9527 49.819 53.5059 50.2576C53.5792 50.3065 53.6434 50.3707 53.7107 50.4196C53.839 50.5266 53.9613 50.6396 54.0835 50.7619C54.1569 50.82 54.2211 50.8841 54.2944 50.9483C55.1269 51.7758 55.7876 52.7596 56.2387 53.8433C56.6898 54.9269 56.9223 56.089 56.9229 57.2627Z" fill="#1F157C"/>
<path d="M47.158 48.3075C47.1412 48.3255 47.1228 48.3418 47.103 48.3564C46.9929 48.4511 46.8768 48.5398 46.7607 48.6223C46.6445 48.7048 46.5223 48.7934 46.397 48.8759C46.2716 48.9585 46.1586 49.0349 46.0332 49.1082C45.9079 49.1816 45.7826 49.258 45.6512 49.3283C45.5198 49.3986 45.3975 49.4567 45.2661 49.5208C44.9764 49.657 44.6795 49.7774 44.3767 49.8815C44.2667 49.9182 44.1658 49.9579 44.0711 49.9854C43.8449 50.0526 43.6126 50.1168 43.3865 50.1627C43.2611 50.1902 43.145 50.2116 43.0227 50.233C42.6565 50.3015 42.2857 50.3424 41.9133 50.3552C41.7605 50.3552 41.6076 50.3705 41.4671 50.3705C39.1711 50.3726 36.9627 49.4891 35.3017 47.9039C33.6407 46.3188 32.655 44.1541 32.5499 41.8605C32.4447 39.5669 33.2282 37.3211 34.7372 35.5906C36.2462 33.8602 38.3645 32.7783 40.651 32.5703L40.5838 32.662C40.4819 32.7772 40.386 32.8976 40.2965 33.0227C40.2965 33.0227 40.2965 33.0379 40.2812 33.0379C40.0074 33.4168 39.7583 33.8129 39.5355 34.2238C39.5215 34.2546 39.5052 34.2842 39.4865 34.3124C39.3643 34.5569 39.2481 34.8045 39.1381 35.0582C39.0281 35.3119 38.9395 35.5778 38.8569 35.8406C38.8172 35.9751 38.7744 36.1065 38.7408 36.2441L38.6797 36.4824C38.646 36.6078 38.6186 36.73 38.5972 36.8523C38.5758 36.9745 38.5482 37.1151 38.5268 37.2435C38.4993 37.4207 38.4718 37.6072 38.4596 37.7845C38.4474 37.9617 38.4321 38.0901 38.426 38.2582C38.4199 38.4263 38.4107 38.5791 38.4107 38.738C38.405 39.9988 38.6483 41.2482 39.1266 42.4146C39.6049 43.5811 40.3089 44.6416 41.1981 45.5354L41.3081 45.6393C41.5017 45.8347 41.7057 46.0194 41.9194 46.1925C42.0203 46.2811 42.1303 46.3636 42.225 46.4462C42.3198 46.5287 42.4451 46.6112 42.5612 46.6846C43.4625 47.3088 44.4673 47.7682 45.529 48.0416C45.7735 48.1027 46.021 48.1577 46.2747 48.2066C46.5668 48.2582 46.8618 48.2919 47.158 48.3075Z" fill="#DEE4F3"/>
<path d="M47.659 48.1366L47.5215 47.999H47.5429C47.5786 48.0473 47.6174 48.0933 47.659 48.1366Z" fill="url(#paint6_linear_0_4034)"/>
<path d="M47.76 48.2462C47.7264 48.2738 47.6928 48.3074 47.6653 48.3349V48.1484L47.76 48.2462Z" fill="url(#paint7_linear_0_4034)"/>
<path d="M48.356 47.8734V48.0201C48.3591 48.0659 48.3591 48.1118 48.356 48.1576C48.3998 48.12 48.4406 48.0791 48.4783 48.0354L48.356 47.8734ZM48.0137 47.6625C48.0625 47.6579 48.1116 47.6579 48.1604 47.6625C48.1929 47.6889 48.2226 47.7186 48.249 47.7511C48.2827 47.7175 48.3071 47.6839 48.3377 47.6594L48.0137 47.6625ZM47.867 47.6625C47.8019 47.6671 47.7365 47.6671 47.6714 47.6625H48.0045C47.9585 47.664 47.9124 47.6609 47.867 47.6533V47.6625ZM47.867 48.3471H48.0045C47.9565 48.3492 47.9083 48.3461 47.8609 48.338L47.867 48.3471ZM47.6714 48.1607V48.3471C47.6995 48.3129 47.7324 48.2831 47.7692 48.2585L47.6714 48.1607ZM47.5308 48.0017C47.433 47.9039 47.3352 47.7878 47.2252 47.6747H47.1763L47.5125 47.9804L47.65 48.1179C47.6009 48.081 47.5549 48.0401 47.5125 47.9956L47.5308 48.0017Z" fill="url(#paint8_linear_0_4034)"/>
<path d="M47.5124 47.9804L47.1792 47.6748H47.2251C47.3229 47.7787 47.4176 47.8887 47.5124 47.9804Z" fill="#1F157C"/>
<path d="M53.7077 31.8858C53.4265 31.9072 53.1453 31.9469 52.8703 31.9958C52.7358 32.0172 52.5982 32.0447 52.4607 32.0783C52.3232 32.1119 52.1917 32.1395 52.0573 32.1731C51.9228 32.2067 51.7883 32.2495 51.6599 32.2923C51.5248 32.3288 51.3921 32.3737 51.2626 32.4267C51.0013 32.5138 50.7451 32.6159 50.4955 32.7324C50.1155 32.9094 49.7488 33.1137 49.3982 33.3436C49.2821 33.417 49.1659 33.4934 49.0559 33.5759C48.9459 33.6585 48.842 33.7257 48.7503 33.8021C48.4027 34.0652 48.0748 34.3532 47.7692 34.664C46.8743 35.5536 46.1647 36.6119 45.6815 37.7776C45.1983 38.9434 44.9511 40.1933 44.9543 41.4552C44.9543 41.6111 44.9543 41.7608 44.9543 41.932C44.9576 42.0883 44.9688 42.2444 44.9879 42.3996C44.9879 42.583 45.0277 42.7633 45.0552 42.9406C45.0827 43.1179 45.0979 43.2004 45.1255 43.3318C45.153 43.4632 45.1805 43.6191 45.2202 43.7566C45.3027 44.0898 45.4036 44.4199 45.5258 44.7408C45.6298 45.0159 45.7459 45.2818 45.8681 45.5446C45.9507 45.7219 46.0393 45.893 46.1371 46.0642C46.1921 46.1681 46.2471 46.2629 46.3021 46.3698C46.3572 46.4768 46.4733 46.6449 46.5619 46.7824C46.6506 46.92 46.7331 47.0361 46.8278 47.1645C46.9226 47.2928 47.0693 47.4701 47.1977 47.6321C47.0632 47.6321 46.9318 47.6046 46.8003 47.5832L46.4183 47.5221L46.0424 47.4487C45.7887 47.3937 45.5411 47.3234 45.2936 47.25C45.0328 47.1614 44.7767 47.0594 44.5264 46.9444C44.4103 46.8986 44.2941 46.8497 44.1841 46.7947C44.0511 46.7358 43.9215 46.6695 43.796 46.596C43.6645 46.5349 43.5423 46.4585 43.4169 46.3851C42.7876 46.0057 42.2076 45.5499 41.6901 45.0281L41.6015 44.9456C40.0133 43.3062 39.1139 41.1205 39.0882 38.8382C39.0625 36.5559 39.9126 34.3505 41.4635 32.6759C43.0144 31.0013 45.1482 29.9848 47.4258 29.8355C49.7033 29.6863 51.9515 30.4156 53.7077 31.8735V31.8858Z" fill="#1F157C"/>
<path d="M47.2069 47.6229C47.0785 47.6045 46.9471 47.5984 46.8157 47.5801L47.2161 47.629C47.2161 47.629 47.2069 47.629 47.2069 47.6229ZM48.5242 48.0202V48.0049L48.3958 47.8735V48.0202C48.3989 48.066 48.3989 48.1119 48.3958 48.1577C48.4396 48.1201 48.4804 48.0792 48.5181 48.0355H48.5425C48.6495 48.1425 48.7381 48.2555 48.8268 48.3625H48.8757L48.5242 48.0202ZM48.0138 47.6748C48.0626 47.6703 48.1117 47.6703 48.1605 47.6748H48.0138ZM48.0138 47.5373L47.9893 47.577C47.9964 47.5631 48.0084 47.5522 48.0229 47.5465L48.0138 47.5373ZM47.7081 47.1889C47.7081 47.1889 47.7081 47.2194 47.7081 47.2286L48.0138 47.5342C47.9068 47.3937 47.8182 47.2806 47.7051 47.1675L47.7081 47.1889ZM47.8701 47.6748C47.805 47.6794 47.7396 47.6794 47.6745 47.6748H48.0077C47.9602 47.6725 47.9131 47.6654 47.8671 47.6534L47.8701 47.6748ZM47.6684 48.173V48.3595C47.6965 48.3253 47.7294 48.2954 47.7662 48.2708L47.6684 48.173ZM47.5278 48.0141C47.43 47.9163 47.3322 47.8001 47.2222 47.6871H47.1733L47.5125 47.9805L47.6501 48.118C47.601 48.0811 47.555 48.0402 47.5125 47.9957L47.5278 48.0141Z" fill="#1F157C"/>
<path d="M48.0076 47.6748H47.6714C47.7325 47.6748 47.7936 47.6748 47.8639 47.6748C47.9118 47.6781 47.9598 47.6781 48.0076 47.6748Z" fill="url(#paint9_linear_0_4034)"/>
<path d="M48.0198 47.4977V47.5344C48.0198 47.5344 47.9923 47.5496 47.9862 47.5619L48.0137 47.5282L47.708 47.2226C47.7051 47.2075 47.7051 47.1919 47.708 47.1768C47.8058 47.2929 47.9077 47.409 48.0137 47.5252L48.0198 47.4977Z" fill="url(#paint10_linear_0_4034)"/>
<path d="M63.4268 40.6453L63.3382 40.575C63.2221 40.4742 63.0998 40.3764 62.9745 40.2877C62.7147 40.0952 62.4549 39.924 62.189 39.759L61.7764 39.5267C61.5024 39.3796 61.2208 39.2469 60.9329 39.1294C60.7892 39.0683 60.6456 39.0133 60.4958 38.9644C60.346 38.9155 60.2574 38.8757 60.1382 38.8421C60.019 38.8085 59.8876 38.7657 59.7562 38.7321L59.5147 38.6709L59.1449 38.5884C59.0165 38.5609 58.8851 38.5395 58.7567 38.5212C58.5764 38.4937 58.393 38.4662 58.2158 38.4509C58.0385 38.4356 57.9101 38.4234 57.742 38.4173C57.5739 38.4111 57.4211 38.4173 57.2622 38.4173C56.0002 38.4141 54.7502 38.6619 53.5849 39.1462C52.4195 39.6305 51.3621 40.3416 50.474 41.2383C50.0745 41.6362 49.7123 42.07 49.3921 42.5342C49.3096 42.6503 49.2332 42.7665 49.1598 42.8826C49.0864 42.9987 49.007 43.1149 48.9397 43.2402C48.7987 43.4768 48.6701 43.7206 48.5546 43.9707C48.4324 44.2335 48.3224 44.5055 48.2184 44.7928C48.1726 44.9365 48.1237 45.0985 48.0748 45.2329C48.0259 45.3674 47.9862 45.5386 47.9525 45.6853C47.9189 45.832 47.8761 45.9909 47.8486 46.1437C47.819 46.279 47.7966 46.4157 47.7814 46.5533C47.7479 46.7259 47.7254 46.9004 47.7141 47.0759C47.7095 47.1124 47.7095 47.1494 47.7141 47.1859C47.6054 47.0568 47.5034 46.9221 47.4085 46.7825C47.2308 46.5519 47.0685 46.31 46.9225 46.0581C46.8472 45.9318 46.7738 45.8035 46.7025 45.673C46.5657 45.4199 46.4423 45.1597 46.3327 44.8937C46.1594 44.4807 46.0193 44.0545 45.914 43.6192C45.8803 43.5092 45.8589 43.393 45.8314 43.2769C45.7856 43.0507 45.752 42.8154 45.7245 42.5831C45.7092 42.4822 45.697 42.3783 45.6878 42.2774C45.6786 42.1766 45.6694 42.0513 45.6694 41.9351C45.6694 41.819 45.6694 41.6295 45.6694 41.492C45.7454 39.2537 46.6607 37.126 48.2333 35.5315C49.806 33.9371 51.921 32.9928 54.158 32.8861C56.395 32.7795 58.5903 33.5183 60.3075 34.9559C62.0248 36.3934 63.1383 38.4245 63.4268 40.6453Z" fill="#DEE4F3"/>
<path d="M48.0015 47.6627C48.0503 47.6581 48.0994 47.6581 48.1482 47.6627C48.1807 47.6891 48.2104 47.7188 48.2368 47.7513C48.2704 47.7177 48.2949 47.6841 48.3254 47.6596L48.0015 47.6627ZM48.3346 47.8674V48.005C48.3302 47.9613 48.3302 47.9172 48.3346 47.8735V47.8674ZM48.3346 48.1517V48.0141C48.3397 48.0598 48.3418 48.1057 48.3407 48.1517H48.3346ZM48.3346 48.3473V48.3626C48.3338 48.5096 48.3257 48.6565 48.3102 48.8027L48.3407 48.8332V48.3473H48.3346ZM48.0168 47.5007V47.516L47.9923 47.5557C47.9994 47.5417 48.0114 47.5309 48.0259 47.5251C48.1298 47.4212 48.2368 47.3234 48.3499 47.2195V47.1767L48.0168 47.5007ZM47.6897 47.195L47.9954 47.5007C47.8976 47.3784 47.7937 47.2653 47.6897 47.1522C47.6959 47.1736 47.6958 47.1981 47.6958 47.2073L47.6897 47.195ZM47.8609 47.6413C47.7958 47.6459 47.7304 47.6459 47.6653 47.6413H47.9984C47.9551 47.6495 47.9111 47.6536 47.867 47.6535L47.8609 47.6413ZM47.8609 48.3259H47.9984C47.9531 48.3346 47.907 48.3387 47.8609 48.3381V48.3259ZM63.4697 41.5744C63.3963 41.5102 63.3169 41.4277 63.2435 41.3696C63.3413 41.4613 63.4391 41.55 63.5278 41.6478L63.4697 41.5744Z" fill="url(#paint11_linear_0_4034)"/>
<path d="M48.3499 47.1768V47.2196C48.2337 47.3143 48.1298 47.409 48.0198 47.5252V47.5099L48.3499 47.1768Z" fill="#1F157C"/>
<path d="M48.3651 47.6748C48.3315 47.7023 48.304 47.736 48.2704 47.7635C48.2424 47.7314 48.2129 47.7008 48.1817 47.6718C48.1339 47.6687 48.0859 47.6687 48.0381 47.6718L48.3651 47.6748Z" fill="#1F157C"/>
<path d="M66.1807 48.0048C66.1898 50.0922 65.4564 52.1147 64.1115 53.7111C64.0871 53.4299 64.0504 53.1517 64.0046 52.8767C63.9832 52.7666 63.9618 52.6505 63.9404 52.5466C63.9067 52.3846 63.867 52.2196 63.8242 52.0545C63.7814 51.8895 63.7509 51.7886 63.7081 51.6572C63.6653 51.5258 63.6256 51.3974 63.5797 51.266C63.5339 51.1346 63.4819 51.0062 63.4269 50.8748C63.3719 50.7433 63.3046 50.5875 63.2374 50.4499C63.0292 50.0074 62.786 49.5822 62.51 49.1785C62.4336 49.0593 62.3511 48.9523 62.2716 48.8423C62.1921 48.7323 62.1616 48.6895 62.1004 48.6161L61.914 48.39C61.7367 48.1699 61.5381 47.9651 61.3394 47.7603C60.4502 46.8629 59.3912 46.1515 58.2242 45.6677C57.0572 45.1838 55.8054 44.9373 54.5421 44.9424C54.3801 44.9424 54.2364 44.9424 54.0653 44.9577C53.8941 44.9729 53.7413 44.9791 53.5854 44.9913C53.4296 45.0035 53.2065 45.0341 53.0231 45.0616C52.9008 45.0799 52.7755 45.1074 52.6533 45.1288L52.2834 45.2113L52.042 45.2725C51.9136 45.3061 51.7883 45.3397 51.6599 45.3825C51.5316 45.4253 51.4277 45.4589 51.3024 45.5048C51.177 45.5506 50.9967 45.6087 50.8653 45.6698C50.5766 45.7881 50.295 45.9228 50.0217 46.0732C49.9278 46.1182 49.837 46.1692 49.7497 46.2261C49.6519 46.278 49.5572 46.333 49.4441 46.3972C49.331 46.4614 49.2454 46.5256 49.1385 46.5867L48.8726 46.7793C48.8023 46.8282 48.7411 46.874 48.68 46.9229L48.3499 47.1919C48.3456 47.1625 48.3456 47.1326 48.3499 47.1032C48.3499 46.9657 48.3774 46.8312 48.3958 46.6937C48.4141 46.5561 48.4447 46.388 48.4722 46.2627C48.4997 46.1374 48.5272 45.9999 48.5608 45.8715C48.5944 45.7432 48.6372 45.5659 48.6861 45.4192C48.7219 45.2796 48.7648 45.1419 48.8145 45.0066C48.8695 44.8568 48.9306 44.7009 49.0009 44.5481C49.0712 44.3953 49.0957 44.3219 49.1507 44.2058C49.4512 43.5878 49.8247 43.0081 50.2632 42.479C50.3137 42.4072 50.3688 42.3388 50.4282 42.2742C50.5933 42.0755 50.7705 41.8769 50.957 41.6904C52.1442 40.5027 53.6424 39.6739 55.2794 39.2992C56.9165 38.9246 58.626 39.0192 60.2116 39.5724C60.3491 39.6213 60.4775 39.6702 60.6089 39.7252C60.7404 39.7802 60.8687 39.8352 61.0002 39.8963C61.1316 39.9575 61.2599 40.0125 61.3822 40.0797C61.5045 40.147 61.6878 40.2387 61.8345 40.3334C62.0865 40.4808 62.3294 40.6431 62.5619 40.8194C62.7056 40.9233 62.8492 41.0333 62.9868 41.1495C63.0754 41.2259 63.164 41.2931 63.2466 41.3756C63.3291 41.4582 63.3963 41.5132 63.4727 41.5804L63.5339 41.6507L63.5675 41.6843C64.4025 42.5104 65.0638 43.4951 65.5126 44.5806C65.9614 45.6661 66.1885 46.8303 66.1807 48.0048Z" fill="#1F157C"/>
<path d="M52.8823 48.0018C52.8827 48.5132 52.8033 49.0216 52.647 49.5086C52.5925 49.681 52.5261 49.8495 52.4483 50.0129C51.9911 51.0226 51.2044 51.847 50.2172 52.351C50.0578 52.4343 49.8935 52.5078 49.7251 52.571C49.1724 52.7753 48.5875 52.8788 47.9983 52.8767C47.4798 52.878 46.9642 52.7986 46.4701 52.6413C46.3004 52.5846 46.1341 52.5183 45.9719 52.4427C44.9588 51.9844 44.1336 51.1926 43.6338 50.1993C43.5514 50.0424 43.4799 49.8801 43.4198 49.7133C43.0281 48.6775 43.0011 47.539 43.3434 46.4858C43.3969 46.3124 43.4623 46.1429 43.5391 45.9785C43.9952 44.9665 44.782 44.1398 45.7702 43.6343C45.9322 43.5578 46.0972 43.4814 46.2653 43.4203C47.3052 43.0262 48.449 43.0014 49.5051 43.35C49.6724 43.4041 49.8367 43.4674 49.9971 43.5395C51.0081 43.9949 51.833 44.7821 52.3352 45.7706C52.4186 45.9311 52.4921 46.0964 52.5553 46.2658C52.7682 46.82 52.879 47.4081 52.8823 48.0018Z" fill="#DEE4F3"/>
</g>
<path d="M48.0015 64.9034C57.336 64.9034 64.9031 57.3362 64.9031 48.0017C64.9031 38.6672 57.336 31.1001 48.0015 31.1001C38.667 31.1001 31.0999 38.6672 31.0999 48.0017C31.0999 57.3362 38.667 64.9034 48.0015 64.9034Z" stroke="#DEE4F3" stroke-width="3" stroke-miterlimit="10"/>
<path d="M68.1703 41.0759C70.0285 38.1052 68.2925 32.4815 62.8919 28.2393C57.5341 32.4906 55.8165 38.099 57.6809 41.0759C58.5978 42.5613 60.673 43.7686 62.8919 43.7808C65.1108 43.793 67.235 42.5735 68.1703 41.0759Z" fill="#DEE4F3"/>
<path d="M63.8305 34.5874V35.0795C63.8305 36.2562 63.8305 37.4298 63.8305 38.6065C63.8382 38.8039 63.8259 39.0015 63.7938 39.1964C63.7357 39.4787 63.608 39.7421 63.4223 39.9626C63.2365 40.183 62.9986 40.3535 62.7302 40.4587C62.5636 40.5283 62.3932 40.5885 62.2198 40.639C62.1159 40.6695 62.0578 40.639 62.0334 40.5228C62.0302 40.4822 62.0302 40.4413 62.0334 40.4006C62.0334 39.3553 62.0334 38.31 62.0334 37.2617C62.0286 36.9669 62.0891 36.6746 62.2106 36.4059C62.4667 35.8137 62.8508 35.2855 63.3354 34.8594C63.4719 34.7245 63.6434 34.6303 63.8305 34.5874Z" fill="#1F157C"/>
<path d="M62.0149 33.481V35.8894C62.286 35.5298 62.6218 35.224 63.0051 34.9877C63.2593 34.8324 63.5312 34.7082 63.8151 34.6179V33.481H62.0149Z" fill="#FDAF17"/>
<defs>
<linearGradient id="paint0_linear_0_4034" x1="47.9923" y1="48.4971" x2="48.0015" y2="48.4971" gradientUnits="userSpaceOnUse">
<stop stop-color="#0E172B"/>
<stop offset="1" stop-color="#1D284C"/>
</linearGradient>
<linearGradient id="paint1_linear_0_4034" x1="48.3162" y1="48.5981" x2="48.3498" y2="48.5981" gradientUnits="userSpaceOnUse">
<stop stop-color="#0E172B"/>
<stop offset="1" stop-color="#1D284C"/>
</linearGradient>
<linearGradient id="paint2_linear_0_4034" x1="47.647" y1="48.1763" x2="48.8206" y2="48.1763" gradientUnits="userSpaceOnUse">
<stop stop-color="#0E172B"/>
<stop offset="1" stop-color="#1D284C"/>
</linearGradient>
<linearGradient id="paint3_linear_0_4034" x1="48.3499" y1="47.9438" x2="48.5088" y2="47.9438" gradientUnits="userSpaceOnUse">
<stop stop-color="#0E172B"/>
<stop offset="1" stop-color="#1D284C"/>
</linearGradient>
<linearGradient id="paint4_linear_0_4034" x1="48.4934" y1="47.852" x2="48.8357" y2="47.852" gradientUnits="userSpaceOnUse">
<stop stop-color="#0E172B"/>
<stop offset="1" stop-color="#1D284C"/>
</linearGradient>
<linearGradient id="paint5_linear_0_4034" x1="47.5186" y1="47.6506" x2="48.9581" y2="47.6506" gradientUnits="userSpaceOnUse">
<stop stop-color="#0E172B"/>
<stop offset="1" stop-color="#1D284C"/>
</linearGradient>
<linearGradient id="paint6_linear_0_4034" x1="47.5062" y1="48.0663" x2="47.659" y2="48.0663" gradientUnits="userSpaceOnUse">
<stop stop-color="#0E172B"/>
<stop offset="1" stop-color="#1D284C"/>
</linearGradient>
<linearGradient id="paint7_linear_0_4034" x1="47.6653" y1="48.2432" x2="47.76" y2="48.2432" gradientUnits="userSpaceOnUse">
<stop stop-color="#0E172B"/>
<stop offset="1" stop-color="#1D284C"/>
</linearGradient>
<linearGradient id="paint8_linear_0_4034" x1="47.1763" y1="48.0017" x2="48.4844" y2="48.0017" gradientUnits="userSpaceOnUse">
<stop stop-color="#0E172B"/>
<stop offset="1" stop-color="#1D284C"/>
</linearGradient>
<linearGradient id="paint9_linear_0_4034" x1="47.6714" y1="47.6595" x2="48.0076" y2="47.6595" gradientUnits="userSpaceOnUse">
<stop stop-color="#0E172B"/>
<stop offset="1" stop-color="#1D284C"/>
</linearGradient>
<linearGradient id="paint10_linear_0_4034" x1="47.6989" y1="47.3571" x2="48.0198" y2="47.3571" gradientUnits="userSpaceOnUse">
<stop stop-color="#0E172B"/>
<stop offset="1" stop-color="#1D284C"/>
</linearGradient>
<linearGradient id="paint11_linear_0_4034" x1="47.6653" y1="45.1075" x2="63.5278" y2="45.1075" gradientUnits="userSpaceOnUse">
<stop stop-color="#0E172B"/>
<stop offset="1" stop-color="#1D284C"/>
</linearGradient>
</defs>
</svg>
