<svg width="104" height="104" viewBox="0 0 104 104" fill="none" xmlns="http://www.w3.org/2000/svg">
<g filter="url(#filter0_d_0_4014)">
<rect x="4" y="4" width="96" height="96" rx="48" fill="#F4F6F8"/>
</g>
<path d="M75.0933 52.9094C75.2138 52.9094 75.3331 52.8857 75.4444 52.8396C75.5557 52.7935 75.6569 52.7259 75.7421 52.6407C75.8273 52.5555 75.8949 52.4543 75.941 52.343C75.9871 52.2317 76.0108 52.1124 76.0108 51.9919C76.0108 51.8714 75.9871 51.7521 75.941 51.6407C75.8949 51.5294 75.8273 51.4283 75.7421 51.3431C75.6569 51.2579 75.5557 51.1903 75.4444 51.1442C75.3331 51.0981 75.2138 51.0743 75.0933 51.0743H72.6573V48.0158H75.0933C75.3366 48.0158 75.57 47.9191 75.7421 47.747C75.9142 47.575 76.0108 47.3416 76.0108 47.0982C76.0108 46.8549 75.9142 46.6215 75.7421 46.4494C75.57 46.2773 75.3366 46.1807 75.0933 46.1807H72.6573V36.7669C72.6573 35.3312 72.0869 33.9543 71.0717 32.9391C70.0565 31.9239 68.6796 31.3536 67.2439 31.3536H57.4999V28.9176C57.4999 28.6742 57.4033 28.4408 57.2312 28.2688C57.0591 28.0967 56.8257 28 56.5824 28C56.339 28 56.1056 28.0967 55.9336 28.2688C55.7615 28.4408 55.6648 28.6742 55.6648 28.9176V31.3536H52.6063V28.9176C52.6063 28.6742 52.5096 28.4408 52.3375 28.2688C52.1655 28.0967 51.9321 28 51.6887 28C51.4454 28 51.212 28.0967 51.0399 28.2688C50.8678 28.4408 50.7712 28.6742 50.7712 28.9176V31.3536H47.7126V28.9176C47.7126 28.6742 47.616 28.4408 47.4439 28.2688C47.2718 28.0967 47.0384 28 46.7951 28C46.5517 28 46.3183 28.0967 46.1463 28.2688C45.9742 28.4408 45.8775 28.6742 45.8775 28.9176V31.3536H36.7669C35.3312 31.3536 33.9543 31.9239 32.9391 32.9391C31.9239 33.9543 31.3536 35.3312 31.3536 36.7669V46.1807H28.9176C28.6742 46.1807 28.4408 46.2773 28.2687 46.4494C28.0967 46.6215 28 46.8549 28 47.0982C28 47.3416 28.0967 47.575 28.2687 47.747C28.4408 47.9191 28.6742 48.0158 28.9176 48.0158H31.3536V51.0743H28.9176C28.6742 51.0743 28.4408 51.171 28.2687 51.3431C28.0967 51.5151 28 51.7485 28 51.9919C28 52.2352 28.0967 52.4686 28.2687 52.6407C28.4408 52.8128 28.6742 52.9094 28.9176 52.9094H31.3536V55.968H28.9176C28.6742 55.968 28.4408 56.0646 28.2687 56.2367C28.0967 56.4088 28 56.6422 28 56.8855C28 57.1289 28.0967 57.3623 28.2687 57.5343C28.4408 57.7064 28.6742 57.8031 28.9176 57.8031H31.3536V67.2331C31.3536 68.6688 31.9239 70.0457 32.9391 71.0609C33.9543 72.0761 35.3312 72.6464 36.7669 72.6464H45.8775V75.0824C45.8775 75.3258 45.9742 75.5592 46.1463 75.7313C46.3183 75.9033 46.5517 76 46.7951 76C47.0384 76 47.2718 75.9033 47.4439 75.7313C47.616 75.5592 47.7126 75.3258 47.7126 75.0824V72.6464H50.7712V75.0824C50.7712 75.3258 50.8678 75.5592 51.0399 75.7313C51.212 75.9033 51.4454 76 51.6887 76C51.9321 76 52.1655 75.9033 52.3375 75.7313C52.5096 75.5592 52.6063 75.3258 52.6063 75.0824V72.6464H55.6648V75.0824C55.6648 75.3258 55.7615 75.5592 55.9336 75.7313C56.1056 75.9033 56.339 76 56.5824 76C56.8257 76 57.0591 75.9033 57.2312 75.7313C57.4033 75.5592 57.4999 75.3258 57.4999 75.0824V72.6464H67.2439C68.6796 72.6464 70.0565 72.0761 71.0717 71.0609C72.0869 70.0457 72.6573 68.6688 72.6573 67.2331V57.8031H75.0933C75.3366 57.8031 75.57 57.7064 75.7421 57.5343C75.9142 57.3623 76.0108 57.1289 76.0108 56.8855C76.0108 56.6422 75.9142 56.4088 75.7421 56.2367C75.57 56.0646 75.3366 55.968 75.0933 55.968H72.6573V52.9094H75.0933Z" fill="#1F157C"/>
<path d="M60.9212 37.668H43.0815C40.0918 37.668 37.6682 40.0916 37.6682 43.0813V60.9209C37.6682 63.9106 40.0918 66.3343 43.0815 66.3343H60.9212C63.9109 66.3343 66.3345 63.9106 66.3345 60.9209V43.0813C66.3345 40.0916 63.9109 37.668 60.9212 37.668Z" fill="#DEE4F3"/>
<path d="M41.3491 46.7383H44.4834L47.0385 50.8849L49.5909 46.7383H52.7279V57.4458H49.775V51.2963L47.0385 55.4862H46.9763L44.2534 51.3261V57.4458H41.3491V46.7383Z" fill="#FDAF17"/>
<path d="M54.168 55.2018L58.1738 52.1432C59.1699 51.361 59.5515 50.8576 59.5515 50.2161C59.5515 49.5746 59.0779 49.1334 58.3579 49.1334C57.6379 49.1334 57.0749 49.5475 56.2332 50.5111L54.2302 48.8438C55.3751 47.3606 56.5092 46.5513 58.588 46.5513C60.9292 46.5513 62.5343 47.9425 62.5343 49.9617V49.9914C62.5343 51.7048 61.6465 52.5898 60.055 53.7375L58.228 55.0285H62.6479V57.4456H54.168V55.2018Z" fill="#FDAF17"/>
<defs>
<filter id="filter0_d_0_4014" x="0" y="0" width="104" height="104" filterUnits="userSpaceOnUse" color-interpolation-filters="sRGB">
<feFlood flood-opacity="0" result="BackgroundImageFix"/>
<feColorMatrix in="SourceAlpha" type="matrix" values="0 0 0 0 0 0 0 0 0 0 0 0 0 0 0 0 0 0 127 0" result="hardAlpha"/>
<feOffset/>
<feGaussianBlur stdDeviation="2"/>
<feComposite in2="hardAlpha" operator="out"/>
<feColorMatrix type="matrix" values="0 0 0 0 0.839216 0 0 0 0 0.862745 0 0 0 0 0.921569 0 0 0 0.5 0"/>
<feBlend mode="normal" in2="BackgroundImageFix" result="effect1_dropShadow_0_4014"/>
<feBlend mode="normal" in="SourceGraphic" in2="effect1_dropShadow_0_4014" result="shape"/>
</filter>
</defs>
</svg>
