<svg width="96" height="96" viewBox="0 0 96 96" fill="none" xmlns="http://www.w3.org/2000/svg">
<rect width="96" height="96" rx="48" fill="#F4F6F8"/>
<path d="M65.6842 24H30.3158C26.8277 24 24 26.8277 24 30.3158V65.6842C24 69.1723 26.8277 72 30.3158 72H65.6842C69.1723 72 72 69.1723 72 65.6842V30.3158C72 26.8277 69.1723 24 65.6842 24Z" fill="#1F157C"/>
<path d="M64.0926 49.5787C64.5113 49.5787 64.913 49.4123 65.2091 49.1162C65.5052 48.8201 65.6715 48.4185 65.6715 47.9997C65.6715 47.5809 65.5052 47.1793 65.2091 46.8832C64.913 46.5871 64.5113 46.4208 64.0926 46.4208H60.5242C60.4459 45.7803 60.3181 45.1468 60.1421 44.526H64.0926C64.5113 44.526 64.913 44.3597 65.2091 44.0636C65.5052 43.7674 65.6715 43.3658 65.6715 42.9471C65.6715 42.5283 65.5052 42.1267 65.2091 41.8306C64.913 41.5345 64.5113 41.3681 64.0926 41.3681H58.7494C57.7172 39.7004 56.3119 38.2951 54.6442 37.2629V31.9071C54.6442 31.4883 54.4778 31.0867 54.1817 30.7906C53.8856 30.4945 53.484 30.3281 53.0652 30.3281C52.6465 30.3281 52.2448 30.4945 51.9487 30.7906C51.6526 31.0867 51.4863 31.4883 51.4863 31.9071V35.8544C50.8651 35.6791 50.2318 35.5504 49.5915 35.4692V31.9071C49.5915 31.4883 49.4252 31.0867 49.1291 30.7906C48.833 30.4945 48.4313 30.3281 48.0126 30.3281C47.5938 30.3281 47.1922 30.4945 46.8961 30.7906C46.6 31.0867 46.4336 31.4883 46.4336 31.9071V35.4692C45.7933 35.5497 45.1599 35.6785 44.5389 35.8544V31.9071C44.5389 31.4883 44.3725 31.0867 44.0764 30.7906C43.7803 30.4945 43.3787 30.3281 42.9599 30.3281C42.5412 30.3281 42.1396 30.4945 41.8435 30.7906C41.5474 31.0867 41.381 31.4883 41.381 31.9071V37.2502C39.7077 38.2808 38.2969 39.6862 37.26 41.3555H31.9073C31.4886 41.3555 31.0869 41.5218 30.7908 41.818C30.4947 42.1141 30.3284 42.5157 30.3284 42.9344C30.3284 43.3532 30.4947 43.7548 30.7908 44.0509C31.0869 44.347 31.4886 44.5134 31.9073 44.5134H35.8547C35.6801 45.1345 35.5524 45.7679 35.4726 46.4081H31.9073C31.4886 46.4081 31.0869 46.5745 30.7908 46.8706C30.4947 47.1667 30.3284 47.5683 30.3284 47.9871C30.3284 48.4058 30.4947 48.8074 30.7908 49.1035C31.0869 49.3997 31.4886 49.566 31.9073 49.566H35.4821C35.5619 50.2063 35.6896 50.8396 35.8642 51.4608H31.9168C31.498 51.4608 31.0964 51.6271 30.8003 51.9232C30.5042 52.2193 30.3378 52.6209 30.3378 53.0397C30.3378 53.4585 30.5042 53.8601 30.8003 54.1562C31.0964 54.4523 31.498 54.6186 31.9168 54.6186H37.2568C38.2938 56.2879 39.7046 57.6933 41.3778 58.7239V64.0923C41.3778 64.5111 41.5442 64.9127 41.8403 65.2088C42.1364 65.5049 42.538 65.6713 42.9568 65.6713C43.3756 65.6713 43.7772 65.5049 44.0733 65.2088C44.3694 64.9127 44.5357 64.5111 44.5357 64.0923V60.145C45.1567 60.3209 45.7901 60.4497 46.4305 60.5302V64.0923C46.4305 64.5111 46.5968 64.9127 46.8929 65.2088C47.189 65.5049 47.5907 65.6713 48.0094 65.6713C48.4282 65.6713 48.8298 65.5049 49.1259 65.2088C49.422 64.9127 49.5884 64.5111 49.5884 64.0923V60.5302C50.2286 60.449 50.862 60.3203 51.4831 60.145V64.0923C51.4831 64.5111 51.6495 64.9127 51.9456 65.2088C52.2417 65.5049 52.6433 65.6713 53.0621 65.6713C53.4808 65.6713 53.8824 65.5049 54.1785 65.2088C54.4747 64.9127 54.641 64.5111 54.641 64.0923V58.7492C56.308 57.7161 57.7132 56.3109 58.7463 54.6439H64.0926C64.5113 54.6439 64.913 54.4776 65.2091 54.1814C65.5052 53.8853 65.6715 53.4837 65.6715 53.065C65.6715 52.6462 65.5052 52.2446 65.2091 51.9485C64.913 51.6524 64.5113 51.486 64.0926 51.486H60.1421C60.3181 50.8652 60.4459 50.2318 60.5242 49.5913L64.0926 49.5787Z" fill="#DEE4F3"/>
<path d="M48 60.7802C55.0582 60.7802 60.78 55.0584 60.78 48.0002C60.78 40.942 55.0582 35.2202 48 35.2202C40.9418 35.2202 35.22 40.942 35.22 48.0002C35.22 55.0584 40.9418 60.7802 48 60.7802Z" fill="#DEE4F3"/>
<path d="M51.1674 43.5474H44.8326C44.1228 43.5474 43.5474 44.1228 43.5474 44.8326V51.1674C43.5474 51.8772 44.1228 52.4526 44.8326 52.4526H51.1674C51.8772 52.4526 52.4526 51.8772 52.4526 51.1674V44.8326C52.4526 44.1228 51.8772 43.5474 51.1674 43.5474Z" fill="#FDAF17"/>
</svg>
