<svg width="97" height="96" viewBox="0 0 97 96" fill="none" xmlns="http://www.w3.org/2000/svg">
<rect x="0.5" width="96" height="96" rx="48" fill="#F4F6F8"/>
<path d="M62.2262 23H38.2276C35.2278 23 32.7734 25.5935 32.7734 28.7897V38.1655L30.5044 39.3845C30.1964 39.5558 29.9405 39.8071 29.7638 40.112C29.5872 40.4169 29.4963 40.7639 29.5008 41.1162V48.5395C29.4861 49.0396 29.6706 49.525 30.0138 49.8891C30.3569 50.2532 30.8306 50.4662 31.3307 50.4812H32.7734V55.4636L30.5044 57.0017C29.8881 57.4189 29.5008 58.2644 29.5008 59.1834V68.5456C29.5008 69.9092 30.3189 71 31.3307 71H37.6167C37.6925 70.9992 37.7682 70.9928 37.8431 70.9809C37.9685 70.9809 38.0967 71 38.2249 71H62.2235C65.2233 71 67.6777 68.4092 67.6777 65.213V28.7897C67.6805 25.6071 65.2261 23 62.2262 23Z" fill="#1F157C"/>
<path d="M39.3185 37.9883C39.0654 37.9883 38.8226 37.8877 38.6436 37.7087C38.4646 37.5297 38.364 37.287 38.364 37.0338V26.5453C38.364 26.2922 38.4646 26.0494 38.6436 25.8704C38.8226 25.6914 39.0654 25.5908 39.3185 25.5908C39.5717 25.5908 39.8144 25.6914 39.9934 25.8704C40.1724 26.0494 40.273 26.2922 40.273 26.5453V37.0338C40.273 37.287 40.1724 37.5297 39.9934 37.7087C39.8144 37.8877 39.5717 37.9883 39.3185 37.9883Z" fill="#DEE4F3"/>
<path d="M46.2235 37.9883C45.9704 37.9883 45.7276 37.8877 45.5486 37.7087C45.3696 37.5297 45.269 37.287 45.269 37.0338V26.5453C45.269 26.2922 45.3696 26.0494 45.5486 25.8704C45.7276 25.6914 45.9704 25.5908 46.2235 25.5908C46.4767 25.5908 46.7195 25.6914 46.8985 25.8704C47.0775 26.0494 47.178 26.2922 47.178 26.5453V37.0338C47.178 37.287 47.0775 37.5297 46.8985 37.7087C46.7195 37.8877 46.4767 37.9883 46.2235 37.9883Z" fill="#FDAF17"/>
<path d="M53.1339 37.9883C52.8808 37.9883 52.638 37.8877 52.459 37.7087C52.28 37.5297 52.1794 37.287 52.1794 37.0338V26.5453C52.1794 26.2922 52.28 26.0494 52.459 25.8704C52.638 25.6914 52.8808 25.5908 53.1339 25.5908C53.3871 25.5908 53.6299 25.6914 53.8089 25.8704C53.9879 26.0494 54.0884 26.2922 54.0884 26.5453V37.0338C54.0884 37.287 53.9879 37.5297 53.8089 37.7087C53.6299 37.8877 53.3871 37.9883 53.1339 37.9883Z" fill="#DEE4F3"/>
<path d="M60.0446 34.4921C59.7914 34.4921 59.5487 34.3916 59.3697 34.2126C59.1907 34.0336 59.0901 33.7908 59.0901 33.5376V26.5453C59.0901 26.2922 59.1907 26.0494 59.3697 25.8704C59.5487 25.6914 59.7914 25.5908 60.0446 25.5908C60.2977 25.5908 60.5405 25.6914 60.7195 25.8704C60.8985 26.0494 60.9991 26.2922 60.9991 26.5453V33.5376C60.9991 33.7908 60.8985 34.0336 60.7195 34.2126C60.5405 34.3916 60.2977 34.4921 60.0446 34.4921Z" fill="#FDAF17"/>
<path d="M51.9668 65.6958V65.6794C51.9668 63.8959 53.3631 62.4996 55.2612 62.4996C56.1715 62.4688 57.0592 62.7868 57.7428 63.3886L56.7447 64.5858C56.3435 64.2142 55.8162 64.0085 55.2693 64.0104C55.0558 64.0157 54.8454 64.0634 54.6505 64.151C54.4556 64.2385 54.2802 64.364 54.1344 64.5202C53.9886 64.6764 53.8755 64.8601 53.8016 65.0605C53.7276 65.261 53.6945 65.4742 53.704 65.6876V65.6958C53.693 65.9183 53.7281 66.1407 53.8073 66.349C53.8864 66.5573 54.0078 66.7469 54.1638 66.906C54.3198 67.0651 54.507 67.1901 54.7137 67.2733C54.9204 67.3565 55.1421 67.396 55.3648 67.3893C55.7091 67.4044 56.0501 67.3161 56.3438 67.1357V66.4048H55.1357V65.164H57.9474V67.9157C57.2002 68.5323 56.2599 68.8663 55.2912 68.8592C53.3904 68.8592 51.9668 67.5502 51.9668 65.6958Z" fill="#DEE4F3"/>
<path d="M58.8938 62.6196H62.0327C62.8018 62.6196 63.3417 62.8133 63.7017 63.1651C63.8299 63.295 63.9307 63.4493 63.9982 63.6188C64.0656 63.7884 64.0984 63.9698 64.0944 64.1523V64.1714C64.1001 64.4689 64.012 64.7607 63.8427 65.0054C63.6733 65.2502 63.4313 65.4354 63.1508 65.5349C63.8926 65.7776 64.3644 66.1976 64.3644 67.0294V67.0594C64.3644 68.1093 63.5081 68.7447 62.0491 68.7447H58.8938V62.6196ZM61.6209 65.0577C62.1363 65.0577 62.4254 64.8832 62.4254 64.5259V64.5095C62.4254 64.1768 62.1527 63.9832 61.6564 63.9832H60.5655V65.0577H61.6209ZM61.8664 67.3757C62.3818 67.3757 62.6845 67.1739 62.6845 66.8139V66.7867C62.6845 66.454 62.4118 66.2413 61.8664 66.2413H60.5737V67.3703L61.8664 67.3757Z" fill="#DEE4F3"/>
</svg>
