<svg width="97" height="96" viewBox="0 0 97 96" fill="none" xmlns="http://www.w3.org/2000/svg">
<rect x="0.5" width="96" height="96" rx="48" fill="#F4F6F8"/>
<rect width="48" height="36.03" transform="translate(24.5 30)" fill="#F4F6F8"/>
<path d="M41.4092 64.5627C41.8946 63.6519 42.1485 62.6357 42.1485 61.6036C42.1485 60.5716 41.8946 59.5553 41.4092 58.6445H55.591C55.1056 59.5553 54.8517 60.5716 54.8517 61.6036C54.8517 62.6357 55.1056 63.6519 55.591 64.5627" fill="#1F157C"/>
<path d="M32.5864 64.3311H64.4137C64.8643 64.3311 65.2965 64.5101 65.6151 64.8287C65.9337 65.1473 66.1127 65.5795 66.1127 66.0301H30.8818C30.8818 65.5795 31.0609 65.1473 31.3795 64.8287C31.6981 64.5101 32.1303 64.3311 32.5809 64.3311H32.5864Z" fill="#DEE4F3"/>
<path d="M67.0455 30H29.9545C28.5092 30.0043 27.1244 30.5804 26.1024 31.6024C25.0804 32.6244 24.5043 34.0092 24.5 35.4545V54.4091H72.5V35.4545C72.4957 34.0092 71.9196 32.6244 70.8976 31.6024C69.8757 30.5804 68.4908 30.0043 67.0455 30Z" fill="#1F157C"/>
<path d="M29.9545 60.6625H67.0455C68.4875 60.6582 69.8695 60.0848 70.8909 59.0669C71.9124 58.049 72.4907 56.669 72.5 55.2271H24.5C24.5093 56.669 25.0876 58.049 26.1091 59.0669C27.1305 60.0848 28.5125 60.6582 29.9545 60.6625Z" fill="#DEE4F3"/>
<path d="M24.5 55.2083V55.2274H72.5C72.5 55.2274 72.5 55.2137 72.5 55.2083V54.4092H24.5V55.2083Z" fill="#DEE4F3"/>
<path d="M50.2973 37.6362V38.6071C50.2973 40.9326 50.2973 43.259 50.2973 45.5862C50.3135 45.9776 50.2897 46.3697 50.2264 46.7562C49.9755 47.9481 49.2228 48.758 48.1182 49.2544C47.7896 49.3937 47.4526 49.5121 47.1091 49.609C46.9046 49.6717 46.7873 49.5926 46.7409 49.3826C46.7265 49.3035 46.7201 49.223 46.7219 49.1426C46.7219 47.0699 46.7219 44.9999 46.7219 42.9271C46.7134 42.343 46.8325 41.7641 47.0709 41.2308C47.5805 40.0591 48.3412 39.0135 49.2991 38.1681C49.5752 37.9004 49.9212 37.716 50.2973 37.6362Z" fill="#DEE4F3"/>
<path d="M46.7 35.4492L46.7299 40.2138C47.2675 39.5012 47.9335 38.8954 48.6936 38.4274C49.1955 38.1196 49.7331 37.8742 50.2945 37.6965V35.4492H46.7Z" fill="#FDAF17"/>
</svg>
