<svg width="97" height="96" viewBox="0 0 97 96" fill="none" xmlns="http://www.w3.org/2000/svg">
<rect x="0.5" width="96" height="96" rx="48" fill="#F4F6F8"/>
<path d="M72.0695 50.0197C72.0638 50.2645 71.9638 50.4976 71.7904 50.6704C71.617 50.8432 71.3836 50.9423 71.1388 50.9471C70.9162 50.9136 70.7127 50.8021 70.5647 50.6325C70.4166 50.4628 70.3337 50.2461 70.3307 50.0209C70.3276 49.7958 70.4047 49.577 70.5481 49.4034C70.6914 49.2298 70.8918 49.1128 71.1135 49.0733C71.2385 49.0724 71.3624 49.0963 71.4781 49.1434C71.5939 49.1906 71.6992 49.2601 71.788 49.348C71.8768 49.436 71.9474 49.5405 71.9957 49.6558C72.044 49.7711 72.069 49.8947 72.0695 50.0197Z" fill="#1F157C"/>
<path d="M71.0376 38.5703C72.1399 36.7342 72.605 34.5855 72.3607 32.458C71.8353 27.751 67.7836 24.019 63.0513 24C59.351 24 56.5053 25.5827 54.5522 28.7481C54.1692 29.3812 53.8147 30.0142 53.438 30.6473L52.8999 30.4131C50.5428 29.3271 47.9273 28.9278 45.3536 29.2609C40.5549 29.894 36.8925 32.3123 34.4488 36.5033C31.7962 41.0488 29.1721 45.6133 26.5353 50.1651C25.8012 51.402 25.2539 52.7407 24.9115 54.1377C24.7406 54.8626 24.6361 55.6033 24.5 56.3345V58.68C24.6519 59.4904 24.7691 60.3071 24.9653 61.1047C25.6878 63.9707 27.2739 66.5453 29.5088 68.4795C31.7436 70.4137 34.5191 71.614 37.4591 71.9177C37.5811 71.9373 37.7016 71.9648 37.82 72H40.0737C40.1594 71.9684 40.2472 71.943 40.3365 71.924C45.2112 71.3606 48.9526 68.9992 51.447 64.7766C54.1903 60.153 56.8841 55.5104 59.5282 50.8489C61.2572 47.8813 61.868 44.3933 61.2503 41.0149C60.6327 37.6364 58.8273 34.5902 56.1602 32.4263C55.8152 32.1414 55.448 31.8819 55.0745 31.5938C55.524 30.831 55.9355 30.0744 56.4008 29.3559C57.3071 27.9719 58.6346 26.9163 60.1871 26.3449C61.7396 25.7736 63.4347 25.717 65.0219 26.1834C66.6091 26.6497 68.0041 27.6143 69.0007 28.9347C69.9974 30.255 70.5429 31.861 70.5564 33.5152C70.5534 34.9749 70.1529 36.4062 69.3979 37.6555C66.5491 42.5555 63.7076 47.4619 60.8735 52.3746C60.5718 52.8681 60.3719 53.417 60.2857 53.9889C60.1994 54.5609 60.2286 55.1443 60.3713 55.7048C60.5141 56.2653 60.7677 56.7915 61.117 57.2525C61.4664 57.7135 61.9045 58.0998 62.4056 58.3888C64.501 59.6075 67.1125 58.8637 68.3881 56.6795C68.8693 55.8597 69.3378 55.0335 69.8221 54.2073C70.0247 53.856 70.2367 53.5078 70.433 53.1533C70.7495 52.5962 70.6166 52.0422 70.1165 51.7668C69.6163 51.4915 69.1162 51.6687 68.7775 52.2258C68.6794 52.3872 68.5876 52.5424 68.4926 52.7133C67.8754 53.78 67.2739 54.8563 66.6314 55.9103C66.3892 56.3052 66.0398 56.6232 65.6239 56.8271C65.2079 57.031 64.7426 57.1125 64.2821 57.0621C63.8216 57.0117 63.3849 56.8314 63.023 56.5423C62.661 56.2532 62.3887 55.8671 62.2378 55.4292C62.1136 55.0571 62.0776 54.6613 62.1325 54.273C62.1875 53.8846 62.3319 53.5143 62.5543 53.1913C65.3821 48.3271 68.2098 43.4534 71.0376 38.5703ZM42.4699 31.923C44.0152 31.3168 45.666 31.0252 47.3255 31.0654C48.985 31.1057 50.6197 31.4768 52.1339 32.1572L52.4821 32.325C51.8806 33.3664 51.3077 34.3698 50.7158 35.3574C50.6714 35.4122 50.6155 35.4565 50.552 35.4872C50.4885 35.5178 50.4191 35.5341 50.3486 35.5347C49.0318 35.4777 48.117 36.0697 47.4997 37.1997C46.8825 38.3298 46.2589 39.3648 45.629 40.4411C45.3192 40.9125 45.1575 41.4659 45.1649 42.0301C45.1722 42.5942 45.3482 43.1432 45.6701 43.6065C45.7055 43.6672 45.7272 43.7349 45.7337 43.8049C45.7403 43.8748 45.7316 43.9454 45.7081 44.0116C45.3916 44.6257 45.0181 45.2271 44.6477 45.8665L34.6103 40.1214C36.3386 36.516 38.5227 33.3728 42.4573 31.9103L42.4699 31.923ZM50.9184 38.7476C50.6904 39.2066 50.4151 39.6434 50.1555 40.0897C49.7123 40.8589 49.2913 41.6439 48.8039 42.3846C48.6255 42.6035 48.4114 42.7908 48.1708 42.9386C47.3256 42.9196 46.8287 42.2422 47.1325 41.6724C47.8353 40.3556 48.5981 39.0673 49.3705 37.7853C49.4344 37.6903 49.5165 37.609 49.6121 37.546C49.7077 37.483 49.8149 37.4397 49.9274 37.4185C50.0399 37.3973 50.1555 37.3986 50.2675 37.4225C50.3794 37.4463 50.4856 37.4922 50.5797 37.5574C50.7696 37.679 50.9079 37.8664 50.9681 38.0838C51.0283 38.3011 51.006 38.533 50.9057 38.7349L50.9184 38.7476ZM59.4807 42.0522C59.8621 44.8812 59.2514 47.7549 57.7524 50.1841C57.2745 50.9882 56.8028 51.7985 56.3217 52.6405L46.2716 46.8193C46.6419 46.1863 46.9838 45.5532 47.3541 44.9707C47.4037 44.92 47.4635 44.8806 47.5295 44.8549C47.5956 44.8293 47.6664 44.818 47.7371 44.822C48.2948 44.8636 48.8523 44.7403 49.3403 44.4673C49.8284 44.1943 50.2252 43.7837 50.4815 43.2867C51.1336 42.1472 51.7952 41.014 52.4536 39.8808C52.7566 39.411 52.9135 38.862 52.9044 38.3031C52.8954 37.7442 52.7209 37.2004 52.4029 36.7407C52.366 36.6813 52.3423 36.6147 52.3335 36.5453C52.3248 36.4759 52.3312 36.4054 52.3523 36.3387C52.922 35.3195 53.5108 34.3129 54.1249 33.2556C57.189 35.4524 58.9743 38.3646 59.4681 42.0396L59.4807 42.0522Z" fill="#1F157C"/>
<path d="M52.4726 32.3121C51.868 33.3535 51.2951 34.3538 50.7032 35.3414C50.659 35.3966 50.6032 35.4414 50.5397 35.4726C50.4762 35.5038 50.4067 35.5206 50.336 35.5218C49.0192 35.4648 48.1044 36.0568 47.4871 37.1836C46.8699 38.3105 46.2431 39.3519 45.6132 40.4282C45.3034 40.8997 45.1418 41.4531 45.1491 42.0172C45.1565 42.5813 45.3324 43.1303 45.6544 43.5936C45.6896 43.6537 45.7113 43.7209 45.7179 43.7904C45.7245 43.8598 45.7157 43.9299 45.6923 43.9956C45.3758 44.6128 45.0023 45.2142 44.6319 45.8505L34.5977 40.1085C36.3481 36.4999 38.5322 33.3599 42.4668 31.8975C44.0118 31.29 45.6625 30.9976 47.3221 31.0373C48.9817 31.0769 50.6166 31.448 52.1308 32.1285C52.2194 32.1855 52.3175 32.2361 52.4726 32.3121Z" fill="#DEE4F3"/>
<path d="M54.1121 33.2397C57.1889 35.4555 58.9742 38.3614 59.4711 42.0395C59.8487 44.8677 59.237 47.7394 57.7397 50.1683C57.2617 50.9723 56.79 51.7826 56.3089 52.6278L46.2588 46.8066C46.6291 46.1735 46.971 45.5405 47.3414 44.9549C47.3912 44.9038 47.4515 44.8643 47.5183 44.8392C47.585 44.814 47.6564 44.8038 47.7275 44.8093C48.285 44.85 48.8421 44.7259 49.3295 44.4523C49.8169 44.1788 50.2131 43.7679 50.4688 43.2709C51.1208 42.1345 51.7824 41.0013 52.4408 39.8681C52.7438 39.3983 52.9007 38.8493 52.8917 38.2903C52.8827 37.7314 52.7081 37.1878 52.3902 36.728C52.3532 36.6686 52.3295 36.602 52.3208 36.5326C52.312 36.4632 52.3184 36.3927 52.3395 36.326C52.9093 35.3067 53.5012 34.3002 54.1121 33.2397Z" fill="#DEE4F3"/>
<path d="M48.1454 42.9324C47.3003 42.9103 46.8033 42.2329 47.1072 41.6663C47.8131 40.3463 48.5728 39.058 49.3451 37.7792C49.4091 37.6843 49.4911 37.603 49.5867 37.5399C49.6822 37.4769 49.7892 37.4334 49.9016 37.4119C50.014 37.3904 50.1295 37.3914 50.2416 37.4148C50.3536 37.4382 50.4599 37.4835 50.5543 37.5481C50.751 37.6659 50.8962 37.8533 50.9613 38.0731C51.0263 38.293 51.0065 38.5292 50.9057 38.7351C50.6777 39.1941 50.4024 39.6309 50.1428 40.0772C49.6996 40.8464 49.2786 41.6314 48.7912 42.3753C48.609 42.5962 48.3906 42.7846 48.1454 42.9324Z" fill="#DEE4F3"/>
<path d="M41.8052 55.3532C41.6912 55.5526 41.5836 55.7394 41.4886 55.9261C40.7099 57.283 39.9313 58.642 39.1526 60.0031C39.0312 60.238 38.8858 60.4597 38.7189 60.6647C38.4651 60.9527 38.1434 61.1728 37.783 61.3049C37.4226 61.437 37.0349 61.477 36.6551 61.4212C36.4163 61.3924 36.1795 61.349 35.946 61.2914C35.8036 61.263 35.7624 61.1743 35.8068 61.0382C35.8237 60.9864 35.846 60.9366 35.8732 60.8894C36.5665 59.6771 37.2628 58.4711 37.9434 57.2524C38.1339 56.9073 38.3975 56.6081 38.7158 56.3756C39.404 55.8602 40.1972 55.5025 41.0392 55.3279C41.2918 55.264 41.5573 55.2727 41.8052 55.3532Z" fill="#DEE4F3"/>
<path d="M40.4313 52.875L38.8486 55.67C39.7714 55.2777 40.7927 55.1794 41.7735 55.3883L42.5237 54.0747L40.4313 52.875Z" fill="#FDAF17"/>
</svg>
