<svg width="96" height="96" viewBox="0 0 96 96" fill="none" xmlns="http://www.w3.org/2000/svg">
<rect width="96" height="96" rx="48" fill="#F4F6F8"/>
<path d="M67.9201 31.5779C67.9201 28.5105 65.5781 26 62.7144 26H34.7301C31.8664 26 29.5244 28.5105 29.5244 31.5779C29.5244 31.6594 29.5244 31.7409 29.5244 31.8197C29.5407 32.2408 29.5407 32.6592 29.5244 33.0776C29.5244 33.1591 29.5244 33.2406 29.5244 33.3221C29.5244 33.4036 29.5244 33.4852 29.5244 33.5667C29.5407 33.9851 29.5407 34.4062 29.5244 34.8246C29.5244 34.9061 29.5244 34.9876 29.5244 35.0691C29.5244 35.1506 29.5244 35.2321 29.5244 35.3136C29.5407 35.732 29.5407 36.1505 29.5244 36.5716C29.5244 36.6504 29.5244 36.7319 29.5244 36.8161C29.5244 36.8976 29.5244 36.9791 29.5244 37.0579C29.5407 37.479 29.5407 37.8974 29.5244 38.3158C29.5244 38.3974 29.5244 38.4789 29.5244 38.5604C29.5244 38.6419 29.5244 38.7234 29.5244 38.8049C29.5407 39.2233 29.5407 39.6444 29.5244 40.0628C29.5244 40.1443 29.5244 40.2259 29.5244 40.3074C29.5244 40.3889 29.5244 40.4704 29.5244 40.5519C29.5407 40.9703 29.5407 41.3887 29.5244 41.8098C29.5244 41.8886 29.5244 41.9701 29.5244 42.0516C29.5244 42.1358 29.5244 42.2174 29.5244 42.2962C29.5407 42.7173 29.5407 43.1357 29.5244 43.5541C29.5244 43.6356 29.5244 43.7171 29.5244 43.7986C29.5244 43.8801 29.5244 43.9616 29.5244 44.0431C29.5407 44.4615 29.5407 44.8827 29.5244 45.3011C29.5244 45.3826 29.5244 45.4641 29.5244 45.5456C29.5244 45.6271 29.5244 45.7086 29.5244 45.7901C29.5407 46.2085 29.5407 46.6269 29.5244 47.0481C29.5244 47.1269 29.5244 47.2084 29.5244 47.2899C29.5244 47.3741 29.5244 47.4529 29.5244 47.5344C29.5407 47.9555 29.5407 48.3739 29.5244 48.7923C29.5244 48.8738 29.5244 48.9553 29.5244 49.0369C29.5244 49.1184 29.5244 49.1999 29.5244 49.2814C29.5407 49.6998 29.5407 50.1209 29.5244 50.5393C29.5244 50.6208 29.5244 50.7023 29.5244 50.7838C29.5244 50.8653 29.5244 50.9469 29.5244 51.0284C29.5407 51.4468 29.5407 51.8652 29.5244 52.2836C29.5244 52.3651 29.5244 52.4466 29.5244 52.5281C29.5244 52.6096 29.5244 52.6911 29.5244 52.7726C29.5407 53.191 29.5407 53.6122 29.5244 54.0306C29.5244 54.1121 29.5244 54.1936 29.5244 54.2751C29.5244 54.3566 29.5244 54.4381 29.5244 54.5196C29.5407 54.938 29.5407 55.3564 29.5244 55.7776C29.5244 55.8591 29.5244 55.9378 29.5244 56.0221C29.5244 56.1036 29.5244 56.1851 29.5244 56.2639C29.5407 56.685 29.5407 57.1034 29.5244 57.5218C29.5244 57.6033 29.5244 57.6848 29.5244 57.7663C29.5244 57.8479 29.5244 57.9294 29.5244 58.0109C29.5407 58.4293 29.5407 58.8504 29.5244 59.2688C29.5244 59.3503 29.5244 59.4318 29.5244 59.5133C29.5244 59.5948 29.5244 59.6763 29.5244 59.7578C29.5407 60.1763 29.5407 60.5947 29.5244 61.0158C29.5244 61.0946 29.5244 61.1761 29.5244 61.2603C29.5244 61.3418 29.5244 61.4233 29.5244 61.5021C29.5407 61.9233 29.5407 62.3417 29.5244 62.7601C29.5244 62.8416 29.5244 62.9231 29.5244 63.0046C29.5244 63.0861 29.5244 63.1676 29.5244 63.2491C29.5407 63.6675 29.5407 64.0886 29.5244 64.507C29.5244 64.5886 29.5244 64.6701 29.5244 64.7516C29.5244 64.8331 29.5244 64.9146 29.5244 64.9961C29.5407 65.4145 29.5407 65.8329 29.5244 66.254C29.5244 66.3328 29.5244 66.4143 29.5244 66.4958C29.5244 66.5801 29.5244 66.6616 29.5244 66.7404C29.5407 67.1615 29.5407 67.5799 29.5244 67.9983C29.5244 68.0798 29.5244 68.1613 29.5244 68.2428C29.5244 71.3102 31.8664 73.818 34.7301 73.818H62.7144C65.5781 73.818 67.9201 71.3102 67.9201 68.2428C67.9201 68.1613 67.9201 68.0798 67.9201 67.9983C67.901 67.5799 67.901 67.1615 67.9201 66.7404C67.9201 66.6616 67.9201 66.5801 67.9201 66.4958C67.9201 66.4143 67.9201 66.3328 67.9201 66.254C67.901 65.8329 67.901 65.4145 67.9201 64.9961C67.9201 64.9146 67.9201 64.8331 67.9201 64.7516C67.9201 64.6701 67.9201 64.5886 67.9201 64.507C67.901 64.0886 67.901 63.6675 67.9201 63.2491C67.9201 63.1676 67.9201 63.0861 67.9201 63.0046C67.9201 62.9231 67.9201 62.8416 67.9201 62.7601C67.901 62.3417 67.901 61.9233 67.9201 61.5021C67.9201 61.4233 67.9201 61.3418 67.9201 61.2603C67.9201 61.1761 67.9201 61.0973 67.9201 61.0158C67.901 60.5947 67.901 60.1763 67.9201 59.7578C67.9201 59.6763 67.9201 59.5948 67.9201 59.5133C67.9201 59.4318 67.9201 59.3503 67.9201 59.2688C67.901 58.8504 67.901 58.4293 67.9201 58.0109C67.9201 57.9294 67.9201 57.8479 67.9201 57.7663C67.9201 57.6848 67.9201 57.6033 67.9201 57.5218C67.901 57.1034 67.901 56.685 67.9201 56.2639C67.9201 56.1851 67.9201 56.1036 67.9201 56.0221C67.9201 55.9406 67.9201 55.8591 67.9201 55.7776C67.901 55.3564 67.901 54.938 67.9201 54.5196C67.9201 54.4381 67.9201 54.3566 67.9201 54.2751C67.9201 54.1936 67.9201 54.1121 67.9201 54.0306C67.901 53.6122 67.901 53.191 67.9201 52.7726C67.9201 52.6911 67.9201 52.6096 67.9201 52.5281C67.9201 52.4466 67.9201 52.3651 67.9201 52.2863C67.901 51.8652 67.901 51.4468 67.9201 51.0256C67.9201 50.9469 67.9201 50.8653 67.9201 50.7838C67.9201 50.7023 67.9201 50.6208 67.9201 50.5393C67.901 50.1209 67.901 49.6998 67.9201 49.2814C67.9201 49.1999 67.9201 49.1184 67.9201 49.0369C67.9201 48.9553 67.9201 48.8738 67.9201 48.7923C67.901 48.3739 67.901 47.9555 67.9201 47.5344C67.9201 47.4529 67.9201 47.3714 67.9201 47.2899C67.9201 47.2084 67.9201 47.1269 67.9201 47.0481C67.901 46.6269 67.901 46.2085 67.9201 45.7901C67.9201 45.7086 67.9201 45.6271 67.9201 45.5456C67.9201 45.4641 67.9201 45.3826 67.9201 45.3011C67.901 44.8827 67.901 44.4615 67.9201 44.0431C67.9201 43.9616 67.9201 43.8801 67.9201 43.7986C67.9201 43.7171 67.9201 43.6356 67.9201 43.5541C67.901 43.1357 67.901 42.7173 67.9201 42.2962C67.9201 42.2146 67.9201 42.1358 67.9201 42.0516C67.9201 41.9701 67.9201 41.8886 67.9201 41.8098C67.901 41.3887 67.901 40.9703 67.9201 40.5519C67.9201 40.4704 67.9201 40.3889 67.9201 40.3074C67.9201 40.2259 67.9201 40.1443 67.9201 40.0628C67.901 39.6444 67.901 39.2233 67.9201 38.8049C67.9201 38.7234 67.9201 38.6419 67.9201 38.5604C67.9201 38.4789 67.9201 38.3974 67.9201 38.3158C67.901 37.8974 67.901 37.479 67.9201 37.0579C67.9201 36.9791 67.9201 36.8976 67.9201 36.8161C67.9201 36.7319 67.9201 36.6504 67.9201 36.5716C67.901 36.1505 67.901 35.732 67.9201 35.3136C67.9201 35.2321 67.9201 35.1506 67.9201 35.0691C67.9201 34.9876 67.9201 34.9061 67.9201 34.8246C67.901 34.4062 67.901 33.9851 67.9201 33.5667C67.9201 33.4852 67.9201 33.4036 67.9201 33.3221C67.9201 33.2406 67.9201 33.1591 67.9201 33.0776C67.901 32.6592 67.901 32.2408 67.9201 31.8197C67.9201 31.7409 67.9201 31.6594 67.9201 31.5779Z" fill="#1F157C"/>
<path d="M63.1003 63.5698H34.3552C31.6737 63.5698 29.5 65.7435 29.5 68.425V69.145C29.5 71.8264 31.6737 74.0001 34.3552 74.0001H63.1003C65.7817 74.0001 67.9554 71.8264 67.9554 69.145V68.425C67.9554 65.7435 65.7817 63.5698 63.1003 63.5698Z" fill="#DEE4F3"/>
<path d="M54.7783 47.7708C54.776 48.6912 54.5524 49.5976 54.1263 50.4134C53.7001 51.2293 53.084 51.9306 52.3298 52.4583C51.5757 52.986 50.7057 53.3245 49.7932 53.4453C48.8808 53.5661 47.9527 53.4656 47.0872 53.1523C46.2217 52.8391 45.4443 52.3222 44.8205 51.6454C44.1968 50.9685 43.745 50.1516 43.5033 49.2635C43.2617 48.3753 43.2372 47.4421 43.4319 46.5425C43.6267 45.6429 44.035 44.8034 44.6224 44.0948C44.7021 43.997 44.7863 43.9019 44.8751 43.8095C45.3587 43.315 45.9428 43.2661 46.3857 43.6737C46.4865 43.768 46.567 43.882 46.6219 44.0086C46.6769 44.1353 46.7053 44.2719 46.7053 44.41C46.7053 44.548 46.6769 44.6846 46.6219 44.8113C46.567 44.938 46.4865 45.052 46.3857 45.1463C45.7071 45.8541 45.331 46.7984 45.337 47.779C45.3407 48.3684 45.4848 48.9486 45.7573 49.4713C46.0298 49.994 46.423 50.4443 46.9041 50.7848C47.3853 51.1254 47.9407 51.3464 48.5243 51.4296C49.1079 51.5129 49.7029 51.4559 50.2601 51.2634C50.8172 51.0709 51.3206 50.7484 51.7283 50.3227C52.1361 49.897 52.4366 49.3803 52.605 48.8154C52.7733 48.2505 52.8047 47.6535 52.6964 47.0741C52.5882 46.4946 52.3435 45.9492 51.9826 45.4832C51.8793 45.35 51.7571 45.2305 51.6538 45.0974C51.4739 44.9002 51.3785 44.6403 51.3881 44.3736C51.3978 44.1069 51.5117 43.8546 51.7054 43.671C51.8052 43.5755 51.9237 43.5019 52.0535 43.4547C52.1833 43.4076 52.3215 43.388 52.4592 43.3972C52.597 43.4064 52.7313 43.4442 52.8536 43.5082C52.976 43.5722 53.0837 43.6609 53.1699 43.7688C53.6906 44.2954 54.101 44.9206 54.3772 45.6078C54.6534 46.2949 54.7897 47.0303 54.7783 47.7708Z" fill="#DEE4F3"/>
<path d="M48.0322 45.016C48.0322 44.133 48.0322 43.2473 48.0322 42.3615C48.0322 41.6606 48.4289 41.2204 49.0212 41.2068C49.6135 41.1933 50.0482 41.6497 50.0536 42.3806C50.0536 44.1303 50.0536 45.88 50.0536 47.6297C50.0536 48.3768 49.6596 48.8115 49.032 48.8061C48.4044 48.8006 48.0376 48.3687 48.0322 47.6079C48.0268 46.7439 48.0322 45.88 48.0322 45.016Z" fill="#FDAF17"/>
<path d="M62.9835 71.3103C64.379 71.3103 65.5103 70.1791 65.5103 68.7836C65.5103 67.3881 64.379 66.2568 62.9835 66.2568C61.588 66.2568 60.4568 67.3881 60.4568 68.7836C60.4568 70.1791 61.588 71.3103 62.9835 71.3103Z" fill="#1F157C"/>
<path d="M40.8104 68.7834C40.8108 68.9084 40.7865 69.0322 40.7388 69.1478C40.6911 69.2633 40.6211 69.3683 40.5327 69.4567C40.4443 69.545 40.3394 69.6151 40.2238 69.6627C40.1083 69.7104 39.9845 69.7347 39.8595 69.7344H32.8933C32.6411 69.7344 32.3992 69.6342 32.2209 69.4558C32.0426 69.2775 31.9424 69.0356 31.9424 68.7834C31.9424 68.5312 32.0426 68.2894 32.2209 68.111C32.3992 67.9327 32.6411 67.8325 32.8933 67.8325H39.8595C40.1117 67.8325 40.3536 67.9327 40.5319 68.111C40.7103 68.2894 40.8104 68.5312 40.8104 68.7834Z" fill="#1F157C"/>
<path d="M48.7575 69.7344H44.6033C44.3511 69.7344 44.1092 69.6342 43.9309 69.4558C43.7525 69.2775 43.6523 69.0356 43.6523 68.7834C43.6523 68.5312 43.7525 68.2894 43.9309 68.111C44.1092 67.9327 44.3511 67.8325 44.6033 67.8325H48.7575C49.0097 67.8325 49.2515 67.9327 49.4299 68.111C49.6082 68.2894 49.7084 68.5312 49.7084 68.7834C49.7084 69.0356 49.6082 69.2775 49.4299 69.4558C49.2515 69.6342 49.0097 69.7344 48.7575 69.7344Z" fill="#1F157C"/>
</svg>
