<svg width="97" height="96" viewBox="0 0 97 96" fill="none" xmlns="http://www.w3.org/2000/svg">
<rect x="0.5" width="96" height="96" rx="48" fill="#F4F6F8"/>
<path d="M64.25 30.3135H32.0327C31.1862 30.3135 30.5 30.9997 30.5 31.8462C30.5 32.6927 31.1862 33.379 32.0327 33.379H64.25C65.0965 33.379 65.7827 32.6927 65.7827 31.8462C65.7827 30.9997 65.0965 30.3135 64.25 30.3135Z" fill="#FDAF17"/>
<path d="M64.25 38.3892H32.0327C31.1862 38.3892 30.5 39.0754 30.5 39.9219C30.5 40.7684 31.1862 41.4546 32.0327 41.4546H64.25C65.0965 41.4546 65.7827 40.7684 65.7827 39.9219C65.7827 39.0754 65.0965 38.3892 64.25 38.3892Z" fill="#1F157C"/>
<path d="M64.25 46.4673H32.0327C31.1862 46.4673 30.5 47.1535 30.5 48C30.5 48.8465 31.1862 49.5327 32.0327 49.5327H64.25C65.0965 49.5327 65.7827 48.8465 65.7827 48C65.7827 47.1535 65.0965 46.4673 64.25 46.4673Z" fill="#FDAF17"/>
<path d="M64.25 54.543H32.0327C31.1862 54.543 30.5 55.2292 30.5 56.0757C30.5 56.9222 31.1862 57.6084 32.0327 57.6084H64.25C65.0965 57.6084 65.7827 56.9222 65.7827 56.0757C65.7827 55.2292 65.0965 54.543 64.25 54.543Z" fill="#1F157C"/>
<path d="M64.25 62.6211H32.0327C31.1862 62.6211 30.5 63.3073 30.5 64.1538C30.5 65.0003 31.1862 65.6865 32.0327 65.6865H64.25C65.0965 65.6865 65.7827 65.0003 65.7827 64.1538C65.7827 63.3073 65.0965 62.6211 64.25 62.6211Z" fill="#FDAF17"/>
<path d="M57.5355 24H38.7501C37.0556 24 35.6819 25.3737 35.6819 27.0682V68.9318C35.6819 70.6263 37.0556 72 38.7501 72H57.5355C59.23 72 60.6037 70.6263 60.6037 68.9318V27.0682C60.6037 25.3737 59.23 24 57.5355 24Z" fill="#1F157C"/>
<path d="M54.6256 27.5698H41.6601C40.2955 27.5698 39.1892 28.6761 39.1892 30.0407V65.9589C39.1892 67.3236 40.2955 68.4298 41.6601 68.4298H54.6256C55.9902 68.4298 57.0965 67.3236 57.0965 65.9589V30.0407C57.0965 28.6761 55.9902 27.5698 54.6256 27.5698Z" fill="#DEE4F3"/>
<path d="M52.3865 56.3402L49.6892 58.1484V59.6048H52.3865V61.4593H43.9592V57.6057C43.9592 56.6021 44.2038 55.8212 44.6929 55.263C44.9514 54.9812 45.2692 54.7602 45.6233 54.6159C45.9775 54.4716 46.3592 54.4076 46.741 54.4284H46.7629C47.3596 54.4018 47.9478 54.5777 48.432 54.9275C48.864 55.2647 49.1912 55.7178 49.3756 56.2339L52.3756 54.1748L52.3865 56.3402ZM46.8365 56.3048C46.666 56.2925 46.4951 56.3212 46.338 56.3886C46.181 56.456 46.0423 56.5601 45.9338 56.6921C45.7153 57.0042 45.6086 57.3809 45.631 57.7611V59.6048H48.0529V57.7393C48.0778 57.3605 47.9623 56.9857 47.7283 56.6866C47.6205 56.5643 47.4866 56.4678 47.3365 56.4041C47.1864 56.3403 47.0239 56.3111 46.861 56.3184L46.8365 56.3048Z" fill="#1F157C"/>
<path d="M52.3864 46.4811L50.4964 47.2502V50.8147L52.3864 51.5865V53.4765L43.8992 49.8629V48.1556L52.3864 44.542V46.4811ZM46.1137 49.0338L48.841 50.152V47.9211L46.1137 49.0338Z" fill="#1F157C"/>
<path d="M52.3864 36.6435H46.8855L50.4855 39.0162V39.0626L46.921 41.4108H52.3755V43.2408H43.9482V41.2444L47.5128 39.0271L43.9482 36.8126V34.8135H52.3755L52.3864 36.6435Z" fill="#1F157C"/>
</svg>
