<svg width="96" height="96" viewBox="0 0 96 96" fill="none" xmlns="http://www.w3.org/2000/svg">
<rect width="96" height="96" rx="48" fill="#F4F6F8"/>
<path d="M71.7003 58.0264L71.6682 57.9087L71.6361 57.7936L71.604 57.6786L71.5719 57.5635L71.5397 57.4458L71.5076 57.3307C71.4943 57.2932 71.4862 57.2531 71.4755 57.2156C71.4648 57.1782 71.4541 57.138 71.4434 57.0979C71.4327 57.0578 71.422 57.0203 71.4113 56.9828C71.4006 56.9454 71.3899 56.9052 71.3792 56.8678C71.3685 56.8303 71.3578 56.7902 71.3444 56.7527C71.331 56.7152 71.3257 56.6751 71.3123 56.635C71.2989 56.5948 71.2936 56.5574 71.2802 56.5199C71.2668 56.4824 71.2614 56.4423 71.2481 56.4048C71.2347 56.3674 71.2293 56.3272 71.216 56.2871C71.2026 56.247 71.1972 56.2095 71.1838 56.172C71.1705 56.1346 71.1651 56.0944 71.1517 56.057C71.1384 56.0195 71.133 55.9794 71.1196 55.9419C71.1063 55.9045 71.1009 55.8643 71.0875 55.8242C71.0741 55.784 71.0688 55.7466 71.0554 55.7091C71.042 55.6717 71.0367 55.6315 71.0233 55.594C71.0099 55.5566 71.0046 55.5164 70.9912 55.4763C70.9778 55.4362 70.9725 55.3987 70.9591 55.3612C70.9457 55.3238 70.9404 55.2836 70.927 55.2462L70.8949 55.1311L70.8627 55.0134L70.8306 54.8983L70.7985 54.7833L70.7664 54.6655L70.7343 54.5505L70.7022 54.4354L70.6701 54.3203L70.638 54.2026L70.6059 54.0875C70.5925 54.0501 70.5845 54.0099 70.5738 53.9725C70.5631 53.935 70.5524 53.8949 70.5416 53.8574C70.5309 53.8199 70.5202 53.7771 70.5095 53.7397C70.4988 53.7022 70.4881 53.6621 70.4774 53.6246C70.4667 53.5871 70.456 53.547 70.4426 53.5095C70.4292 53.4721 70.4239 53.4319 70.4105 53.3918C70.3971 53.3517 70.3918 53.3142 70.3784 53.2767C70.365 53.2393 70.3597 53.1991 70.3463 53.1617C70.3329 53.1242 70.3276 53.0841 70.3142 53.0466C70.3008 53.0091 70.2955 52.9663 70.2821 52.9289C70.2687 52.8914 70.2633 52.8513 70.25 52.8138C70.2366 52.7764 70.2312 52.7362 70.2179 52.6988C70.2045 52.6613 70.1991 52.6211 70.1858 52.581C70.1724 52.5409 70.167 52.5034 70.1536 52.4659C70.1403 52.4285 70.1349 52.3883 70.1215 52.3509C70.1082 52.3134 70.1028 52.2733 70.0894 52.2358C70.076 52.1983 70.0707 52.1555 70.0573 52.1181C70.0439 52.0806 70.0386 52.0405 70.0252 52.003L69.9931 51.888L69.961 51.7702L69.9289 51.6551L69.8968 51.5401L69.8646 51.425L69.8325 51.3073L69.8004 51.1922L69.7817 51.0691L69.7496 50.9514L69.7175 50.8363L69.6854 50.7213C69.672 50.6811 69.664 50.6437 69.6533 50.6062C69.6425 50.5687 69.6318 50.5286 69.6211 50.4885C69.6104 50.4483 69.5997 50.4109 69.589 50.3734C69.5783 50.3359 69.5676 50.2958 69.5569 50.2583C69.5462 50.2209 69.5355 50.1807 69.5221 50.1406C69.5088 50.1005 69.5034 50.063 69.49 50.0255C69.4766 49.9881 69.4713 49.9479 69.4579 49.9105C69.4445 49.873 69.4392 49.8329 69.4258 49.7954C69.4124 49.7579 69.4071 49.7178 69.3937 49.6777C69.3803 49.6375 69.375 49.6001 69.3616 49.5626C69.3482 49.5251 69.3428 49.485 69.3295 49.4475C69.3161 49.4101 69.3107 49.3699 69.2974 49.3298C69.284 49.2897 69.2786 49.2522 69.2652 49.2147C69.2519 49.1773 69.2465 49.1371 69.2331 49.0997C69.2198 49.0622 69.2144 49.0221 69.201 48.9846C69.1876 48.9472 69.1823 48.907 69.1689 48.8669C69.1555 48.8267 69.1502 48.7893 69.1368 48.7518L69.1047 48.6367L69.0726 48.519L69.0405 48.4039L69.0084 48.2889L68.9762 48.1738L68.9441 48.0561L68.912 47.941L68.8799 47.826L68.8478 47.7082L68.8157 47.5932C68.8023 47.5557 68.7943 47.5156 68.7836 47.4781C68.7729 47.4406 68.7622 47.4005 68.7515 47.363C68.7408 47.3256 68.7301 47.2854 68.7194 47.2453C68.7087 47.2052 68.6979 47.1677 68.6872 47.1302C68.6765 47.0928 68.6658 47.0526 68.6551 47.0152C68.6444 46.9777 68.6337 46.9376 68.6203 46.8974C68.607 46.8573 68.6016 46.8198 68.5882 46.7824C68.5749 46.7449 68.5695 46.7048 68.5561 46.6673C68.5428 46.6298 68.5374 46.5897 68.524 46.5522C68.5106 46.5148 68.5053 46.4746 68.4919 46.4345C68.4785 46.3944 68.4732 46.3569 68.4598 46.3194C68.4464 46.282 68.4411 46.2418 68.4277 46.2044C68.4143 46.1669 68.409 46.1268 68.3956 46.0893C68.3822 46.0519 68.3769 46.009 68.3635 45.9716C68.3501 45.9341 68.3447 45.894 68.3314 45.8565C68.318 45.8191 68.3126 45.7789 68.2993 45.7415C68.2859 45.704 68.2805 45.6639 68.2671 45.6237C68.2538 45.5836 68.2484 45.5461 68.235 45.5086C68.2216 45.4712 68.2163 45.431 68.2029 45.3936L68.1708 45.2785L68.1387 45.1608L68.1066 45.0457L68.0745 44.9307L68.0424 44.8129L68.0103 44.6979L67.9781 44.5828L67.946 44.4677L67.9139 44.35L67.8818 44.2349C67.8684 44.1975 67.8604 44.1573 67.8497 44.1199C67.839 44.0824 67.8283 44.0423 67.8176 44.0021C67.8069 43.962 67.7962 43.9245 67.7855 43.8871C67.7748 43.8496 67.7641 43.8095 67.7507 43.772C67.7373 43.7345 67.732 43.6944 67.7186 43.6569C67.7052 43.6195 67.6998 43.5767 67.6865 43.5392C67.6731 43.5017 67.6677 43.4616 67.6544 43.4241C67.641 43.3867 67.6356 43.3465 67.6222 43.3091C67.6089 43.2716 67.6035 43.2315 67.5901 43.1913C67.5768 43.1512 67.5714 43.1137 67.558 43.0763C67.5447 43.0388 67.5393 42.9987 67.5259 42.9612C67.5125 42.9237 67.5072 42.8836 67.4938 42.8461C67.4804 42.8087 67.4751 42.7685 67.4617 42.7284C67.4483 42.6883 67.443 42.6508 67.4296 42.6133C67.4162 42.5759 67.4109 42.5357 67.3975 42.4983C67.3841 42.4608 67.3787 42.4207 67.3654 42.3805C67.352 42.3404 67.3466 42.3029 67.3332 42.2655C67.3199 42.228 67.3145 42.1879 67.3011 42.1504L67.269 42.0353L67.2369 41.9176L67.2048 41.8025L67.1727 41.6875L67.1406 41.5697L67.1085 41.4547L67.0764 41.3396L67.0443 41.2246L67.0122 41.1068L66.98 40.9918C66.9667 40.9543 66.9586 40.9141 66.9479 40.8767C66.9372 40.8392 66.9265 40.7991 66.9158 40.7589C66.9051 40.7188 66.8944 40.6813 66.8837 40.6439C66.873 40.6064 66.8623 40.5663 66.8516 40.5288C66.8409 40.4914 66.8302 40.4512 66.8168 40.4138C66.8034 40.3763 66.7981 40.3362 66.7847 40.296C66.7713 40.2559 66.766 40.2184 66.7526 40.181C66.7392 40.1435 66.7339 40.1034 66.7205 40.0659C66.7071 40.0284 66.7017 39.9883 66.6884 39.9482C66.675 39.908 66.6696 39.8706 66.6563 39.8331C66.6429 39.7956 66.6375 39.7555 66.6241 39.718C66.6108 39.6806 66.6054 39.6404 66.592 39.603C66.5787 39.5655 66.5733 39.5254 66.5599 39.4852C66.5466 39.4451 66.5412 39.4076 66.5278 39.3702C66.5144 39.3327 66.5091 39.2926 66.4957 39.2551C66.4823 39.2176 66.477 39.1775 66.4636 39.1374C66.4502 39.0972 66.4449 39.0598 66.4315 39.0223C66.4181 38.9848 66.4127 38.9447 66.3994 38.9072L66.3673 38.7922L66.3352 38.6744L66.303 38.5594L66.2709 38.4443L66.2388 38.3266L66.2067 38.2115L66.1746 38.0964L66.1425 37.9814L66.1104 37.8636L66.0783 37.7486C66.0649 37.7111 66.0569 37.671 66.0462 37.6335C66.0354 37.596 66.0247 37.5559 66.014 37.5184C66.0033 37.481 65.9926 37.4382 65.9819 37.4007C65.9712 37.3632 65.9605 37.3231 65.9498 37.2856C65.9391 37.2482 65.9284 37.2081 65.915 37.1706C65.9017 37.1331 65.8963 37.093 65.8829 37.0528C65.8695 37.0127 65.8642 36.9752 65.8508 36.9378C65.8374 36.9003 65.8321 36.8602 65.8187 36.8227C65.8053 36.7853 65.8 36.7451 65.7866 36.7077C65.7732 36.6702 65.7679 36.6274 65.7545 36.5899C65.7411 36.5525 65.7358 36.5123 65.7224 36.4749C65.709 36.4374 65.7036 36.3973 65.6903 36.3598C65.6769 36.3223 65.6715 36.2822 65.6582 36.2421C65.6448 36.2019 65.6394 36.1644 65.626 36.127C65.6127 36.0895 65.6073 36.0494 65.5939 36.0119C65.5805 35.9745 65.5752 35.9343 65.5618 35.8969C65.5484 35.8594 65.5431 35.8166 65.5297 35.7791C65.5163 35.7417 65.511 35.7015 65.4976 35.6641L65.4655 35.549L65.4334 35.4313L65.4013 35.3162L65.3692 35.2011L65.3371 35.0861L65.3049 34.9683L65.2728 34.8533C64.9492 33.7438 64.2752 32.7689 63.3515 32.0744C62.4279 31.3798 61.3042 31.0029 60.1485 31H35.8782C34.7226 31.0029 33.5989 31.3798 32.6752 32.0744C31.7515 32.7689 31.0775 33.7438 30.7539 34.8533C30.7405 34.8907 30.7325 34.9309 30.7218 34.9683C30.7111 35.0058 30.7004 35.0459 30.6897 35.0861C30.679 35.1262 30.6683 35.161 30.6576 35.2011C30.6469 35.2413 30.6362 35.2787 30.6255 35.3162C30.6148 35.3537 30.6041 35.3938 30.5907 35.4313C30.5773 35.4687 30.572 35.5089 30.5586 35.549C30.5452 35.5891 30.5398 35.6266 30.5265 35.6641C30.5131 35.7015 30.5077 35.7417 30.4944 35.7791C30.481 35.8166 30.4756 35.8567 30.4622 35.8942L30.4301 36.0119L30.398 36.127L30.3659 36.2421L30.3338 36.3598L30.3017 36.4749L30.2696 36.5899L30.2375 36.7077L30.2054 36.8227L30.1733 36.9378L30.1411 37.0528L30.109 37.1706C30.0957 37.2081 30.0876 37.2482 30.0769 37.2856C30.0662 37.3231 30.0555 37.3632 30.0448 37.4007C30.0341 37.4382 30.0234 37.4783 30.0127 37.5184C30.002 37.5586 29.9913 37.5934 29.9806 37.6335C29.9699 37.6736 29.9592 37.7111 29.9485 37.7486C29.9378 37.786 29.9271 37.8262 29.9164 37.8636C29.9057 37.9011 29.895 37.9413 29.8843 37.9814C29.8736 38.0215 29.8629 38.059 29.8521 38.0964C29.8414 38.1339 29.8307 38.174 29.82 38.2115C29.8093 38.249 29.7986 38.2891 29.7879 38.3266C29.7772 38.364 29.7665 38.4042 29.7558 38.4443C29.7451 38.4844 29.7344 38.5219 29.7237 38.5594C29.713 38.5968 29.7023 38.637 29.6889 38.6744C29.6755 38.7119 29.6702 38.752 29.6568 38.7922C29.6434 38.8323 29.6381 38.8698 29.6247 38.9072C29.6113 38.9447 29.606 38.9848 29.5926 39.0223C29.5792 39.0598 29.5739 39.0999 29.5605 39.1374L29.5284 39.2551L29.4963 39.3702L29.4641 39.4852L29.432 39.603L29.3999 39.718L29.3678 39.8331L29.3357 39.9482L29.3036 40.0659L29.2715 40.181L29.2394 40.296L29.2073 40.4138C29.1939 40.4512 29.1859 40.4914 29.1751 40.5288C29.1644 40.5663 29.1537 40.6064 29.143 40.6439C29.1323 40.6813 29.1216 40.7215 29.1109 40.7589C29.1002 40.7964 29.0895 40.8365 29.0788 40.8767C29.0681 40.9168 29.0574 40.9543 29.0467 40.9918C29.036 41.0292 29.0253 41.0694 29.0146 41.1068C29.0039 41.1443 28.9932 41.1844 28.9825 41.2246C28.9718 41.2647 28.9611 41.2995 28.9504 41.3396C28.9397 41.3798 28.929 41.4172 28.9183 41.4547C28.9076 41.4921 28.8969 41.5323 28.8862 41.5697C28.8755 41.6072 28.8647 41.6473 28.854 41.6875C28.8433 41.7276 28.8326 41.7651 28.8219 41.8025C28.8112 41.84 28.8005 41.8801 28.7898 41.9176C28.7791 41.9551 28.7684 41.9952 28.755 42.0353C28.7417 42.0755 28.7363 42.1103 28.7229 42.1504C28.7095 42.1905 28.7042 42.228 28.6908 42.2655C28.6774 42.3029 28.6721 42.3431 28.6587 42.3805C28.6453 42.418 28.64 42.4581 28.6266 42.4983L28.5945 42.6133L28.5624 42.7284L28.5303 42.8461L28.4982 42.9612L28.466 43.0763L28.4339 43.1913L28.4018 43.3091L28.3697 43.4241L28.3376 43.5392L28.3055 43.6543C28.2921 43.6944 28.2841 43.7319 28.2734 43.772C28.2627 43.8121 28.252 43.8496 28.2413 43.8871C28.2306 43.9245 28.2199 43.9647 28.2092 44.0021C28.1985 44.0396 28.1877 44.0797 28.177 44.1199C28.1663 44.16 28.1556 44.1975 28.1449 44.2349C28.1342 44.2724 28.1235 44.3125 28.1128 44.35C28.1021 44.3875 28.0914 44.4276 28.0807 44.4677C28.07 44.5079 28.0593 44.5427 28.0486 44.5828C28.0379 44.6229 28.0272 44.6604 28.0165 44.6979C28.0058 44.7353 27.9951 44.7754 27.9844 44.8129C27.9737 44.8504 27.963 44.8905 27.9523 44.9307C27.9416 44.9708 27.9309 45.0083 27.9202 45.0457C27.9095 45.0832 27.8988 45.1233 27.888 45.1608C27.8773 45.1982 27.8666 45.2384 27.8533 45.2785C27.8399 45.3187 27.8345 45.3534 27.8212 45.3936C27.8078 45.4337 27.8024 45.4712 27.789 45.5086C27.7757 45.5461 27.7703 45.5863 27.7569 45.6237C27.7436 45.6612 27.7382 45.7013 27.7248 45.7415L27.6927 45.8565L27.6606 45.9716L27.6285 46.0893L27.5964 46.2044L27.5643 46.3194L27.5322 46.4345L27.5 46.5522L27.4679 46.6673L27.4358 46.7824L27.4037 46.8974C27.3903 46.9376 27.3823 46.975 27.3716 47.0152C27.3609 47.0553 27.3502 47.0928 27.3395 47.1302C27.3288 47.1677 27.3181 47.2078 27.3074 47.2453C27.2967 47.2828 27.286 47.3229 27.2753 47.363C27.2646 47.4032 27.2539 47.4406 27.2432 47.4781C27.2325 47.5156 27.2218 47.5557 27.2111 47.5932C27.2003 47.6306 27.1896 47.6708 27.1789 47.7082C27.1682 47.7457 27.1575 47.7858 27.1468 47.826C27.1361 47.8661 27.1254 47.9036 27.1147 47.941C27.104 47.9785 27.0933 48.0186 27.0826 48.0561C27.0719 48.0935 27.0612 48.1337 27.0505 48.1738C27.0398 48.214 27.0291 48.2514 27.0184 48.2889C27.0077 48.3263 26.997 48.3665 26.9863 48.4039C26.9756 48.4414 26.9649 48.4815 26.9515 48.519C26.9381 48.5565 26.9328 48.5966 26.9194 48.6367C26.906 48.6769 26.9007 48.7144 26.8873 48.7518C26.8739 48.7893 26.8685 48.8294 26.8552 48.8669C26.8418 48.9043 26.8364 48.9445 26.823 48.9846L26.7909 49.0997L26.7588 49.2147L26.7267 49.3298L26.6946 49.4475L26.6625 49.5626L26.6304 49.6777L26.5983 49.7954L26.5662 49.9105L26.5341 50.0255L26.5019 50.1406C26.5019 50.1807 26.4805 50.2182 26.4698 50.2583C26.4591 50.2985 26.4484 50.3359 26.4377 50.3734C26.427 50.4109 26.4163 50.451 26.4056 50.4885C26.3949 50.5259 26.3842 50.5661 26.3735 50.6062C26.3628 50.6463 26.3521 50.6811 26.3414 50.7213C26.3307 50.7614 26.32 50.7989 26.3093 50.8363C26.2986 50.8738 26.2879 50.9139 26.2772 50.9514C26.2665 50.9889 26.2558 51.029 26.2451 51.0691C26.2343 51.1093 26.2236 51.1467 26.2129 51.1842C26.2022 51.2217 26.1915 51.2618 26.1808 51.2993C26.1701 51.3367 26.1594 51.3769 26.1487 51.4143C26.138 51.4518 26.1273 51.4919 26.1166 51.5321C26.1059 51.5722 26.0952 51.6097 26.0845 51.6471C26.0738 51.6846 26.0631 51.7247 26.0497 51.7622C26.0363 51.7997 26.031 51.8398 26.0176 51.8799C26.0042 51.9201 25.9989 51.9575 25.9855 51.995C25.9721 52.0325 25.9668 52.0726 25.9534 52.1101C25.94 52.1475 25.9347 52.1877 25.9213 52.2278L25.8892 52.3429L25.8571 52.4579L25.8249 52.573L25.7928 52.6907L25.7607 52.8058L25.7286 52.9208L25.6965 53.0386L25.6644 53.1536L25.6323 53.2687L25.6002 53.3838L25.5681 53.5015C25.5547 53.539 25.5466 53.5791 25.5359 53.6166C25.5252 53.654 25.5145 53.6942 25.5038 53.7316C25.4931 53.7691 25.4824 53.8092 25.4717 53.8494C25.461 53.8895 25.4503 53.9243 25.4396 53.9644C25.4289 54.0046 25.4182 54.042 25.4075 54.0795C25.3968 54.117 25.3861 54.1571 25.3754 54.1946C25.3647 54.232 25.354 54.2722 25.3433 54.3123C25.3326 54.3524 25.3219 54.3899 25.3112 54.4274C25.3005 54.4648 25.2898 54.505 25.2791 54.5424C25.2684 54.5799 25.2577 54.62 25.247 54.6575C25.2362 54.6949 25.2255 54.7351 25.2148 54.7752C25.2041 54.8154 25.1934 54.8528 25.1827 54.8903C25.172 54.9278 25.1613 54.9679 25.1479 55.0054C25.1346 55.0428 25.1292 55.083 25.1158 55.1231C25.1025 55.1632 25.0971 55.198 25.0837 55.2382C25.0703 55.2783 25.065 55.3158 25.0516 55.3532C25.0382 55.3907 25.0329 55.4308 25.0195 55.4683L24.9874 55.586L24.9553 55.7011L24.9232 55.8161L24.8911 55.9339L24.8589 56.0489L24.8268 56.1533L24.7947 56.2684L24.7626 56.3861L24.7305 56.5012L24.6984 56.6162L24.6663 56.734C24.6529 56.7714 24.6449 56.8116 24.6342 56.849C24.6235 56.8865 24.6128 56.9266 24.6021 56.9641C24.5914 57.0016 24.5807 57.0417 24.57 57.0792C24.5593 57.1166 24.5485 57.1568 24.5378 57.1969C24.5271 57.237 24.5164 57.2745 24.5057 57.312C24.495 57.3494 24.4843 57.3896 24.4736 57.427C24.4629 57.4645 24.4522 57.5046 24.4415 57.5448C24.4308 57.5849 24.4201 57.6197 24.4094 57.6598C24.3987 57.7 24.388 57.7374 24.3773 57.7749C24.3666 57.8124 24.3559 57.8525 24.3452 57.89C24.3345 57.9274 24.3238 57.9676 24.3131 58.0077C24.1489 58.5271 24.065 59.0685 24.0642 59.6132V59.8808C24.0642 61.3002 24.6281 62.6614 25.6317 63.6651C26.6354 64.6687 27.9966 65.2326 29.416 65.2326H66.6081C68.0275 65.2326 69.3887 64.6687 70.3924 63.6651C71.396 62.6614 71.9599 61.3002 71.9599 59.8808V59.6132C71.9537 59.0742 71.8662 58.5393 71.7003 58.0264Z" fill="#1F157C"/>
<path d="M66.6482 54.5933H29.3518C26.3961 54.5933 24 56.9893 24 59.945V60.2126C24 63.1683 26.3961 65.5644 29.3518 65.5644H66.6482C69.6039 65.5644 72 63.1683 72 60.2126V59.945C72 56.9893 69.6039 54.5933 66.6482 54.5933Z" fill="#DEE4F3"/>
<path d="M37.8477 61.7569C38.7048 61.7569 39.3997 61.062 39.3997 60.2048C39.3997 59.3477 38.7048 58.6528 37.8477 58.6528C36.9905 58.6528 36.2957 59.3477 36.2957 60.2048C36.2957 61.062 36.9905 61.7569 37.8477 61.7569Z" fill="#1F157C"/>
<path d="M31.5327 61.7569C32.3899 61.7569 33.0847 61.062 33.0847 60.2048C33.0847 59.3477 32.3899 58.6528 31.5327 58.6528C30.6756 58.6528 29.9807 59.3477 29.9807 60.2048C29.9807 61.062 30.6756 61.7569 31.5327 61.7569Z" fill="#1F157C"/>
<path d="M64.4273 62.693C65.8017 62.693 66.9159 61.5788 66.9159 60.2044C66.9159 58.83 65.8017 57.7158 64.4273 57.7158C63.0529 57.7158 61.9387 58.83 61.9387 60.2044C61.9387 61.5788 63.0529 62.693 64.4273 62.693Z" fill="#1F157C"/>
<path d="M49.7634 38.7358V39.6965C49.7634 41.9781 49.7634 44.2607 49.7634 46.5441C49.7793 46.9281 49.7559 47.3127 49.6938 47.692C49.4476 48.8614 48.7091 49.6534 47.6254 50.1431C47.303 50.2798 46.9723 50.396 46.6353 50.491C46.4346 50.5526 46.3195 50.475 46.2741 50.2689C46.2598 50.1913 46.2536 50.1124 46.2553 50.0334C46.2553 47.9998 46.2553 45.9688 46.2553 43.9351C46.2468 43.362 46.3637 42.7939 46.5978 42.2707C47.0967 41.1204 47.8432 40.0944 48.784 39.2657C49.054 39.0002 49.3935 38.8165 49.7634 38.7358Z" fill="#DEE4F3"/>
<path d="M46.2339 36.5928L46.2633 41.2675C47.1436 40.1002 48.3662 39.2368 49.7607 38.7977V36.5928H46.2339Z" fill="#FDAF17"/>
</svg>
