<svg width="32" height="33" viewBox="0 0 32 33" fill="none" xmlns="http://www.w3.org/2000/svg">
<path fill-rule="evenodd" clip-rule="evenodd" d="M26.011 8.4555H6.53306C5.4125 8.4555 4.50411 9.39521 4.50411 10.5544V20.6292C4.50411 21.7884 5.4125 22.7281 6.53306 22.7281H26.011C27.1315 22.7281 28.0399 21.7884 28.0399 20.6292V10.5544C28.0399 9.39521 27.1315 8.4555 26.011 8.4555ZM6.53306 6.77637C4.51606 6.77637 2.88095 8.46785 2.88095 10.5544V20.6292C2.88095 22.7157 4.51606 24.4072 6.53306 24.4072H26.011C28.028 24.4072 29.6631 22.7157 29.6631 20.6292V10.5544C29.6631 8.46785 28.028 6.77637 26.011 6.77637H6.53306Z" fill="#1E1E1E"/>
<path d="M6.53314 9.295H26.011C26.6834 9.295 27.2284 9.85883 27.2284 10.5543V20.6291C27.2284 21.3246 26.6834 21.8885 26.011 21.8885H6.53314C5.8608 21.8885 5.31577 21.3246 5.31577 20.6291V10.5543C5.31577 9.85883 5.8608 9.295 6.53314 9.295Z" fill="#1E1E1E"/>
<path d="M1.5 26.0621C1.5 25.6676 1.89746 25.3478 2.38776 25.3478H29.6122C30.1025 25.3478 30.5 25.6676 30.5 26.0621C30.5 26.4566 30.1025 26.7764 29.6122 26.7764H2.38776C1.89746 26.7764 1.5 26.4566 1.5 26.0621Z" fill="#1E1E1E"/>
</svg>
