<svg width="20" height="10" viewBox="0 0 20 10" fill="none" xmlns="http://www.w3.org/2000/svg">
<path d="M19.1999 5.42576V5.50298C19.1523 6.44847 17.6755 7.08597 16.9157 7.35696C16.4079 7.53809 15.8658 7.68363 15.339 7.80095C14.4965 7.98866 13.6379 8.11487 12.7778 8.19351V7.25369C13.9082 7.14076 15.0629 6.96981 16.1468 6.62637C16.9422 6.37421 18.8839 5.61565 17.7139 4.56278C17.219 4.11749 16.4551 3.86739 15.8281 3.67479V3.25C16.3048 3.36628 16.7783 3.50964 17.234 3.6909C17.9256 3.96588 19.1567 4.56703 19.1999 5.42563V5.42576Z" fill="black"/>
<path d="M4.55389 3.15918V3.55831C3.82327 3.77477 2.96039 4.01094 2.35998 4.49838C0.93262 5.6571 3.32602 6.4827 4.17795 6.72145C5.74775 7.16132 7.41479 7.31396 9.03971 7.36824C9.38705 7.37984 9.78938 7.41362 10.1338 7.39518C10.1876 7.39235 10.2391 7.37468 10.294 7.38165V6.06848L12.057 7.81288L10.294 9.57016V8.33435C10.0732 8.33061 9.85159 8.33912 9.63059 8.33487C7.99343 8.30315 6.33348 8.16495 4.73161 7.81546C3.64812 7.57902 1.78661 7.05793 1.07931 6.16478C0.151391 4.99292 1.75571 4.10712 2.66237 3.73248C3.26961 3.48148 3.91265 3.29699 4.55389 3.15918Z" fill="black"/>
<path d="M13.1234 0.988023C14.2738 0.890818 14.8923 1.63442 15.0289 2.70457C15.1778 3.87064 14.8693 5.36119 13.4541 5.45118C11.8672 5.55199 11.3725 3.97983 11.5854 2.66796C11.7167 1.85809 12.2412 1.06267 13.1235 0.988023H13.1234ZM13.2254 1.99127C13.091 2.01924 12.9662 2.2482 12.9177 2.36577C12.7159 2.8545 12.7271 3.67791 12.9624 4.15387C13.1122 4.45683 13.3714 4.65807 13.5996 4.28382C13.8518 3.87025 13.8515 3.04028 13.7374 2.58042C13.6819 2.35675 13.5211 1.92964 13.2254 1.99139V1.99127Z" fill="black"/>
<path d="M11.2455 1.47425L10.8347 2.27818L10.7956 2.27857C10.4012 2.02795 9.84978 1.81085 9.44448 2.16138C9.27912 2.30448 9.14286 2.56799 9.14209 2.78586C9.82273 2.22146 10.9321 2.49025 11.2654 3.31391C11.7207 4.4386 10.7987 5.48464 9.6441 5.43772C7.86695 5.36539 7.61814 3.06304 8.33549 1.82465C8.95766 0.750627 10.3371 0.818954 11.2453 1.47412L11.2455 1.47425ZM9.68596 3.39436C9.5488 3.41189 9.36901 3.51477 9.26418 3.60333C9.22078 3.64008 9.13629 3.71575 9.13423 3.77067C9.12264 4.07969 9.37043 4.4591 9.70695 4.45832C10.4588 4.45652 10.4256 3.2996 9.68583 3.39449L9.68596 3.39436Z" fill="black"/>
<path d="M6.24696 2.83761C6.73018 2.78024 6.77808 2.15744 6.33943 1.98559C5.9872 1.84765 5.62582 2.0592 5.38473 2.30943C5.326 2.22048 4.77066 1.61804 4.79191 1.57602C4.82153 1.51762 5.04434 1.35505 5.10912 1.31315C5.54661 1.02966 6.00999 0.938514 6.52643 1.02618C7.11036 1.12532 7.57644 1.47726 7.66569 2.08795C7.7306 2.53156 7.57168 2.82034 7.23181 3.08862C7.6608 3.39699 7.88566 3.84898 7.76576 4.38257C7.5709 5.25019 6.46345 5.59221 5.68467 5.40825C5.29586 5.31646 4.87228 5.08646 4.646 4.75115L5.28169 4.09946C5.54854 4.38837 5.95152 4.5949 6.35038 4.46018C6.79315 4.31063 6.71781 3.58431 6.23408 3.58431H5.68068L5.66136 3.56497V2.85695L5.68068 2.83761C5.85982 2.82227 6.07207 2.85837 6.24696 2.83761Z" fill="black"/>
<path d="M15.9286 0.716596C16.5864 0.69945 16.9802 1.45349 16.5925 1.98683C16.2465 2.46267 15.513 2.40581 15.242 1.88524C14.9726 1.36763 15.3462 0.731808 15.9286 0.716596ZM15.9408 1.10322C15.3884 1.11495 15.4117 1.99018 16.0145 1.92366C16.4896 1.87119 16.4684 1.09201 15.9408 1.10322Z" fill="black"/>
</svg>
