<svg width="37" height="41" viewBox="0 0 37 41" fill="none" xmlns="http://www.w3.org/2000/svg">
<path d="M17.3578 36.5916V21.4867L4.1329 13.8284V28.567C4.1329 28.6756 4.16004 28.7773 4.21432 28.8723C4.26856 28.9673 4.34993 29.0486 4.45845 29.1165L17.3578 36.5916ZM20.5317 36.5916L33.4311 29.1165C33.5396 29.0486 33.621 28.9673 33.6752 28.8723C33.7295 28.7773 33.7567 28.6756 33.7567 28.567V13.8284L20.5317 21.4867V36.5916ZM17.0323 40.0543L2.87151 31.9038C2.26927 31.5566 1.79996 31.0927 1.46359 30.5121C1.12719 29.9316 0.958984 29.2941 0.958984 28.5996V12.5508C0.958984 11.8563 1.12719 11.2188 1.46359 10.6383C1.79996 10.0577 2.26927 9.59383 2.87151 9.2466L17.0323 1.09604C17.6345 0.748812 18.272 0.575195 18.9448 0.575195C19.6176 0.575195 20.2551 0.748812 20.8573 1.09604L35.018 9.2466C35.6203 9.59383 36.0896 10.0577 36.426 10.6383C36.7624 11.2188 36.9306 11.8563 36.9306 12.5508V28.5996C36.9306 29.2941 36.7624 29.9316 36.426 30.5121C36.0896 31.0927 35.6203 31.5566 35.018 31.9038L20.8573 40.0543C20.2551 40.4016 19.6176 40.5752 18.9448 40.5752C18.272 40.5752 17.6345 40.4016 17.0323 40.0543ZM27.1035 14.0157L32.011 11.1998L19.2703 3.83047C19.1618 3.76266 19.0533 3.72875 18.9448 3.72875C18.8363 3.72875 18.7278 3.76266 18.6192 3.83047L14.0251 6.47545L27.1035 14.0157ZM18.9448 18.7522L23.8645 15.9038L10.7982 8.35132L5.87854 11.1998L18.9448 18.7522Z" fill="#221690"/>
</svg>
