<svg width="42" height="42" viewBox="0 0 42 42" fill="none" xmlns="http://www.w3.org/2000/svg">
<path fill-rule="evenodd" clip-rule="evenodd" d="M7.08767 30.5989L4.55091 28.0621C3.8675 27.3787 3.8675 26.2707 4.55091 25.5873L10.7381 19.4001L13.213 21.875C13.8964 22.5584 15.0044 22.5584 15.6878 21.875C16.3713 21.1915 16.3713 20.0835 15.6878 19.4001L13.213 16.9252L25.5873 4.55084C26.2708 3.86742 27.3788 3.86742 28.0622 4.55084L30.599 7.08759C29.4735 8.78629 29.6592 11.0975 31.1558 12.5942C32.6525 14.0908 34.9637 14.2764 36.6624 13.151L39.1992 15.6878C39.8826 16.3712 39.8826 17.4792 39.1992 18.1626L26.8248 30.537L24.3499 28.0621C23.6665 27.3787 22.5585 27.3787 21.875 28.0621C21.1916 28.7456 21.1916 29.8536 21.875 30.537L24.3499 33.0119L18.1627 39.1991C17.4793 39.8825 16.3713 39.8825 15.6878 39.1991L13.1511 36.6623C14.2765 34.9636 14.0909 32.6524 12.5943 31.1557C11.0976 29.6591 8.78637 29.4735 7.08767 30.5989ZM16.9253 23.1124C16.2419 23.7958 16.2419 24.9039 16.9253 25.5873L18.1627 26.8247C18.8461 27.5081 19.9542 27.5081 20.6376 26.8247C21.321 26.1413 21.321 25.0333 20.6376 24.3498L19.4002 23.1124C18.7167 22.429 17.6087 22.429 16.9253 23.1124Z" fill="#FFAE1E"/>
</svg>
