<svg width="276" height="86" viewBox="0 0 276 86" fill="none" xmlns="http://www.w3.org/2000/svg">
<mask id="path-1-inside-1_270_1588" fill="white">
<path d="M268 0C272.418 0 276 3.58172 276 8V28.3271C269.611 30.4406 265 36.4677 265 43.5732C265 50.6787 269.611 56.7048 276 58.8184V78C276 82.4183 272.418 86 268 86H8C3.58172 86 0 82.4183 0 78V71.0938C3.16234 71.0938 5.72637 68.5266 5.72656 65.3604C5.72656 62.2929 3.32033 59.7875 0.294922 59.6338L0 59.627V56.1865C3.16246 56.1865 5.72656 53.6196 5.72656 50.4531C5.72645 47.3858 3.32025 44.8812 0.294922 44.7275L0 44.7197V41.2803C3.16239 41.2803 5.72645 38.7132 5.72656 35.5469C5.72656 32.4795 3.32033 29.974 0.294922 29.8203L0 29.8135V26.373C3.16246 26.373 5.72656 23.8061 5.72656 20.6396C5.72638 17.5724 3.32021 15.0677 0.294922 14.9141L0 14.9062V8C0 3.58172 3.58172 8.0532e-08 8 0H268Z"/>
</mask>
<path d="M268 0C272.418 0 276 3.58172 276 8V28.3271C269.611 30.4406 265 36.4677 265 43.5732C265 50.6787 269.611 56.7048 276 58.8184V78C276 82.4183 272.418 86 268 86H8C3.58172 86 0 82.4183 0 78V71.0938C3.16234 71.0938 5.72637 68.5266 5.72656 65.3604C5.72656 62.2929 3.32033 59.7875 0.294922 59.6338L0 59.627V56.1865C3.16246 56.1865 5.72656 53.6196 5.72656 50.4531C5.72645 47.3858 3.32025 44.8812 0.294922 44.7275L0 44.7197V41.2803C3.16239 41.2803 5.72645 38.7132 5.72656 35.5469C5.72656 32.4795 3.32033 29.974 0.294922 29.8203L0 29.8135V26.373C3.16246 26.373 5.72656 23.8061 5.72656 20.6396C5.72638 17.5724 3.32021 15.0677 0.294922 14.9141L0 14.9062V8C0 3.58172 3.58172 8.0532e-08 8 0H268Z" fill="url(#paint0_radial_270_1588)"/>
<path d="M276 28.3271L276.314 29.2766L277 29.0497V28.3271H276ZM265 43.5732L264 43.5732V43.5732H265ZM276 58.8184H277V58.0959L276.314 57.869L276 58.8184ZM268 86V87V86ZM0 71.0938V70.0938H-1V71.0938H0ZM5.72656 65.3604L6.72656 65.3604V65.3604H5.72656ZM0.294922 59.6338L0.345651 58.6351L0.33188 58.6344L0.318094 58.6341L0.294922 59.6338ZM0 59.627H-1V60.604L-0.0231726 60.6267L0 59.627ZM0 56.1865V55.1865H-1V56.1865H0ZM5.72656 50.4531H6.72656V50.4531L5.72656 50.4531ZM0.294922 44.7275L0.345655 43.7288L0.333535 43.7282L0.321403 43.7279L0.294922 44.7275ZM0 44.7197H-1V45.6936L-0.0264808 45.7194L0 44.7197ZM0 41.2803V40.2803H-1V41.2803H0ZM5.72656 35.5469L6.72656 35.5469V35.5469H5.72656ZM0.294922 29.8203L0.34565 28.8216L0.331879 28.8209L0.318094 28.8206L0.294922 29.8203ZM0 29.8135H-1V30.7906L-0.0231726 30.8132L0 29.8135ZM0 26.373V25.373H-1V26.373H0ZM5.72656 20.6396H6.72656V20.6396L5.72656 20.6396ZM0.294922 14.9141L0.345654 13.9153L0.333534 13.9147L0.321403 13.9144L0.294922 14.9141ZM0 14.9062H-1V15.8801L-0.0264808 15.9059L0 14.9062ZM8 0V-1V0ZM268 0V1C271.866 1 275 4.13401 275 8H276H277C277 3.02944 272.971 -1 268 -1V0ZM276 8H275V28.3271H276H277V8H276ZM276 28.3271L275.686 27.3777C268.899 29.6227 264 36.0243 264 43.5732L265 43.5732L266 43.5732C266 36.9111 270.323 31.2584 276.314 29.2766L276 28.3271ZM265 43.5732H264C264 51.1222 268.899 57.5227 275.686 59.7678L276 58.8184L276.314 57.869C270.323 55.887 266 50.2352 266 43.5732H265ZM276 58.8184H275V78H276H277V58.8184H276ZM276 78H275C275 81.866 271.866 85 268 85V86V87C272.971 87 277 82.9706 277 78H276ZM268 86V85H8V86V87H268V86ZM8 86V85C4.13401 85 1 81.866 1 78H0H-1C-1 82.9706 3.02944 87 8 87V86ZM0 78H1V71.0938H0H-1V78H0ZM0 71.0938V72.0938C3.71579 72.0938 6.72634 69.0778 6.72656 65.3604L5.72656 65.3604L4.72656 65.3603C4.72641 67.9755 2.6089 70.0938 0 70.0938V71.0938ZM5.72656 65.3604H6.72656C6.72656 61.7588 3.90138 58.8157 0.345651 58.6351L0.294922 59.6338L0.244192 60.6325C2.73928 60.7592 4.72656 62.8271 4.72656 65.3604H5.72656ZM0.294922 59.6338L0.318094 58.6341L0.0231726 58.6272L0 59.627L-0.0231726 60.6267L0.271749 60.6335L0.294922 59.6338ZM0 59.627H1V56.1865H0H-1V59.627H0ZM0 56.1865V57.1865C3.71585 57.1865 6.72656 54.1707 6.72656 50.4531H5.72656H4.72656C4.72656 53.0684 2.60907 55.1865 0 55.1865V56.1865ZM5.72656 50.4531L6.72656 50.4531C6.72643 46.8515 3.90111 43.9094 0.345655 43.7288L0.294922 44.7275L0.244189 45.7262C2.73939 45.853 4.72647 47.9202 4.72656 50.4532L5.72656 50.4531ZM0.294922 44.7275L0.321403 43.7279L0.0264808 43.7201L0 44.7197L-0.0264808 45.7194L0.268441 45.7272L0.294922 44.7275ZM0 44.7197H1V41.2803H0H-1V44.7197H0ZM0 41.2803V42.2803C3.71581 42.2803 6.72643 39.2644 6.72656 35.5469L5.72656 35.5469L4.72656 35.5468C4.72647 38.1621 2.60897 40.2803 0 40.2803V41.2803ZM5.72656 35.5469H6.72656C6.72656 31.9453 3.90138 29.0022 0.34565 28.8216L0.294922 29.8203L0.244194 30.819C2.73929 30.9458 4.72656 33.0136 4.72656 35.5469H5.72656ZM0.294922 29.8203L0.318094 28.8206L0.0231726 28.8137L0 29.8135L-0.0231726 30.8132L0.271749 30.82L0.294922 29.8203ZM0 29.8135H1V26.373H0H-1V29.8135H0ZM0 26.373V27.373C3.71585 27.373 6.72656 24.3573 6.72656 20.6396H5.72656H4.72656C4.72656 23.2549 2.60907 25.373 0 25.373V26.373ZM5.72656 20.6396L6.72656 20.6396C6.72635 17.0381 3.90109 14.096 0.345654 13.9153L0.294922 14.9141L0.24419 15.9128C2.73932 16.0395 4.72641 18.1067 4.72656 20.6397L5.72656 20.6396ZM0.294922 14.9141L0.321403 13.9144L0.0264808 13.9066L0 14.9062L-0.0264808 15.9059L0.268441 15.9137L0.294922 14.9141ZM0 14.9062H1V8H0H-1V14.9062H0ZM0 8H1C1 4.13401 4.13401 1 8 1V0V-1C3.02944 -1 -1 3.02944 -1 8H0ZM8 0V1H268V0V-1H8V0Z" fill="#B2B9FF" mask="url(#path-1-inside-1_270_1588)"/>
<defs>
<radialGradient id="paint0_radial_270_1588" cx="0" cy="0" r="1" gradientUnits="userSpaceOnUse" gradientTransform="translate(72 7.5) rotate(22.4525) scale(236.963 162.187)">
<stop offset="0.286514" stop-color="#291ABD"/>
<stop offset="1" stop-color="#130C57"/>
</radialGradient>
</defs>
</svg>
