<svg width="61" height="41" viewBox="0 0 61 41" fill="none" xmlns="http://www.w3.org/2000/svg">
<path d="M40.1636 15.4472V37.1321C40.1636 38.0942 39.8303 38.9086 39.1636 39.5753C38.4969 40.242 37.6825 40.5753 36.7204 40.5753H7.41639C6.45423 40.5753 5.63982 40.242 4.97315 39.5753C4.30648 38.9086 3.97314 38.0942 3.97314 37.1321V15.4472C3.97314 14.485 4.30648 13.6706 4.97315 13.0039C5.63982 12.3372 6.45423 12.0039 7.41639 12.0039H36.7204C37.6825 12.0039 38.4969 12.3372 39.1636 13.0039C39.8303 13.6706 40.1636 14.485 40.1636 15.4472ZM6.83025 19.4398H37.3065V15.4472C37.3065 15.3006 37.2455 15.1663 37.1234 15.0442C37.0012 14.9221 36.8669 14.861 36.7204 14.861H7.41639C7.26985 14.861 7.13552 14.9221 7.01339 15.0442C6.89129 15.1663 6.83025 15.3006 6.83025 15.4472V19.4398ZM6.83025 25.5203V37.1321C6.83025 37.2786 6.89129 37.4129 7.01339 37.5351C7.13552 37.6572 7.26985 37.7182 7.41639 37.7182H36.7204C36.8669 37.7182 37.0012 37.6572 37.1234 37.5351C37.2455 37.4129 37.3065 37.2786 37.3065 37.1321V25.5203H6.83025Z" fill="#221690"/>
<path d="M53.6284 0.575195C54.7228 0.575195 55.6597 0.970993 56.439 1.76172C57.2181 2.55244 57.6079 3.50302 57.6079 4.61328V21.5371C57.6079 22.6474 57.2181 23.598 56.439 24.3887C55.6597 25.1794 54.7228 25.5752 53.6284 25.5752H42.1636V22.2246H50.3267C50.3267 21.1107 50.7164 20.159 51.4956 19.3701C52.2749 18.5813 53.2119 18.1865 54.3062 18.1865V7.96387C53.2083 7.96387 52.2702 7.56807 51.4927 6.77734C50.7152 5.98663 50.3267 5.03606 50.3267 3.92578H27.8892C27.8891 5.03971 27.4995 5.99136 26.7202 6.78027C25.9409 7.56908 25.0039 7.96387 23.9097 7.96387V10.0039H20.6079V4.61328C20.6079 3.50302 20.9977 2.55244 21.7769 1.76172C22.5562 0.970993 23.4931 0.575195 24.5874 0.575195H53.6284ZM39.1079 7.49121C40.646 7.49121 41.9478 8.0314 43.0132 9.1123C44.0786 10.1933 44.6108 11.5145 44.6108 13.0752C44.6108 14.6359 44.0786 15.9571 43.0132 17.0381C42.7452 17.31 42.4615 17.5465 42.1636 17.75V15.4473C42.1636 13.9669 41.6279 12.6401 40.5776 11.5898C39.5274 10.5396 38.2006 10.0039 36.7202 10.0039H34.481C34.6858 9.69078 34.9259 9.39308 35.2026 9.1123C36.268 8.03138 37.5699 7.49121 39.1079 7.49121Z" fill="#221690"/>
</svg>
