<svg width="65" height="33" viewBox="0 0 65 33" fill="none" xmlns="http://www.w3.org/2000/svg">
<path d="M32.3324 29.0752C31.0137 29.0752 29.894 28.6129 28.9735 27.6884C28.0529 26.7639 27.5926 25.6412 27.5926 24.3204H26.2605C25.8278 24.3204 25.4651 24.1737 25.1724 23.8804C24.8797 23.587 24.7334 23.2235 24.7334 22.7898V6.63653C24.7334 5.78109 25.0291 5.057 25.6204 4.46428C26.2117 3.87156 26.9341 3.5752 27.7875 3.5752H47.737C48.5769 3.5752 49.2959 3.87496 49.894 4.47448C50.4921 5.07398 50.7912 5.79466 50.7912 6.63653V10.0235H53.7478C54.2314 10.0235 54.6895 10.1319 55.1222 10.3488C55.5548 10.5656 55.9111 10.8654 56.1911 11.248L60.428 16.9343C60.5298 17.0619 60.6061 17.2022 60.657 17.3552C60.7079 17.5083 60.7334 17.6741 60.7334 17.8527V22.7898C60.7334 23.2235 60.5871 23.587 60.2944 23.8804C60.0017 24.1737 59.639 24.3204 59.2063 24.3204H57.6793C57.6793 25.6412 57.2177 26.7639 56.2946 27.6884C55.3714 28.6129 54.2505 29.0752 52.9318 29.0752C51.613 29.0752 50.4934 28.6129 49.5728 27.6884C48.6522 26.7639 48.1919 25.6412 48.1919 24.3204H37.0799C37.0799 25.6448 36.6184 26.7684 35.6952 27.6911C34.7721 28.6138 33.6512 29.0752 32.3324 29.0752ZM32.3363 26.535C32.9558 26.535 33.4789 26.3212 33.9056 25.8935C34.3323 25.4657 34.5457 24.9414 34.5457 24.3204C34.5457 23.6995 34.3323 23.1751 33.9056 22.7474C33.4789 22.3197 32.9558 22.1058 32.3363 22.1058C31.7167 22.1058 31.1936 22.3197 30.7669 22.7474C30.3402 23.1751 30.1268 23.6995 30.1268 24.3204C30.1268 24.9414 30.3402 25.4657 30.7669 25.8935C31.1936 26.3212 31.7167 26.535 32.3363 26.535ZM27.2677 21.7803H28.4893C28.8488 21.1528 29.3682 20.6268 30.0472 20.2023C30.7263 19.7779 31.4893 19.5656 32.3363 19.5656C33.1615 19.5656 33.9191 19.7752 34.609 20.1942C35.2989 20.6132 35.8236 21.1419 36.1832 21.7803H48.2569V6.63653C48.2569 6.48454 48.2082 6.35968 48.1107 6.26197C48.0132 6.16425 47.8886 6.1154 47.737 6.1154H27.7875C27.6576 6.1154 27.5384 6.16967 27.4301 6.27822C27.3218 6.38681 27.2677 6.50624 27.2677 6.63653V21.7803ZM52.9356 26.535C53.5551 26.535 54.0782 26.3212 54.5049 25.8935C54.9317 25.4657 55.145 24.9414 55.145 24.3204C55.145 23.6995 54.9317 23.1751 54.5049 22.7474C54.0782 22.3197 53.5551 22.1058 52.9356 22.1058C52.3161 22.1058 51.793 22.3197 51.3662 22.7474C50.9395 23.1751 50.7262 23.6995 50.7262 24.3204C50.7262 24.9414 50.9395 25.4657 51.3662 25.8935C51.793 26.3212 52.3161 26.535 52.9356 26.535ZM50.7912 18.3933H58.3616L54.1377 12.7754C54.0836 12.7102 54.0213 12.6587 53.9509 12.6207C53.8805 12.5827 53.802 12.5637 53.7153 12.5637H50.7912V18.3933Z" fill="#221690"/>
<rect x="12.5" y="8.8252" width="10.5" height="3" rx="1.5" fill="#221690"/>
<rect x="9.5" y="14.8252" width="12" height="3" rx="1.5" fill="#221690"/>
<rect x="5" y="20.8252" width="15" height="3" rx="1.5" fill="#221690"/>
</svg>
