<svg width="41" height="41" viewBox="0 0 41 41" fill="none" xmlns="http://www.w3.org/2000/svg">
<path d="M16.4173 25.8039L12.9473 21.9324C12.4248 21.3494 12.4248 20.4077 12.9473 19.8247C13.4698 19.2417 14.3139 19.2417 14.8364 19.8247L17.3685 22.6349L25.2463 13.8454C25.7688 13.2625 26.6128 13.2625 27.1353 13.8454C27.6578 14.4284 27.6578 15.3701 27.1353 15.9531L18.3063 25.8039C17.7972 26.3869 16.9398 26.3869 16.4173 25.8039Z" fill="#221690"/>
<path d="M20.0411 40.5752C19.819 40.5752 19.601 40.5574 19.3871 40.5217C19.1733 40.4861 18.9661 40.4326 18.7657 40.3613C14.2552 38.7572 10.6667 35.913 8.00003 31.8286C5.33334 27.7443 4 23.3371 4 18.607V8.97415C4 8.16172 4.23359 7.43052 4.70079 6.78057C5.16798 6.13062 5.77209 5.65942 6.51312 5.36697L18.688 0.821962C19.1459 0.65745 19.5969 0.575195 20.0411 0.575195C20.4853 0.575195 20.9364 0.65745 21.3943 0.821962L33.5692 5.36697C34.3102 5.65942 34.9143 6.13062 35.3815 6.78057C35.8487 7.43052 36.0823 8.16172 36.0823 8.97415V18.607C36.0823 23.3371 34.7489 27.7443 32.0822 31.8286C29.4156 35.913 25.8271 38.7572 21.3166 40.3613C21.1162 40.4326 20.909 40.4861 20.6951 40.5217C20.4813 40.5574 20.2633 40.5752 20.0411 40.5752ZM20.0411 37.4287C23.7484 36.2524 26.8141 33.8997 29.2381 30.3706C31.6621 26.8415 32.8741 22.9203 32.8741 18.607V8.95356C32.8741 8.81646 32.8364 8.69307 32.761 8.58339C32.6856 8.47367 32.5793 8.39139 32.4422 8.33657L20.2674 3.79156C20.1988 3.76415 20.1234 3.75044 20.0411 3.75044C19.9589 3.75044 19.8835 3.76415 19.8149 3.79156L7.64012 8.33657C7.50299 8.39139 7.39672 8.47367 7.32133 8.58339C7.2459 8.69307 7.20819 8.81646 7.20819 8.95356V18.607C7.20819 22.9203 8.42019 26.8415 10.8442 30.3706C13.2682 33.8997 16.3338 36.2524 20.0411 37.4287Z" fill="#221690"/>
</svg>
